{
.appVersion = "3151";
.formatVersion = 3;
DisplayStrings = (
"Offside


"
);
customParameters = (
{
name = descriptions;
value = "";
},
{
name = licenses;
value = "This Font Software is licensed under the SIL Open Font License, Version 1.1. This license is available with a FAQ at: http://scripts.sil.org/OFL";
},
{
name = licenseURL;
value = "http://scripts.sil.org/OFL";
},
{
name = sampleTexts;
value = "";
},
{
name = uniqueID;
value = "EduardoRodriguezTunni: Offside: 2012";
},
{
name = versionString;
value = "Version 1.001";
},
{
name = codePageRanges;
value = (
"1252",
"1250",
"1254",
"1257",
"bit 29"
);
},
{
name = openTypeOS2FamilyClass;
value = (
0,
0
);
},
{
name = panose;
value = (
2,
0,
5,
3,
4,
0,
0,
2,
0,
4
);
},
{
name = openTypeOS2SubscriptXOffset;
value = 0;
},
{
name = openTypeOS2SubscriptXSize;
value = 650;
},
{
name = openTypeOS2SubscriptYOffset;
value = 75;
},
{
name = openTypeOS2SubscriptYSize;
value = 600;
},
{
name = openTypeOS2SuperscriptXOffset;
value = 0;
},
{
name = openTypeOS2SuperscriptXSize;
value = 650;
},
{
name = openTypeOS2SuperscriptYOffset;
value = 350;
},
{
name = openTypeOS2SuperscriptYSize;
value = 600;
},
{
name = unicodeRanges;
value = (
0,
1,
2,
3,
5,
7,
29,
31,
32,
33,
35,
38,
45,
60,
62
);
},
{
name = vendorID;
value = TIPO;
},
{
name = trademarks;
value = "Offside is a trademark of Eduardo Rodriguez Tunni.";
},
{
name = year;
value = 2012;
}
);
date = "2023-02-02 13:36:49 +0000";
familyName = Offside;
featurePrefixes = (
{
code = "languagesystem DFLT dflt; # Default default
languagesystem latn dflt; # Latin default

";
name = Languagesystems;
},
{
code = "#
# Feature definitions
#

###
# OpenType Layout feature definitions
# Format: Adobe FDK for OpenType (AFDKO) version 2.5
# Generated on: 2013-11-19 16:0
# Generated by: Fontlab
# Tool options: fea-inline-lookups: yes, fea-inline-classes: 0, fea-additional-tables: yes, fea-table-overrides: no

glyphs = (
{
glyphname = A;
layers = (
{
layerId = master01;
shapes = (
{
closed = 1;
nodes = (
(176,-5,o),
(190,3,o),
(190,18,cs),
(190,289,l),
(493,289,l),
(493,18,ls),
(493,3,o),
(507,-5,o),
(533,-5,cs),
(559,-5,o),
(573,3,o),
(573,18,cs),
(573,597,ls),
(573,701,o),
(495,755,o),
(347,755,cs),
(194,755,o),
(110,699,o),
(110,597,cs),
(110,18,ls),
(110,3,o),
(124,-5,o),
(150,-5,cs,{
name = hr00;
})
);
},
{
closed = 1;
nodes = (
(190,658,o),
(243,685,o),
(342,685,cs),
(440,685,o),
(493,658,o),
(493,607,cs),
(493,359,l),
(190,359,l),
(190,607,ls)
);
}
);
width = 683;
}
);
unicode = 65;
},
{
glyphname = Aogonek;
layers = (
{
layerId = master01;
shapes = (
{
closed = 1;
nodes = (
(527,-222,o),
(573,-185,o),
(573,-130,cs),
(573,-117,ls),
(573,-104,o),
(561,-96,o),
(540,-96,cs),
(518,-96,o),
(506,-103,o),
(506,-117,cs,{
name = hr01;
}),
(506,-135,ls),
(506,-154,o),
(489,-164,o),
(458,-164,cs),
(428,-164,o),
(409,-152,o),
(409,-134,cs),
(409,-109,ls),
(409,-74,o),
(422,-54,o),
(455,-41,cs),
(551,-3,ls),
(564,2,o),
(573,7,o),
(573,18,cs),
(573,597,ls),
(573,701,o),
(495,755,o),
(347,755,cs),
(194,755,o),
(110,699,o),
(110,597,cs),
(110,18,ls),
(110,3,o),
(124,-5,o),
(150,-5,cs),
(176,-5,o),
(190,3,o),
(190,18,cs),
(190,289,l),
(493,289,l,{
name = hr02;
}),
(493,16,l),
(440,-4,ls),
(359,-36,o),
(342,-54,o),
(342,-108,cs),
(342,-130,ls),
(342,-184,o),
(390,-222,o),
(459,-222,cs)
);
},
{
closed = 1;
nodes = (
(190,658,o),
(243,685,o),
(342,685,cs),
(440,685,o),
(493,658,o),
(493,607,cs),
(493,359,l),
(190,359,l),
(190,607,ls)
);
}
);
width = 683;
}
);
unicode = 260;
},
{
glyphname = AE;
layers = (
{
layerId = master01;
shapes = (
{
closed = 1;
nodes = (
(210,755,o),
(110,714,o),
(110,597,cs),
(110,18,ls),
(110,1,o),
(126,-5,o),
(147,-5,cs),
(168,-5,o),
(185,1,o),
(185,18,cs),
(185,346,l),
(529,346,l),
(487,329,o),
(462,295,o),
(462,228,cs),
(462,143,ls),
(462,26,o),
(562,-15,o),
(685,-15,cs,{
name = hr01;
}),
(808,-15,o),
(905,26,o),
(905,143,cs),
(905,205,ls),
(905,222,o),
(888,228,o),
(865,228,cs),
(843,228,o),
(825,222,o),
(825,205,cs),
(825,133,ls),
(825,75,o),
(767,55,o),
(687,55,cs),
(606,55,o),
(542,75,o),
(542,133,cs),
(542,258,ls),
(542,316,o),
(581,346,o),
(650,346,cs),
(735,346,ls),
(750,346,o),
(755,361,o),
(755,381,cs),
(755,400,o),
(750,416,o),
(735,416,cs),
(641,416,ls),
(578,416,o),
(543,449,o),
(543,504,cs),
(543,607,ls),
(543,665,o),
(604,685,o),
(680,685,cs),
(752,685,o),
(804,665,o),
(804,607,cs,{
name = hr02;
}),
(804,582,ls),
(804,565,o),
(822,559,o),
(844,559,cs),
(867,559,o),
(884,565,o),
(884,582,cs),
(884,597,ls),
(884,714,o),
(793,755,o),
(685,755,cs),
(610,755,o),
(544,740,o),
(504,702,c),
(467,740,o),
(404,755,o),
(332,755,cs)
);
},
{
closed = 1;
nodes = (
(185,665,o),
(248,685,o),
(327,685,cs),
(418,685,o),
(463,664,o),
(463,597,cs),
(463,534,ls),
(463,466,o),
(488,432,o),
(530,416,c),
(185,416,l),
(185,607,ls)
);
}
);
width = 965;
}
);
unicode = 198;
},
{
glyphname = B;
layers = (
{
layerId = master01;
shapes = (
{
closed = 1;
nodes = (
(469,-5,o),
(548,51,o),
(548,153,cs),
(548,258,ls),
(548,328,o),
(522,367,o),
(456,382,c),
(514,399,o),
(538,437,o),
(538,504,cs),
(538,597,ls),
(538,700,o),
(462,755,o),
(320,755,cs),
(177,755,o),
(100,700,o),
(100,597,cs),
(100,171,ls),
(100,45,o),
(145,-5,o),
(258,-5,cs),
(325,-5,ls,{
name = hr00;
})
);
},
{
closed = 1;
nodes = (
(430,346,o),
(468,315,o),
(468,258,cs),
(468,143,ls),
(468,92,o),
(417,65,o),
(323,65,cs),
(258,65,ls),
(201,65,o),
(180,94,o),
(180,171,cs),
(180,607,ls),
(180,658,o),
(227,685,o),
(319,685,cs),
(409,685,o),
(458,657,o),
(458,607,cs),
(458,504,ls),
(458,447,o),
(420,416,o),
(350,416,cs),
(235,416,ls),
(222,416,o),
(215,404,o),
(215,381,cs),
(215,358,o),
(222,346,o),
(235,346,cs),
(360,346,l)
);
}
);
width = 628;
}
);
unicode = 66;
},
{
glyphname = C;
layers = (
{
layerId = master01;
shapes = (
{
closed = 1;
nodes = (
(180,658,o),
(233,685,o),
(330,685,cs),
(425,685,o),
(473,659,o),
(473,607,cs),
(473,535,ls),
(473,520,o),
(487,512,o),
(513,512,cs),
(539,512,o),
(553,520,o),
(553,535,cs),
(553,597,ls),
(553,700,o),
(476,755,o),
(330,755,cs),
(181,755,o),
(100,699,o),
(100,597,cs),
(100,143,ls),
(100,41,o),
(181,-15,o),
(330,-15,cs),
(476,-15,o),
(553,40,o),
(553,143,cs),
(553,205,ls),
(553,220,o),
(539,228,o),
(513,228,cs),
(487,228,o),
(473,220,o),
(473,205,cs),
(473,133,ls),
(473,81,o),
(425,55,o),
(330,55,cs),
(233,55,o),
(180,82,o),
(180,133,cs),
(180,607,ls,{
name = hr00;
})
);
}
);
width = 633;
}
);
unicode = 67;
},
{
glyphname = D;
layers = (
{
layerId = master01;
shapes = (
{
closed = 1;
nodes = (
(190,670,l),
(378,670,ls),
(464,670,o),
(493,650,o),
(493,592,cs),
(493,148,ls),
(493,90,o),
(464,70,o),
(378,70,cs),
(190,70,l,{
name = hr00;
})
);
},
{
closed = 1;
nodes = (
(110,14,o),
(121,0,o),
(170,0,cs),
(378,0,ls),
(515,0,o),
(573,47,o),
(573,158,cs),
(573,582,ls),
(573,693,o),
(515,740,o),
(378,740,cs),
(170,740,ls),
(121,740,o),
(110,726,o),
(110,665,cs),
(110,75,ls)
);
}
);
width = 683;
}
);
unicode = 68;
},
{
glyphname = E;
layers = (
{
layerId = master01;
shapes = (
{
closed = 1;
nodes = (
(188,755,o),
(110,699,o),
(110,597,cs),
(110,504,ls),
(110,437,o),
(133,399,o),
(192,382,c),
(126,367,o),
(100,328,o),
(100,258,cs),
(100,143,ls),
(100,41,o),
(179,-15,o),
(323,-15,cs),
(466,-15,o),
(543,40,o),
(543,143,cs),
(543,205,ls),
(543,220,o),
(529,228,o),
(503,228,cs),
(477,228,o),
(463,220,o),
(463,205,cs),
(463,133,ls),
(463,81,o),
(416,55,o),
(325,55,cs),
(231,55,o),
(180,82,o),
(180,133,cs),
(180,258,ls),
(180,315,o),
(218,346,o),
(288,346,cs),
(373,346,ls),
(386,346,o),
(393,358,o),
(393,381,cs),
(393,404,o),
(386,416,o),
(373,416,cs),
(298,416,ls),
(228,416,o),
(190,447,o),
(190,504,cs),
(190,607,ls),
(190,658,o),
(238,685,o),
(327,685,cs),
(409,685,o),
(451,659,o),
(451,607,cs,{
name = hr01;
}),
(451,582,ls),
(451,567,o),
(465,559,o),
(491,559,cs),
(517,559,o),
(531,567,o),
(531,582,cs),
(531,597,ls),
(531,698,o),
(460,755,o),
(332,755,cs)
);
}
);
width = 603;
}
);
unicode = 69;
},
{
glyphname = Eogonek;
layers = (
{
layerId = master01;
shapes = (
{
closed = 1;
nodes = (
(401,-222,o),
(447,-185,o),
(447,-130,cs),
(447,-117,ls),
(447,-104,o),
(435,-96,o),
(414,-96,cs),
(392,-96,o),
(380,-103,o),
(380,-117,cs),
(380,-135,ls),
(380,-154,o),
(363,-164,o),
(332,-164,cs),
(302,-164,o),
(283,-152,o),
(283,-134,cs),
(283,-109,ls),
(283,-74,o),
(296,-54,o),
(329,-41,cs),
(430,-1,ls),
(502,27,o),
(543,70,o),
(543,143,cs),
(543,205,ls),
(543,220,o),
(529,228,o),
(503,228,cs),
(477,228,o),
(463,220,o),
(463,205,cs),
(463,133,ls),
(463,81,o),
(416,55,o),
(325,55,cs),
(231,55,o),
(180,82,o),
(180,133,cs),
(180,258,ls),
(180,315,o),
(218,346,o),
(288,346,cs),
(373,346,ls),
(386,346,o),
(393,358,o),
(393,381,cs),
(393,404,o),
(386,416,o),
(373,416,cs),
(298,416,ls),
(228,416,o),
(190,447,o),
(190,504,cs),
(190,607,ls),
(190,658,o),
(238,685,o),
(327,685,cs),
(409,685,o),
(451,659,o),
(451,607,cs,{
name = hr01;
}),
(451,582,ls),
(451,567,o),
(465,559,o),
(491,559,cs),
(517,559,o),
(531,567,o),
(531,582,cs),
(531,597,ls),
(531,698,o),
(460,755,o),
(332,755,cs),
(188,755,o),
(110,699,o),
(110,597,cs),
(110,504,ls),
(110,437,o),
(133,399,o),
(192,382,c),
(126,367,o),
(100,328,o),
(100,258,cs),
(100,143,ls),
(100,49,o),
(166,-6,o),
(289,-14,c),
(229,-40,o),
(216,-60,o),
(216,-108,cs),
(216,-130,ls),
(216,-184,o),
(264,-222,o),
(333,-222,cs)
);
}
);
width = 603;
}
);
unicode = 280;
},
{
glyphname = F;
layers = (
{
layerId = master01;
shapes = (
{
closed = 1;
nodes = (
(433,346,o),
(440,358,o),
(440,381,cs),
(440,404,o),
(433,416,o),
(420,416,cs),
(190,416,l),
(190,564,ls),
(190,641,o),
(211,670,o),
(268,670,cs),
(460,670,ls),
(473,670,o),
(480,682,o),
(480,705,cs),
(480,728,o),
(473,740,o),
(460,740,cs),
(268,740,ls),
(155,740,o),
(110,690,o),
(110,564,cs),
(110,18,ls),
(110,3,o),
(124,-5,o),
(150,-5,cs),
(176,-5,o),
(190,3,o),
(190,18,cs),
(190,346,l),
(420,346,ls,{
name = hr00;
})
);
}
);
width = 490;
}
);
unicode = 70;
},
{
glyphname = G;
layers = (
{
layerId = master01;
shapes = (
{
closed = 1;
nodes = (
(483,82,o),
(429,55,o),
(328,55,cs),
(230,55,o),
(180,81,o),
(180,133,cs),
(180,607,ls),
(180,657,o),
(232,685,o),
(327,685,cs),
(420,685,o),
(468,659,o),
(468,607,cs,{
name = hr01;
}),
(468,542,ls),
(468,527,o),
(482,519,o),
(508,519,cs),
(534,519,o),
(548,527,o),
(548,542,cs),
(548,597,ls),
(548,701,o),
(472,755,o),
(327,755,cs),
(180,755,o),
(100,699,o),
(100,597,cs),
(100,143,ls),
(100,39,o),
(179,-15,o),
(328,-15,cs),
(480,-15,o),
(563,41,o),
(563,143,cs,{
name = hr02;
}),
(563,231,ls),
(563,345,o),
(516,389,o),
(397,389,cs),
(320,389,ls),
(307,389,o),
(300,377,o),
(300,354,cs),
(300,331,o),
(307,319,o),
(320,319,cs),
(397,319,ls),
(463,319,o),
(483,299,o),
(483,231,cs),
(483,133,ls)
);
}
);
width = 643;
}
);
unicode = 71;
},
{
glyphname = H;
layers = (
{
layerId = master01;
shapes = (
{
closed = 1;
nodes = (
(573,737,o),
(559,745,o),
(533,745,cs),
(507,745,o),
(493,737,o),
(493,722,cs),
(493,399,l),
(190,399,l),
(190,722,ls),
(190,737,o),
(176,745,o),
(150,745,cs),
(124,745,o),
(110,737,o),
(110,722,cs),
(110,18,ls),
(110,3,o),
(124,-5,o),
(150,-5,cs),
(176,-5,o),
(190,3,o),
(190,18,cs),
(190,329,l),
(493,329,l),
(493,18,ls),
(493,3,o),
(507,-5,o),
(533,-5,cs),
(559,-5,o),
(573,3,o),
(573,18,cs),
(573,722,ls,{
name = hr00;
})
);
}
);
width = 683;
}
);
unicode = 72;
},
{
glyphname = I;
layers = (
{
layerId = master01;
shapes = (
{
closed = 1;
nodes = (
(273,677,o),
(280,688,o),
(280,709,cs),
(280,730,o),
(273,740,o),
(260,740,cs),
(60,740,ls),
(47,740,o),
(40,730,o),
(40,709,cs),
(40,688,o),
(47,677,o),
(60,677,cs),
(120,677,l),
(120,63,l),
(60,63,ls),
(47,63,o),
(40,53,o),
(40,32,cs),
(40,11,o),
(47,0,o),
(60,0,cs),
(260,0,ls),
(273,0,o),
(280,11,o),
(280,32,cs),
(280,53,o),
(273,63,o),
(260,63,cs),
(200,63,l),
(200,677,l),
(260,677,ls,{
name = hr00;
})
);
}
);
width = 320;
}
);
unicode = 73;
},
{
glyphname = Iogonek;
layers = (
{
layerId = master01;
shapes = (
{
closed = 1;
nodes = (
(227,-222,o),
(273,-185,o),
(273,-130,cs),
(273,-117,ls),
(273,-104,o),
(261,-96,o),
(240,-96,cs),
(218,-96,o),
(206,-103,o),
(206,-117,cs),
(206,-135,ls),
(206,-154,o),
(189,-164,o),
(158,-164,cs),
(128,-164,o),
(109,-152,o),
(109,-134,cs),
(109,-109,ls),
(109,-74,o),
(122,-54,o),
(155,-41,cs),
(260,0,l),
(272,5,o),
(280,11,o),
(280,32,cs),
(280,53,o),
(273,63,o),
(260,63,cs),
(200,63,l),
(200,677,l),
(260,677,ls),
(273,677,o),
(280,688,o),
(280,709,cs),
(280,730,o),
(273,740,o),
(260,740,cs),
(60,740,ls),
(47,740,o),
(40,730,o),
(40,709,cs),
(40,688,o),
(47,677,o),
(60,677,cs),
(120,677,l),
(120,63,l),
(60,63,ls),
(47,63,o),
(40,53,o),
(40,32,cs),
(40,11,o),
(47,0,o),
(60,0,cs),
(140,0,l),
(140,-4,l),
(59,-36,o),
(42,-54,o),
(42,-108,cs),
(42,-130,ls),
(42,-184,o),
(90,-222,o),
(159,-222,cs,{
name = hr00;
})
);
}
);
width = 320;
}
);
unicode = 302;
},
{
glyphname = J;
layers = (
{
layerId = master01;
shapes = (
{
closed = 1;
nodes = (
(313,82,o),
(274,55,o),
(201,55,cs),
(129,55,o),
(90,82,o),
(90,133,cs),
(90,265,ls),
(90,280,o),
(76,288,o),
(50,288,cs),
(24,288,o),
(10,280,o),
(10,265,cs),
(10,143,ls),
(10,44,o),
(81,-15,o),
(201,-15,cs),
(321,-15,o),
(393,44,o),
(393,143,cs),
(393,722,ls),
(393,737,o),
(379,745,o),
(353,745,cs),
(327,745,o),
(313,737,o),
(313,722,cs),
(313,133,ls,{
name = hr00;
})
);
}
);
width = 503;
}
);
unicode = 74;
},
{
glyphname = K;
layers = (
{
layerId = master01;
shapes = (
{
closed = 1;
nodes = (
(539,-5,o),
(553,1,o),
(553,12,cs),
(553,15,o),
(549,29,o),
(547,37,cs),
(474,304,ls),
(462,346,o),
(448,371,o),
(420,384,c),
(441,399,o),
(452,421,o),
(461,454,cs),
(525,695,ls),
(529,709,o),
(533,725,o),
(533,727,cs),
(533,739,o),
(520,745,o),
(495,745,cs),
(470,745,o),
(460,739,o),
(456,722,cs),
(384,454,ls),
(372,411,o),
(360,401,o),
(293,400,cs),
(244,400,ls),
(231,400,o),
(224,388,o),
(224,365,cs),
(224,342,o),
(231,330,o),
(244,330,cs),
(310,330,ls),
(381,330,o),
(392,324,o),
(405,276,cs),
(476,18,ls),
(481,1,o),
(491,-5,o),
(515,-5,cs,{
name = hr00;
})
);
},
{
closed = 1;
nodes = (
(176,-5,o),
(190,3,o),
(190,18,cs),
(190,722,ls),
(190,737,o),
(176,745,o),
(150,745,cs),
(124,745,o),
(110,737,o),
(110,722,cs),
(110,18,ls),
(110,3,o),
(124,-5,o),
(150,-5,cs)
);
}
);
width = 614;
}
);
unicode = 75;
},
{
glyphname = L;
layers = (
{
layerId = master01;
shapes = (
{
closed = 1;
nodes = (
(211,70,o),
(190,99,o),
(190,176,cs),
(190,722,ls),
(190,737,o),
(176,745,o),
(150,745,cs),
(124,745,o),
(110,737,o),
(110,722,cs),
(110,176,ls),
(110,50,o),
(155,0,o),
(268,0,cs),
(430,0,ls),
(443,0,o),
(450,12,o),
(450,35,cs),
(450,58,o),
(443,70,o),
(430,70,cs),
(268,70,l,{
name = hr00;
})
);
}
);
width = 460;
}
);
unicode = 76;
},
{
glyphname = M;
layers = (
{
layerId = master01;
shapes = (
{
closed = 1;
nodes = (
(664,3,o),
(678,-5,o),
(704,-5,cs),
(730,-5,o),
(744,3,o),
(744,18,cs),
(744,665,ls),
(744,726,o),
(733,740,o),
(684,740,cs),
(662,740,ls),
(566,740,o),
(548,727,o),
(528,644,cs),
(427,229,l),
(326,644,ls),
(306,727,o),
(288,740,o),
(192,740,cs),
(170,740,ls),
(122,740,o),
(110,726,o),
(110,668,cs),
(110,18,ls),
(110,3,o),
(124,-5,o),
(150,-5,cs),
(176,-5,o),
(190,3,o),
(190,18,cs),
(190,670,l),
(241,670,o),
(245,666,o),
(257,616,cs),
(388,97,ls),
(392,81,o),
(403,74,o),
(427,74,cs),
(451,74,o),
(462,81,o),
(466,97,cs),
(597,616,ls),
(609,665,o),
(613,670,o),
(664,670,c),
(664,18,ls,{
name = hr00;
})
);
}
);
width = 854;
}
);
unicode = 77;
},
{
glyphname = N;
layers = (
{
layerId = master01;
shapes = (
{
closed = 1;
nodes = (
(408,8,o),
(426,-5,o),
(521,-5,cs),
(543,-5,ls),
(592,-5,o),
(603,9,o),
(603,70,cs),
(603,717,ls),
(603,732,o),
(589,740,o),
(563,740,cs),
(537,740,o),
(523,732,o),
(523,717,cs),
(523,65,l),
(472,65,o),
(468,70,o),
(456,119,cs),
(326,644,ls),
(305,727,o),
(287,740,o),
(192,740,cs),
(170,740,ls),
(122,740,o),
(110,726,o),
(110,668,cs),
(110,18,ls),
(110,3,o),
(124,-5,o),
(150,-5,cs),
(176,-5,o),
(190,3,o),
(190,18,cs),
(190,670,l),
(241,670,o),
(245,666,o),
(257,616,cs),
(387,91,ls,{
name = hr00;
})
);
}
);
width = 713;
}
);
unicode = 78;
},
{
glyphname = Eng;
layers = (
{
layerId = master01;
shapes = (
{
closed = 1;
nodes = (
(397,-250,ls),
(533,-250,o),
(603,-197,o),
(603,-92,cs),
(603,717,ls),
(603,732,o),
(589,740,o),
(563,740,cs),
(537,740,o),
(523,732,o),
(523,717,cs),
(523,65,l),
(473,65,o),
(468,69,o),
(456,119,cs),
(326,644,ls),
(305,727,o),
(287,740,o),
(192,740,cs),
(170,740,ls),
(121,740,o),
(110,726,o),
(110,665,cs),
(110,18,ls),
(110,3,o),
(124,-5,o),
(150,-5,cs),
(176,-5,o),
(190,3,o),
(190,18,cs),
(190,670,l),
(241,670,o),
(245,666,o),
(257,616,cs),
(387,91,ls),
(408,8,o),
(426,-5,o),
(523,-5,c),
(523,-102,ls),
(523,-155,o),
(482,-180,o),
(397,-180,cs),
(362,-180,ls),
(349,-180,o),
(342,-192,o),
(342,-215,cs),
(342,-238,o),
(349,-250,o),
(362,-250,c,{
name = hr00;
})
);
}
);
width = 713;
}
);
unicode = 330;
},
{
glyphname = O;
layers = (
{
layerId = master01;
shapes = (
{
closed = 1;
nodes = (
(563,701,o),
(484,755,o),
(335,755,cs),
(183,755,o),
(100,699,o),
(100,597,cs),
(100,143,ls),
(100,39,o),
(179,-15,o),
(328,-15,cs),
(480,-15,o),
(563,41,o),
(563,143,cs),
(563,597,ls,{
name = hr00;
})
);
},
{
closed = 1;
nodes = (
(180,658,o),
(234,685,o),
(335,685,cs),
(433,685,o),
(483,659,o),
(483,607,cs),
(483,133,ls),
(483,82,o),
(429,55,o),
(328,55,cs),
(230,55,o),
(180,81,o),
(180,133,cs),
(180,607,ls)
);
}
);
width = 663;
}
);
unicode = 79;
},
{
glyphname = OE;
layers = (
{
layerId = master01;
shapes = (
{
closed = 1;
nodes = (
(629,755,o),
(563,739,o),
(523,700,c),
(482,739,o),
(415,755,o),
(335,755,cs),
(205,755,o),
(100,714,o),
(100,597,cs),
(100,143,ls),
(100,26,o),
(198,-15,o),
(328,-15,cs),
(408,-15,o),
(479,0,o),
(522,40,c),
(562,0,o),
(630,-15,o),
(706,-15,cs),
(829,-15,o),
(926,26,o),
(926,143,cs),
(926,205,ls),
(926,222,o),
(909,228,o),
(886,228,cs),
(864,228,o),
(846,222,o),
(846,205,cs),
(846,133,ls),
(846,75,o),
(788,55,o),
(708,55,cs),
(627,55,o),
(563,75,o),
(563,133,cs),
(563,258,ls),
(563,316,o),
(602,346,o),
(671,346,cs),
(756,346,ls),
(771,346,o),
(776,362,o),
(776,381,cs),
(776,400,o),
(771,416,o),
(756,416,cs),
(671,416,ls),
(602,416,o),
(563,446,o),
(563,504,cs),
(563,607,ls),
(563,665,o),
(624,685,o),
(700,685,cs),
(772,685,o),
(824,665,o),
(824,607,cs,{
name = hr01;
}),
(824,582,ls),
(824,565,o),
(842,559,o),
(864,559,cs),
(887,559,o),
(904,565,o),
(904,582,cs),
(904,597,ls),
(904,714,o),
(813,755,o),
(705,755,cs)
);
},
{
closed = 1;
nodes = (
(483,75,o),
(414,55,o),
(328,55,cs),
(242,55,o),
(180,75,o),
(180,133,cs),
(180,607,ls),
(180,665,o),
(249,685,o),
(335,685,cs),
(421,685,o),
(483,665,o),
(483,607,cs),
(483,504,ls),
(483,429,o),
(514,395,o),
(566,381,c),
(514,366,o),
(483,333,o),
(483,258,cs),
(483,133,l)
);
}
);
width = 986;
}
);
unicode = 338;
},
{
glyphname = P;
layers = (
{
layerId = master01;
shapes = (
{
closed = 1;
nodes = (
(227,350,o),
(220,338,o),
(220,315,cs),
(220,292,o),
(227,280,o),
(240,280,cs),
(327,280,ls),
(467,280,o),
(543,336,o),
(543,438,cs),
(543,597,ls),
(543,699,o),
(466,755,o),
(326,755,cs),
(186,755,o),
(110,699,o),
(110,597,cs),
(110,18,ls),
(110,3,o),
(124,-5,o),
(150,-5,cs),
(176,-5,o),
(190,3,o),
(190,18,cs),
(190,607,ls),
(190,658,o),
(237,685,o),
(326,685,cs),
(415,685,o),
(463,658,o),
(463,607,cs),
(463,428,ls),
(463,377,o),
(416,350,o),
(327,350,cs),
(240,350,ls,{
name = hr00;
})
);
}
);
width = 613;
}
);
unicode = 80;
},
{
glyphname = Thorn;
layers = (
{
layerId = master01;
shapes = (
{
closed = 1;
nodes = (
(225,210,o),
(220,195,o),
(220,175,cs),
(220,156,o),
(225,140,o),
(240,140,cs),
(327,140,ls),
(447,140,o),
(543,181,o),
(543,298,cs),
(543,457,ls),
(543,574,o),
(446,615,o),
(326,615,cs),
(264,615,o),
(219,604,o),
(190,577,c),
(190,732,ls),
(190,749,o),
(173,755,o),
(150,755,cs),
(128,755,o),
(110,749,o),
(110,732,cs),
(110,18,ls),
(110,1,o),
(128,-5,o),
(150,-5,cs),
(173,-5,o),
(190,1,o),
(190,18,cs),
(190,471,l),
(193,526,o),
(252,545,o),
(326,545,cs),
(402,545,o),
(463,525,o),
(463,467,cs),
(463,288,ls),
(463,230,o),
(403,210,o),
(327,210,cs),
(240,210,ls,{
name = hr00;
})
);
}
);
width = 613;
}
);
unicode = 222;
},
{
glyphname = Q;
layers = (
{
layerId = master01;
shapes = (
{
closed = 1;
nodes = (
(230,55,o),
(180,81,o),
(180,133,cs),
(180,607,ls),
(180,658,o),
(234,685,o),
(335,685,cs),
(433,685,o),
(483,659,o),
(483,607,cs),
(483,133,ls),
(483,109,o),
(472,90,o),
(450,78,c),
(409,169,ls),
(401,186,o),
(392,191,o),
(372,191,cs),
(346,191,o),
(329,183,o),
(331,172,c),
(451,-95,l),
(454,-110,o),
(468,-117,o),
(493,-117,cs),
(517,-117,o),
(530,-110,o),
(529,-98,c),
(479,12,l),
(534,37,o),
(563,82,o),
(563,143,cs),
(563,597,ls),
(563,701,o),
(484,755,o),
(335,755,cs),
(183,755,o),
(100,699,o),
(100,597,cs),
(100,143,ls),
(100,39,o),
(179,-15,o),
(328,-15,cs),
(341,-15,o),
(348,-3,o),
(348,20,cs),
(348,43,o),
(341,55,o),
(328,55,cs,{
name = hr00;
})
);
}
);
width = 663;
}
);
unicode = 81;
},
{
glyphname = R;
layers = (
{
layerId = master01;
shapes = (
{
closed = 1;
nodes = (
(227,370,o),
(220,358,o),
(220,335,cs),
(220,312,o),
(227,300,o),
(240,300,cs),
(328,300,ls),
(399,300,o),
(410,294,o),
(423,246,cs),
(486,18,l),
(490,1,o),
(501,-5,o),
(525,-5,cs),
(551,-5,o),
(564,2,o),
(563,15,c),
(492,274,ls),
(483,306,o),
(473,328,o),
(455,342,c),
(518,359,o),
(543,396,o),
(543,458,cs),
(543,597,ls),
(543,699,o),
(466,755,o),
(326,755,cs),
(186,755,o),
(110,699,o),
(110,597,cs),
(110,18,ls),
(110,3,o),
(124,-5,o),
(150,-5,cs),
(176,-5,o),
(190,3,o),
(190,18,cs),
(190,607,ls),
(190,658,o),
(237,685,o),
(326,685,cs),
(415,685,o),
(463,658,o),
(463,607,cs),
(463,448,ls),
(463,397,o),
(416,370,o),
(327,370,cs),
(240,370,ls,{
name = hr00;
})
);
}
);
width = 644;
}
);
unicode = 82;
},
{
glyphname = S;
layers = (
{
layerId = master01;
shapes = (
{
closed = 1;
nodes = (
(452,-15,o),
(537,43,o),
(537,143,cs),
(537,238,ls),
(537,324,o),
(501,360,o),
(382,387,cs),
(252,416,ls),
(190,429,o),
(174,451,o),
(174,522,cs),
(174,607,ls),
(174,658,o),
(222,685,o),
(311,685,cs),
(400,685,o),
(447,658,o),
(447,607,cs),
(447,553,ls),
(447,538,o),
(461,530,o),
(487,530,cs),
(513,530,o),
(527,538,o),
(527,553,cs),
(527,597,ls),
(527,699,o),
(451,755,o),
(311,755,cs),
(171,755,o),
(94,699,o),
(94,597,cs),
(94,520,ls),
(94,409,o),
(127,373,o),
(252,344,cs),
(341,324,ls),
(432,303,o),
(457,286,o),
(457,246,cs),
(457,133,ls),
(457,84,o),
(400,55,o),
(306,55,cs),
(214,55,o),
(160,84,o),
(160,133,cs,{
name = hr01;
}),
(160,187,ls),
(160,202,o),
(146,210,o),
(120,210,cs),
(94,210,o),
(80,202,o),
(80,187,cs),
(80,143,ls),
(80,43,o),
(162,-15,o),
(306,-15,c)
);
}
);
width = 617;
}
);
unicode = 83;
},
{
glyphname = T;
layers = (
{
layerId = master01;
shapes = (
{
closed = 1;
nodes = (
(27,740,o),
(20,728,o),
(20,705,cs),
(20,682,o),
(27,670,o),
(40,670,cs),
(210,670,l),
(210,18,ls),
(210,3,o),
(224,-5,o),
(250,-5,cs),
(276,-5,o),
(290,3,o),
(290,18,cs),
(290,670,l),
(460,670,ls),
(473,670,o),
(480,682,o),
(480,705,cs),
(480,728,o),
(473,740,o),
(460,740,cs),
(40,740,ls,{
name = hr00;
})
);
}
);
width = 500;
}
);
unicode = 84;
},
{
glyphname = U;
layers = (
{
layerId = master01;
shapes = (
{
closed = 1;
nodes = (
(189,737,o),
(175,745,o),
(149,745,cs),
(124,745,o),
(110,737,o),
(110,722,cs),
(110,143,ls),
(110,39,o),
(189,-15,o),
(338,-15,cs),
(490,-15,o),
(573,41,o),
(573,143,cs),
(573,722,ls),
(573,737,o),
(559,745,o),
(533,745,cs),
(507,745,o),
(493,737,o),
(493,722,cs),
(493,133,ls),
(493,82,o),
(439,55,o),
(338,55,cs),
(240,55,o),
(190,81,o),
(190,133,cs),
(189,722,l,{
name = hr00;
})
);
}
);
width = 683;
}
);
unicode = 85;
},
{
glyphname = Uogonek;
layers = (
{
layerId = master01;
shapes = (
{
closed = 1;
nodes = (
(421,-222,o),
(467,-185,o),
(467,-130,cs),
(467,-117,ls),
(467,-104,o),
(455,-96,o),
(434,-96,cs),
(412,-96,o),
(400,-103,o),
(400,-117,cs),
(400,-135,ls),
(400,-154,o),
(383,-164,o),
(352,-164,cs),
(322,-164,o),
(303,-152,o),
(303,-134,cs),
(303,-109,ls),
(303,-74,o),
(316,-54,o),
(349,-41,cs),
(447,-2,ls),
(526,29,o),
(573,69,o),
(573,143,cs),
(573,722,ls),
(573,737,o),
(559,745,o),
(533,745,cs),
(507,745,o),
(493,737,o),
(493,722,cs),
(493,133,ls),
(493,82,o),
(439,55,o),
(338,55,cs),
(240,55,o),
(190,81,o),
(190,133,cs),
(190,722,ls),
(189,737,o),
(175,745,o),
(149,745,cs),
(124,745,o),
(110,737,o),
(110,722,cs),
(110,143,ls),
(110,46,o),
(178,-7,o),
(309,-14,c),
(249,-40,o),
(236,-60,o),
(236,-108,cs),
(236,-130,ls),
(236,-184,o),
(284,-222,o),
(353,-222,cs,{
name = hr00;
})
);
}
);
width = 683;
}
);
unicode = 370;
},
{
glyphname = V;
layers = (
{
layerId = master01;
shapes = (
{
closed = 1;
nodes = (
(417,-15,o),
(456,18,o),
(475,122,cs),
(585,725,ls),
(586,738,o),
(573,745,o),
(547,745,cs),
(521,745,o),
(508,737,o),
(505,722,cs),
(397,133,ls),
(386,72,o),
(369,55,o),
(318,55,cs),
(267,55,o),
(250,73,o),
(239,133,cs),
(131,722,ls),
(128,738,o),
(114,745,o),
(89,745,cs),
(63,745,o),
(49,738,o),
(51,725,cs),
(161,122,ls),
(180,19,o),
(219,-15,o),
(318,-15,cs,{
name = hr00;
})
);
}
);
width = 636;
}
);
unicode = 86;
},
{
glyphname = W;
layers = (
{
layerId = master01;
shapes = (
{
closed = 1;
nodes = (
(530,647,o),
(517,654,o),
(492,654,cs),
(467,654,o),
(453,646,o),
(452,631,cs),
(390,133,ls),
(382,76,o),
(360,55,o),
(307,55,cs),
(254,55,o),
(236,74,o),
(228,133,cs),
(150,722,ls),
(147,738,o),
(133,745,o),
(108,745,cs),
(84,745,o),
(70,738,o),
(70,727,cs),
(71,728,o),
(71,726,o),
(70,725,c),
(150,122,ls),
(162,22,o),
(204,-15,o),
(307,-15,cs),
(410,-15,o),
(454,23,o),
(464,122,cs),
(487,368,l),
(497,368,l),
(520,122,ls),
(528,24,o),
(572,-15,o),
(677,-15,cs),
(776,-15,o),
(814,18,o),
(834,122,cs),
(914,725,l),
(915,726,o),
(915,728,o),
(914,727,cs),
(914,738,o),
(900,745,o),
(876,745,cs),
(850,745,o),
(837,737,o),
(834,722,cs),
(756,133,ls),
(744,72,o),
(727,55,o),
(677,55,cs),
(623,55,o),
(601,76,o),
(594,133,cs),
(532,631,ls,{
name = hr00;
})
);
}
);
width = 984;
}
);
unicode = 87;
},
{
glyphname = X;
layers = (
{
layerId = master01;
shapes = (
{
closed = 1;
nodes = (
(59,2,o),
(73,-5,o),
(99,-5,cs),
(122,-5,o),
(133,1,o),
(137,18,c),
(212,267,ls),
(229,324,o),
(254,345,o),
(305,345,cs),
(356,345,o),
(380,325,o),
(398,267,cs),
(473,18,l),
(477,1,o),
(487,-5,o),
(511,-5,cs),
(537,-5,o),
(550,2,o),
(549,15,c),
(472,278,ls),
(456,333,o),
(438,364,o),
(403,380,c),
(436,396,o),
(454,427,o),
(472,482,cs),
(549,725,l),
(550,738,o),
(537,745,o),
(511,745,cs),
(487,745,o),
(477,739,o),
(473,722,c),
(398,493,ls),
(379,435,o),
(356,415,o),
(305,415,cs),
(254,415,o),
(231,435,o),
(212,493,cs),
(137,722,l),
(133,739,o),
(122,745,o),
(99,745,cs),
(73,745,o),
(59,738,o),
(61,725,c),
(138,482,ls),
(155,427,o),
(173,396,o),
(206,380,c),
(171,364,o),
(154,333,o),
(138,278,cs),
(61,15,l,{
name = hr00;
})
);
}
);
width = 610;
}
);
unicode = 88;
},
{
glyphname = Y;
layers = (
{
layerId = master01;
shapes = (
{
closed = 1;
nodes = (
(535,738,o),
(522,745,o),
(496,745,cs),
(471,745,o),
(457,738,o),
(454,722,c),
(369,393,ls),
(354,333,o),
(335,315,o),
(290,315,cs),
(244,315,o),
(225,334,o),
(211,393,c),
(126,722,ls),
(122,738,o),
(109,745,o),
(84,745,cs),
(58,745,o),
(44,738,o),
(46,725,c),
(133,382,ls),
(155,295,o),
(186,258,o),
(250,248,c),
(250,18,ls),
(250,3,o),
(264,-5,o),
(290,-5,cs),
(316,-5,o),
(330,3,o),
(330,18,cs),
(330,247,l),
(393,257,o),
(424,294,o),
(447,382,cs),
(534,725,l,{
name = hr00;
})
);
}
);
width = 580;
}
);
unicode = 89;
},
{
glyphname = Z;
layers = (
{
layerId = master01;
shapes = (
{
closed = 1;
nodes = (
(524,559,o),
(535,577,o),
(535,628,cs),
(535,705,ls),
(535,728,o),
(528,740,o),
(515,740,cs),
(119,740,ls),
(106,740,o),
(99,728,o),
(99,705,cs),
(99,682,o),
(106,670,o),
(119,670,cs),
(455,670,l),
(455,630,ls),
(455,600,o),
(446,582,o),
(411,543,cs),
(156,256,ls),
(70,159,o),
(60,142,o),
(60,92,cs),
(60,35,ls),
(60,12,o),
(67,0,o),
(80,0,cs),
(516,0,ls),
(529,0,o),
(536,12,o),
(536,35,cs),
(536,58,o),
(529,70,o),
(516,70,cs),
(140,70,l),
(140,90,ls),
(140,120,o),
(148,136,o),
(184,177,cs),
(439,464,ls,{
name = hr00;
})
);
}
);
width = 595;
}
);
unicode = 90;
},
{
glyphname = C.001;
layers = (
{
layerId = master01;
shapes = (
{
closed = 1;
nodes = (
(164,706,o),
(205,717,o),
(256,717,cs),
(307,717,o),
(343,706,o),
(343,675,cs),
(343,628,ls),
(343,613,o),
(358,607,o),
(376,607,cs),
(394,607,o),
(408,613,o),
(408,628,cs),
(408,668,ls),
(408,747,o),
(342,776,o),
(256,776,cs),
(169,776,o),
(99,747,o),
(99,668,cs),
(99,378,ls),
(99,299,o),
(169,270,o),
(256,270,cs),
(342,270,o),
(408,299,o),
(408,378,cs),
(408,417,ls),
(408,433,o),
(394,439,o),
(376,439,cs),
(358,439,o),
(343,433,o),
(343,417,cs),
(343,371,ls),
(343,340,o),
(307,329,o),
(256,329,cs),
(205,329,o),
(164,340,o),
(164,371,cs),
(164,675,ls,{
name = hr00;
})
);
}
);
width = 498;
}
);
},
{
glyphname = R.001;
layers = (
{
layerId = master01;
shapes = (
{
closed = 1;
nodes = (
(205,529,o),
(201,518,o),
(201,501,cs),
(201,484,o),
(205,471,o),
(220,471,cs),
(251,471,ls),
(293,471,o),
(298,467,o),
(305,442,cs),
(345,297,ls),
(349,282,o),
(358,277,o),
(377,277,cs),
(393,277,o),
(408,281,o),
(408,297,cs),
(408,298,o),
(408,299,o),
(363,464,cs),
(359,479,o),
(354,492,o),
(346,501,c),
(377,512,o),
(395,535,o),
(395,579,cs),
(395,668,ls),
(395,747,o),
(331,776,o),
(250,776,cs),
(170,776,o),
(105,747,o),
(105,668,cs),
(105,299,ls),
(105,283,o),
(120,277,o),
(137,277,cs),
(156,277,o),
(170,283,o),
(170,299,cs),
(170,675,ls),
(170,706,o),
(205,717,o),
(250,717,cs),
(294,717,o),
(331,706,o),
(331,675,cs),
(331,572,ls),
(331,540,o),
(296,529,o),
(251,529,cs),
(220,529,ls,{
name = hr00;
})
);
}
);
width = 499;
}
);
},
{
glyphname = a;
layers = (
{
layerId = master01;
shapes = (
{
closed = 1;
nodes = (
(376,0,o),
(383,12,o),
(383,35,cs),
(383,58,o),
(376,70,o),
(363,70,cs),
(246,70,ls),
(180,70,o),
(160,90,o),
(160,158,cs),
(160,166,ls),
(160,229,o),
(176,247,o),
(246,254,cs),
(413,271,l),
(413,137,ls),
(413,58,o),
(440,-10,o),
(472,-10,cs,{
name = hr01;
}),
(491,-10,o),
(523,14,o),
(523,29,cs),
(523,41,o),
(493,63,o),
(493,147,cs),
(493,442,ls),
(493,544,o),
(417,600,o),
(277,600,cs),
(140,600,ls),
(127,600,o),
(120,588,o),
(120,565,cs),
(120,542,o),
(127,530,o),
(140,530,cs),
(277,530,ls),
(366,530,o),
(413,503,o),
(413,452,cs),
(413,341,l),
(240,324,ls),
(116,311,o),
(80,276,o),
(80,166,cs),
(80,158,ls),
(80,44,o),
(127,0,o),
(246,0,cs,{
name = hr02;
}),
(363,0,ls)
);
}
);
width = 603;
}
);
unicode = 97;
},
{
glyphname = aogonek;
layers = (
{
layerId = master01;
shapes = (
{
closed = 1;
nodes = (
(471,-222,o),
(517,-185,o),
(517,-130,cs),
(517,-117,ls),
(517,-104,o),
(505,-96,o),
(484,-96,cs),
(462,-96,o),
(450,-103,o),
(450,-117,cs),
(450,-135,ls),
(450,-154,o),
(433,-164,o),
(402,-164,cs),
(372,-164,o),
(353,-152,o),
(353,-134,cs),
(353,-109,ls),
(353,-74,o),
(366,-54,o),
(399,-41,cs),
(479,-9,ls),
(497,-2,o),
(523,15,o),
(523,29,cs),
(523,41,o),
(493,63,o),
(493,147,cs,{
name = hr01;
}),
(493,442,ls),
(493,544,o),
(417,600,o),
(277,600,cs),
(140,600,ls),
(127,600,o),
(120,588,o),
(120,565,cs),
(120,542,o),
(127,530,o),
(140,530,cs),
(277,530,ls),
(366,530,o),
(413,503,o),
(413,452,cs),
(413,341,l),
(240,324,ls),
(116,311,o),
(80,276,o),
(80,166,cs),
(80,158,ls),
(80,44,o),
(127,0,o),
(246,0,cs),
(313,0,ls),
(326,0,o),
(333,12,o),
(333,35,cs),
(333,58,o),
(326,70,o),
(313,70,cs),
(246,70,ls),
(180,70,o),
(160,90,o),
(160,158,cs),
(160,166,ls),
(160,229,o),
(176,247,o),
(246,254,cs),
(413,271,l),
(413,137,ls),
(413,88,o),
(423,44,o),
(438,17,c),
(384,-4,ls),
(303,-36,o),
(286,-54,o),
(286,-108,cs),
(286,-130,ls),
(286,-184,o),
(334,-222,o),
(403,-222,cs)
);
}
);
width = 603;
}
);
unicode = 261;
},
{
glyphname = ae;
layers = (
{
layerId = master01;
shapes = (
{
closed = 1;
nodes = (
(378,0,o),
(383,15,o),
(383,35,cs),
(383,54,o),
(378,70,o),
(363,70,cs),
(246,70,ls),
(170,70,o),
(160,100,o),
(160,158,cs),
(160,166,ls),
(160,224,o),
(170,246,o),
(246,254,cs),
(413,271,l),
(413,149,ls),
(413,32,o),
(513,-9,o),
(631,-9,cs,{
name = hr01;
}),
(749,-9,o),
(851,22,o),
(851,139,cs),
(851,167,ls),
(851,184,o),
(833,190,o),
(811,190,cs),
(788,190,o),
(771,184,o),
(771,167,cs),
(771,129,ls),
(771,71,o),
(699,61,o),
(623,61,cs),
(547,61,o),
(493,81,o),
(493,139,cs),
(493,277,l),
(688,296,ls),
(807,308,o),
(851,337,o),
(851,454,cs),
(851,465,ls),
(851,582,o),
(773,621,o),
(646,621,cs),
(560,621,o),
(484,602,o),
(444,554,c),
(404,587,o),
(344,600,o),
(277,600,cs,{
name = hr02;
}),
(140,600,ls),
(125,600,o),
(120,585,o),
(120,565,cs),
(120,546,o),
(125,530,o),
(140,530,cs),
(277,530,ls),
(351,530,o),
(413,511,o),
(413,456,cs),
(413,341,l),
(240,324,ls),
(124,312,o),
(80,283,o),
(80,166,cs),
(80,158,ls),
(80,41,o),
(130,0,o),
(246,0,cs),
(363,0,ls)
);
},
{
closed = 1;
nodes = (
(493,531,o),
(556,551,o),
(631,551,cs,{
name = hr03;
}),
(709,551,o),
(771,531,o),
(771,473,cs),
(771,454,ls),
(771,396,o),
(761,374,o),
(681,366,cs),
(493,347,l),
(493,473,ls)
);
}
);
width = 951;
}
);
unicode = 230;
},
{
glyphname = b;
layers = (
{
layerId = master01;
shapes = (
{
closed = 1;
nodes = (
(416,530,o),
(463,503,o),
(463,452,cs),
(463,133,ls),
(463,82,o),
(415,55,o),
(326,55,cs),
(237,55,o),
(190,82,o),
(190,133,cs),
(190,777,ls),
(190,792,o),
(176,800,o),
(150,800,cs),
(124,800,o),
(110,792,o),
(110,777,cs),
(110,143,ls),
(110,41,o),
(186,-15,o),
(326,-15,cs),
(466,-15,o),
(543,41,o),
(543,143,cs),
(543,442,ls),
(543,544,o),
(467,600,o),
(327,600,cs),
(240,600,ls),
(227,600,o),
(220,588,o),
(220,565,cs),
(220,542,o),
(227,530,o),
(240,530,cs),
(327,530,ls,{
name = hr00;
})
);
}
);
width = 643;
}
);
unicode = 98;
},
{
glyphname = c;
layers = (
{
layerId = master01;
shapes = (
{
closed = 1;
nodes = (
(180,518,o),
(225,545,o),
(308,545,cs),
(392,545,o),
(436,518,o),
(436,467,cs),
(436,425,ls),
(436,410,o),
(450,402,o),
(476,402,cs),
(502,402,o),
(516,410,o),
(516,425,cs),
(516,457,ls),
(516,560,o),
(443,615,o),
(308,615,cs),
(173,615,o),
(100,559,o),
(100,457,cs),
(100,143,ls),
(100,41,o),
(173,-15,o),
(308,-15,cs),
(443,-15,o),
(516,40,o),
(516,143,cs),
(516,175,ls),
(516,190,o),
(502,198,o),
(476,198,cs),
(450,198,o),
(436,190,o),
(436,175,cs),
(436,133,ls),
(436,82,o),
(392,55,o),
(308,55,cs),
(225,55,o),
(180,82,o),
(180,133,cs),
(180,467,ls,{
name = hr00;
})
);
}
);
width = 596;
}
);
unicode = 99;
},
{
glyphname = d;
layers = (
{
layerId = master01;
shapes = (
{
closed = 1;
nodes = (
(533,792,o),
(519,800,o),
(493,800,cs),
(467,800,o),
(453,792,o),
(453,777,cs),
(453,133,ls),
(453,82,o),
(406,55,o),
(317,55,cs),
(228,55,o),
(180,82,o),
(180,133,cs),
(180,452,ls),
(180,503,o),
(227,530,o),
(316,530,cs),
(403,530,ls),
(416,530,o),
(423,542,o),
(423,565,cs),
(423,588,o),
(416,600,o),
(403,600,cs),
(316,600,ls),
(176,600,o),
(100,544,o),
(100,442,cs),
(100,143,ls),
(100,41,o),
(177,-15,o),
(317,-15,cs),
(457,-15,o),
(533,41,o),
(533,143,cs),
(533,777,ls,{
name = hr00;
})
);
}
);
width = 643;
}
);
unicode = 100;
},
{
glyphname = eth;
layers = (
{
layerId = master01;
shapes = (
{
closed = 1;
nodes = (
(533,573,o),
(525,603,o),
(518,630,cs),
(478,779,ls),
(474,794,o),
(461,800,o),
(440,800,cs),
(426,800,o),
(406,797,o),
(406,782,c),
(452,611,ls),
(458,588,o),
(462,570,o),
(462,547,cs),
(462,496,l),
(434,531,o),
(386,545,o),
(316,545,cs),
(196,545,o),
(100,504,o),
(100,387,cs),
(100,143,ls),
(100,26,o),
(197,-15,o),
(317,-15,cs),
(437,-15,o),
(533,26,o),
(533,143,cs),
(533,546,ls,{
name = hr00;
})
);
},
{
closed = 1;
nodes = (
(453,75,o),
(393,55,o),
(317,55,cs),
(241,55,o),
(180,75,o),
(180,133,cs),
(180,397,ls),
(180,455,o),
(240,475,o),
(316,475,cs),
(392,475,o),
(453,455,o),
(453,397,cs),
(453,133,ls)
);
},
{
pos = (215,299);
ref = eslash;
}
);
width = 654;
}
);
unicode = 240;
},
{
glyphname = e;
layers = (
{
layerId = master01;
shapes = (
{
closed = 1;
nodes = (
(538,566,o),
(473,615,o),
(333,615,cs),
(183,615,o),
(100,559,o),
(100,457,cs),
(100,143,ls),
(100,42,o),
(178,-15,o),
(318,-15,cs),
(464,-15,o),
(538,35,o),
(538,133,cs),
(538,161,ls),
(538,176,o),
(524,184,o),
(498,184,cs),
(472,184,o),
(458,176,o),
(458,161,cs),
(458,123,ls),
(458,77,o),
(411,55,o),
(310,55,cs),
(224,55,o),
(180,81,o),
(180,133,cs),
(180,252,l),
(375,271,ls),
(502,283,o),
(538,319,o),
(538,429,cs),
(538,459,ls,{
name = hr00;
})
);
},
{
closed = 1;
nodes = (
(180,517,o),
(229,545,o),
(318,545,cs),
(409,545,o),
(458,518,o),
(458,467,cs),
(458,429,ls),
(458,365,o),
(441,348,o),
(368,341,cs),
(180,322,l),
(180,467,ls)
);
}
);
width = 638;
}
);
unicode = 101;
},
{
glyphname = eogonek;
layers = (
{
layerId = master01;
shapes = (
{
closed = 1;
nodes = (
(400,-222,o),
(446,-185,o),
(446,-130,cs),
(446,-117,ls),
(446,-104,o),
(434,-96,o),
(413,-96,cs),
(391,-96,o),
(379,-103,o),
(379,-117,cs),
(379,-135,ls),
(379,-154,o),
(362,-164,o),
(331,-164,cs),
(301,-164,o),
(282,-152,o),
(282,-134,cs),
(282,-109,ls),
(282,-74,o),
(295,-54,o),
(328,-41,cs),
(427,-2,ls),
(498,26,o),
(538,63,o),
(538,133,cs),
(538,161,ls),
(538,176,o),
(524,184,o),
(498,184,cs),
(472,184,o),
(458,176,o),
(458,161,cs),
(458,123,ls),
(458,77,o),
(411,55,o),
(310,55,cs),
(224,55,o),
(180,81,o),
(180,133,cs),
(180,252,l),
(375,271,ls),
(502,283,o),
(538,319,o),
(538,429,cs),
(538,459,ls),
(538,566,o),
(473,615,o),
(333,615,cs),
(183,615,o),
(100,559,o),
(100,457,cs),
(100,143,ls),
(100,49,o),
(167,-6,o),
(288,-14,c),
(228,-40,o),
(215,-60,o),
(215,-108,cs),
(215,-130,ls),
(215,-184,o),
(263,-222,o),
(332,-222,cs,{
name = hr00;
})
);
},
{
closed = 1;
nodes = (
(180,517,o),
(229,545,o),
(318,545,cs),
(409,545,o),
(458,518,o),
(458,467,cs),
(458,429,ls),
(458,365,o),
(441,348,o),
(368,341,cs),
(180,322,l),
(180,467,ls)
);
}
);
width = 638;
}
);
unicode = 281;
},
{
glyphname = f;
layers = (
{
layerId = master01;
shapes = (
{
closed = 1;
nodes = (
(67,600,o),
(60,588,o),
(60,565,cs),
(60,542,o),
(67,530,o),
(80,530,cs),
(150,530,l),
(150,-93,ls),
(150,-177,o),
(120,-199,o),
(120,-211,cs),
(120,-226,o),
(152,-250,o),
(171,-250,cs),
(203,-250,o),
(230,-182,o),
(230,-103,cs),
(230,530,l),
(345,530,ls),
(358,530,o),
(365,542,o),
(365,565,cs),
(365,588,o),
(358,600,o),
(345,600,cs),
(230,600,l),
(230,667,ls),
(230,720,o),
(271,745,o),
(356,745,cs),
(391,745,ls),
(404,745,o),
(411,757,o),
(411,780,cs),
(411,803,o),
(404,815,o),
(391,815,cs),
(356,815,ls),
(220,815,o),
(150,762,o),
(150,657,cs),
(150,600,l),
(80,600,ls,{
name = hr00;
})
);
}
);
width = 385;
}
);
unicode = 102;
},
{
glyphname = g;
layers = (
{
layerId = master01;
shapes = (
{
closed = 1;
nodes = (
(533,477,o),
(524,507,o),
(506,531,c),
(571,536,o),
(614,554,o),
(614,579,cs),
(614,598,o),
(589,630,o),
(575,630,cs),
(563,630,o),
(541,600,o),
(457,600,cs),
(317,600,ls),
(177,600,o),
(100,544,o),
(100,442,cs),
(100,176,ls),
(100,50,o),
(145,0,o),
(258,0,cs),
(337,0,ls),
(418,0,o),
(453,-23,o),
(453,-78,cs),
(453,-102,ls),
(453,-157,o),
(418,-180,o),
(337,-180,cs),
(110,-180,ls),
(97,-180,o),
(90,-192,o),
(90,-215,cs),
(90,-238,o),
(97,-250,o),
(110,-250,cs),
(337,-250,ls),
(470,-250,o),
(533,-199,o),
(533,-92,cs),
(533,-88,ls),
(533,19,o),
(470,70,o),
(337,70,cs),
(258,70,ls),
(201,70,o),
(180,99,o),
(180,176,cs),
(180,452,ls),
(180,503,o),
(228,530,o),
(317,530,cs),
(410,530,o),
(453,500,o),
(453,452,cs),
(453,120,ls),
(453,105,o),
(467,97,o),
(493,97,cs),
(519,97,o),
(533,105,o),
(533,120,cs),
(533,442,ls,{
name = hr00;
})
);
}
);
width = 643;
}
);
unicode = 103;
},
{
glyphname = h;
layers = (
{
layerId = master01;
shapes = (
{
closed = 1;
nodes = (
(553,559,o),
(476,615,o),
(336,615,cs),
(281,615,o),
(235,600,o),
(200,574,c),
(200,777,ls),
(200,792,o),
(186,800,o),
(160,800,cs),
(134,800,o),
(120,792,o),
(120,777,cs),
(120,18,ls),
(120,3,o),
(134,-5,o),
(160,-5,cs),
(186,-5,o),
(200,3,o),
(200,18,cs),
(200,471,ls),
(200,519,o),
(249,545,o),
(336,545,cs),
(425,545,o),
(473,518,o),
(473,467,cs),
(473,18,ls),
(473,3,o),
(487,-5,o),
(513,-5,cs),
(539,-5,o),
(553,3,o),
(553,18,cs),
(553,457,ls,{
name = hr00;
})
);
}
);
width = 663;
}
);
unicode = 104;
},
{
glyphname = i;
layers = (
{
layerId = master01;
shapes = (
{
closed = 1;
nodes = (
(190,597,o),
(176,605,o),
(150,605,cs),
(124,605,o),
(110,597,o),
(110,582,cs),
(110,107,ls),
(110,50,o),
(140,-10,o),
(169,-10,cs),
(188,-10,o),
(220,14,o),
(220,29,cs),
(220,41,o),
(190,63,o),
(190,117,cs),
(190,582,l,{
name = hr00;
})
);
},
{
closed = 1;
nodes = (
(193,692,o),
(178,683,o),
(150,683,cs),
(121,683,o),
(106,691,o),
(106,708,cs),
(106,795,ls),
(106,811,o),
(121,820,o),
(149,820,cs),
(178,820,o),
(193,812,o),
(193,795,cs),
(193,708,ls)
);
}
);
width = 300;
}
);
unicode = 105;
},
{
glyphname = dotlessi;
layers = (
{
layerId = master01;
shapes = (
{
closed = 1;
nodes = (
(190,592,o),
(176,600,o),
(150,600,cs),
(124,600,o),
(110,592,o),
(110,577,cs),
(110,107,ls),
(110,50,o),
(140,-10,o),
(169,-10,cs),
(188,-10,o),
(220,14,o),
(220,29,cs),
(220,41,o),
(190,63,o),
(190,117,cs),
(190,577,l,{
name = hr00;
})
);
}
);
width = 300;
}
);
unicode = 305;
},
{
glyphname = iogonek;
layers = (
{
layerId = master01;
shapes = (
{
closed = 1;
nodes = (
(220,-222,o),
(266,-185,o),
(266,-130,cs),
(266,-117,ls),
(266,-104,o),
(254,-96,o),
(233,-96,cs),
(211,-96,o),
(199,-103,o),
(199,-117,cs),
(199,-135,ls),
(199,-154,o),
(182,-164,o),
(151,-164,cs),
(121,-164,o),
(102,-152,o),
(102,-134,cs),
(102,-109,ls),
(102,-74,o),
(115,-54,o),
(148,-41,cs),
(178,-29,ls),
(206,-18,o),
(220,-5,o),
(220,8,cs),
(220,20,o),
(190,42,o),
(190,96,cs),
(190,582,ls),
(190,597,o),
(176,605,o),
(150,605,cs),
(124,605,o),
(110,597,o),
(110,582,cs),
(110,86,ls),
(110,53,o),
(120,19,o),
(134,-3,c),
(52,-36,o),
(35,-54,o),
(35,-108,cs),
(35,-130,ls),
(35,-184,o),
(83,-222,o),
(152,-222,c,{
name = hr00;
})
);
},
{
closed = 1;
nodes = (
(193,692,o),
(178,683,o),
(150,683,cs),
(121,683,o),
(106,691,o),
(106,708,cs),
(106,795,ls),
(106,811,o),
(121,820,o),
(149,820,cs),
(178,820,o),
(193,812,o),
(193,795,cs),
(193,708,ls)
);
}
);
width = 300;
}
);
unicode = 303;
},
{
glyphname = j;
layers = (
{
layerId = master01;
shapes = (
{
closed = 1;
nodes = (
(192,692,o),
(177,683,o),
(149,683,cs),
(120,683,o),
(105,691,o),
(105,708,cs),
(105,795,ls),
(105,811,o),
(120,820,o),
(148,820,cs),
(177,820,o),
(192,812,o),
(192,795,cs),
(192,708,ls,{
name = hr00;
})
);
},
{
closed = 1;
nodes = (
(190,597,o),
(176,605,o),
(150,605,cs),
(124,605,o),
(110,597,o),
(110,582,cs),
(110,-102,ls),
(110,-155,o),
(69,-180,o),
(-16,-180,cs),
(-51,-180,ls),
(-64,-180,o),
(-71,-192,o),
(-71,-215,cs),
(-71,-238,o),
(-64,-250,o),
(-51,-250,cs),
(-16,-250,ls),
(120,-250,o),
(190,-197,o),
(190,-92,cs),
(190,582,ls)
);
}
);
width = 300;
}
);
unicode = 106;
},
{
glyphname = dotlessj;
layers = (
{
layerId = master01;
shapes = (
{
closed = 1;
nodes = (
(190,597,o),
(176,605,o),
(150,605,cs),
(124,605,o),
(110,597,o),
(110,582,cs),
(110,-102,ls),
(110,-155,o),
(69,-180,o),
(-16,-180,cs),
(-51,-180,ls),
(-64,-180,o),
(-71,-192,o),
(-71,-215,cs),
(-71,-238,o),
(-64,-250,o),
(-51,-250,cs),
(-16,-250,ls),
(120,-250,o),
(190,-197,o),
(190,-92,cs),
(190,582,ls,{
name = hr00;
})
);
}
);
width = 300;
}
);
unicode = 567;
},
{
glyphname = k;
layers = (
{
layerId = master01;
shapes = (
{
closed = 1;
nodes = (
(190,275,l),
(307,275,ls),
(378,275,o),
(388,269,o),
(402,221,cs),
(461,18,l),
(465,1,o),
(476,-5,o),
(500,-5,cs),
(526,-5,o),
(539,2,o),
(538,15,c),
(471,249,ls),
(458,295,o),
(442,319,o),
(406,332,c),
(418,342,o),
(425,354,o),
(431,371,cs),
(498,562,ls),
(505,581,o),
(506,584,o),
(506,587,cs),
(506,599,o),
(493,605,o),
(468,605,cs),
(445,605,o),
(435,599,o),
(429,582,cs),
(362,399,ls),
(344,350,o),
(334,345,o),
(267,345,cs),
(190,345,l),
(190,777,ls),
(190,792,o),
(176,800,o),
(150,800,cs),
(124,800,o),
(110,792,o),
(110,777,cs),
(110,18,ls),
(110,3,o),
(124,-5,o),
(150,-5,cs),
(176,-5,o),
(190,3,o),
(190,18,c,{
name = hr00;
})
);
}
);
width = 584;
}
);
unicode = 107;
},
{
glyphname = kgreenlandic;
layers = (
{
layerId = master01;
shapes = (
{
closed = 1;
nodes = (
(190,275,l),
(307,275,ls),
(378,275,o),
(388,269,o),
(402,221,cs),
(461,18,l),
(465,1,o),
(476,-5,o),
(500,-5,cs),
(526,-5,o),
(539,2,o),
(538,15,c),
(471,249,ls),
(458,295,o),
(442,319,o),
(406,332,c),
(418,342,o),
(425,354,o),
(431,371,cs),
(498,562,ls),
(505,581,o),
(506,584,o),
(506,587,cs),
(506,599,o),
(493,605,o),
(468,605,cs),
(445,605,o),
(435,599,o),
(429,582,cs),
(362,399,ls),
(344,350,o),
(334,345,o),
(267,345,cs),
(190,345,l),
(190,582,ls),
(190,597,o),
(176,605,o),
(150,605,cs),
(124,605,o),
(110,597,o),
(110,582,cs),
(110,18,ls),
(110,3,o),
(124,-5,o),
(150,-5,cs),
(176,-5,o),
(190,3,o),
(190,18,c,{
name = hr00;
})
);
}
);
width = 584;
}
);
unicode = 312;
},
{
glyphname = l;
layers = (
{
layerId = master01;
shapes = (
{
closed = 1;
nodes = (
(190,792,o),
(176,800,o),
(150,800,cs),
(124,800,o),
(110,792,o),
(110,777,cs),
(110,107,ls),
(110,50,o),
(140,-10,o),
(169,-10,cs),
(188,-10,o),
(220,14,o),
(220,29,cs),
(220,41,o),
(190,63,o),
(190,117,cs),
(190,777,ls,{
name = hr00;
})
);
}
);
width = 300;
}
);
unicode = 108;
},
{
glyphname = m;
layers = (
{
layerId = master01;
shapes = (
{
closed = 1;
nodes = (
(110,3,o),
(124,-5,o),
(150,-5,cs),
(176,-5,o),
(190,3,o),
(190,18,cs),
(190,467,ls),
(190,518,o),
(234,545,o),
(316,545,cs),
(398,545,o),
(443,517,o),
(443,467,cs),
(443,18,ls),
(443,3,o),
(457,-5,o),
(483,-5,cs),
(509,-5,o),
(523,3,o),
(523,18,cs),
(523,467,ls),
(523,518,o),
(567,545,o),
(649,545,cs),
(731,545,o),
(776,517,o),
(776,467,cs),
(776,18,ls),
(776,3,o),
(790,-5,o),
(816,-5,cs),
(842,-5,o),
(856,3,o),
(856,18,cs),
(856,457,ls),
(856,558,o),
(781,615,o),
(649,615,cs),
(573,615,o),
(517,596,o),
(482,561,c),
(447,596,o),
(391,615,o),
(316,615,cs),
(184,615,o),
(110,558,o),
(110,457,cs),
(110,18,ls,{
name = hr00;
})
);
}
);
width = 966;
}
);
unicode = 109;
},
{
glyphname = n;
layers = (
{
layerId = master01;
shapes = (
{
closed = 1;
nodes = (
(543,559,o),
(466,615,o),
(326,615,cs),
(186,615,o),
(110,559,o),
(110,457,cs),
(110,18,ls),
(110,3,o),
(124,-5,o),
(150,-5,cs),
(176,-5,o),
(190,3,o),
(190,18,cs),
(190,467,ls),
(190,518,o),
(237,545,o),
(326,545,cs),
(415,545,o),
(463,518,o),
(463,467,cs),
(463,18,ls),
(463,3,o),
(477,-5,o),
(503,-5,cs),
(529,-5,o),
(543,3,o),
(543,18,cs),
(543,457,ls,{
name = hr00;
})
);
}
);
width = 653;
}
);
unicode = 110;
},
{
glyphname = eng;
layers = (
{
layerId = master01;
shapes = (
{
closed = 1;
nodes = (
(337,-250,ls),
(473,-250,o),
(543,-197,o),
(543,-92,cs),
(543,457,l),
(543,559,o),
(466,615,o),
(326,615,cs),
(186,615,o),
(110,559,o),
(110,457,cs),
(110,18,ls),
(110,3,o),
(124,-5,o),
(150,-5,cs),
(176,-5,o),
(190,3,o),
(190,18,cs),
(190,467,ls),
(190,518,o),
(237,545,o),
(326,545,cs),
(415,545,o),
(463,518,o),
(463,467,cs),
(463,-102,ls),
(463,-155,o),
(422,-180,o),
(337,-180,cs),
(302,-180,ls),
(289,-180,o),
(282,-192,o),
(282,-215,cs),
(282,-238,o),
(289,-250,o),
(302,-250,c,{
name = hr00;
})
);
}
);
width = 653;
}
);
unicode = 331;
},
{
glyphname = o;
layers = (
{
layerId = master01;
shapes = (
{
closed = 1;
nodes = (
(453,82,o),
(406,55,o),
(317,55,cs),
(228,55,o),
(180,82,o),
(180,133,cs),
(180,467,ls),
(180,518,o),
(227,545,o),
(316,545,cs),
(405,545,o),
(453,518,o),
(453,467,cs),
(453,133,ls,{
name = hr00;
})
);
},
{
closed = 1;
nodes = (
(533,559,o),
(456,615,o),
(316,615,cs),
(176,615,o),
(100,559,o),
(100,457,cs),
(100,143,ls),
(100,41,o),
(177,-15,o),
(317,-15,cs),
(457,-15,o),
(533,41,o),
(533,143,cs),
(533,457,ls)
);
}
);
width = 633;
}
);
unicode = 111;
},
{
glyphname = oe;
layers = (
{
layerId = master01;
shapes = (
{
closed = 1;
nodes = (
(891,566,o),
(826,615,o),
(686,615,cs),
(598,615,o),
(533,596,o),
(494,559,c),
(458,596,o),
(398,615,o),
(316,615,cs),
(176,615,o),
(100,559,o),
(100,457,cs),
(100,143,ls),
(100,41,o),
(177,-15,o),
(317,-15,cs),
(398,-15,o),
(457,4,o),
(493,39,c),
(530,4,o),
(590,-15,o),
(671,-15,cs),
(817,-15,o),
(891,35,o),
(891,133,cs),
(891,161,ls),
(891,176,o),
(877,184,o),
(851,184,cs),
(825,184,o),
(811,176,o),
(811,161,cs),
(811,123,ls),
(811,77,o),
(764,55,o),
(663,55,cs),
(577,55,o),
(533,81,o),
(533,133,cs),
(533,252,l),
(728,271,ls),
(855,283,o),
(891,319,o),
(891,429,cs),
(891,459,ls,{
name = hr00;
})
);
},
{
closed = 1;
nodes = (
(453,82,o),
(406,55,o),
(317,55,cs),
(228,55,o),
(180,82,o),
(180,133,cs),
(180,467,ls),
(180,518,o),
(227,545,o),
(316,545,cs),
(405,545,o),
(453,518,o),
(453,467,cs),
(453,133,ls)
);
},
{
closed = 1;
nodes = (
(533,517,o),
(582,545,o),
(671,545,cs),
(762,545,o),
(811,518,o),
(811,467,cs),
(811,429,ls),
(811,365,o),
(794,348,o),
(721,341,cs),
(533,322,l),
(533,467,ls)
);
}
);
width = 991;
}
);
unicode = 339;
},
{
glyphname = p;
layers = (
{
layerId = master01;
shapes = (
{
closed = 1;
nodes = (
(227,70,o),
(220,58,o),
(220,35,cs),
(220,12,o),
(227,0,o),
(240,0,cs),
(327,0,ls),
(467,0,o),
(543,56,o),
(543,158,cs),
(543,457,ls),
(543,559,o),
(466,615,o),
(326,615,cs),
(186,615,o),
(110,559,o),
(110,457,cs),
(110,-232,ls),
(110,-247,o),
(124,-255,o),
(150,-255,cs),
(176,-255,o),
(190,-247,o),
(190,-232,cs),
(190,467,ls),
(190,518,o),
(237,545,o),
(326,545,cs),
(415,545,o),
(463,518,o),
(463,467,cs),
(463,148,ls),
(463,97,o),
(416,70,o),
(327,70,cs),
(240,70,ls,{
name = hr00;
})
);
}
);
width = 643;
}
);
unicode = 112;
},
{
glyphname = thorn;
layers = (
{
layerId = master01;
shapes = (
{
closed = 1;
nodes = (
(190,525,o),
(250,545,o),
(326,545,cs),
(402,545,o),
(463,525,o),
(463,467,cs),
(463,148,ls),
(463,90,o),
(403,70,o),
(327,70,cs),
(240,70,ls),
(225,70,o),
(220,54,o),
(220,35,cs),
(220,15,o),
(225,0,o),
(240,0,cs),
(327,0,ls),
(447,0,o),
(543,41,o),
(543,158,cs),
(543,457,ls),
(543,574,o),
(446,615,o),
(326,615,cs),
(274,615,o),
(227,607,o),
(190,589,c),
(190,777,ls),
(190,794,o),
(173,800,o),
(150,800,cs),
(128,800,o),
(110,794,o),
(110,777,cs),
(110,-232,ls),
(110,-249,o),
(128,-255,o),
(150,-255,cs),
(173,-255,o),
(190,-249,o),
(190,-232,cs),
(190,467,ls,{
name = hr00;
})
);
}
);
width = 643;
}
);
unicode = 254;
},
{
glyphname = q;
layers = (
{
layerId = master01;
shapes = (
{
closed = 1;
nodes = (
(227,70,o),
(180,97,o),
(180,148,cs),
(180,467,ls),
(180,518,o),
(228,545,o),
(317,545,cs),
(406,545,o),
(453,518,o),
(453,467,cs),
(453,-232,ls),
(453,-247,o),
(467,-255,o),
(493,-255,cs),
(519,-255,o),
(533,-247,o),
(533,-232,cs),
(533,457,ls),
(533,559,o),
(457,615,o),
(317,615,cs),
(177,615,o),
(100,559,o),
(100,457,cs),
(100,158,ls),
(100,56,o),
(176,0,o),
(316,0,cs),
(403,0,ls),
(416,0,o),
(423,12,o),
(423,35,cs),
(423,58,o),
(416,70,o),
(403,70,cs),
(316,70,ls,{
name = hr00;
})
);
}
);
width = 643;
}
);
unicode = 113;
},
{
glyphname = r;
layers = (
{
layerId = master01;
shapes = (
{
closed = 1;
nodes = (
(376,402,o),
(390,394,o),
(416,394,cs),
(442,394,o),
(456,402,o),
(456,417,cs),
(456,459,ls),
(456,561,o),
(396,615,o),
(283,615,cs),
(171,615,o),
(110,559,o),
(110,457,cs),
(110,8,ls),
(110,-7,o),
(124,-15,o),
(150,-15,cs),
(176,-15,o),
(190,-7,o),
(190,8,cs),
(190,467,ls),
(190,517,o),
(223,545,o),
(283,545,cs),
(344,545,o),
(376,518,o),
(376,467,cs),
(376,417,ls,{
name = hr00;
})
);
}
);
width = 476;
}
);
unicode = 114;
},
{
glyphname = s;
layers = (
{
layerId = master01;
shapes = (
{
closed = 1;
nodes = (
(440,411,o),
(454,403,o),
(484,403,cs),
(507,403,o),
(519,410,o),
(519,424,cs),
(519,459,ls),
(519,562,o),
(447,615,o),
(309,615,cs),
(180,615,o),
(110,562,o),
(107,463,cs),
(107,451,ls),
(107,337,o),
(130,309,o),
(251,280,cs),
(339,258,ls),
(417,238,o),
(443,218,o),
(443,178,cs),
(443,125,ls),
(443,79,o),
(396,55,o),
(306,55,cs),
(211,55,o),
(169,77,o),
(169,128,cs,{
name = hr01;
}),
(169,173,ls),
(169,188,o),
(153,198,o),
(130,198,cs),
(100,198,o),
(90,192,o),
(90,176,cs),
(90,144,ls),
(90,37,o),
(160,-15,o),
(305,-15,cs),
(445,-15,o),
(522,37,o),
(522,132,cs),
(522,168,ls),
(522,263,o),
(491,291,o),
(347,328,cs),
(260,350,ls),
(196,366,o),
(186,379,o),
(186,448,cs,{
name = hr02;
}),
(186,470,ls),
(186,518,o),
(232,545,o),
(311,545,cs),
(396,545,o),
(440,518,o),
(440,466,cs),
(440,427,ls)
);
}
);
width = 612;
}
);
unicode = 115;
},
{
glyphname = germandbls;
layers = (
{
layerId = master01;
shapes = (
{
closed = 1;
nodes = (
(607,359,o),
(569,399,o),
(462,403,c),
(479,421,ls),
(516,458,o),
(543,516,o),
(543,557,cs,{
name = hr01;
}),
(543,574,ls),
(543,691,o),
(496,740,o),
(385,740,cs),
(268,740,ls),
(155,740,o),
(110,690,o),
(110,564,cs),
(110,18,ls),
(110,3,o),
(124,-5,o),
(150,-5,cs),
(176,-5,o),
(190,3,o),
(190,18,cs),
(190,564,ls),
(190,641,o),
(211,670,o),
(268,670,cs),
(385,670,ls),
(441,670,o),
(463,643,o),
(463,574,cs),
(463,562,ls),
(463,525,o),
(447,492,o),
(407,452,cs),
(360,404,l),
(329,404,ls),
(316,404,o),
(309,392,o),
(309,369,cs),
(309,346,o),
(316,334,o),
(329,334,cs),
(441,334,ls),
(511,334,o),
(527,319,o),
(527,256,cs,{
name = hr02;
}),
(527,133,ls),
(527,84,o),
(489,55,o),
(427,55,cs),
(365,55,o),
(330,83,o),
(330,133,cs),
(330,187,ls),
(330,202,o),
(316,210,o),
(290,210,cs),
(264,210,o),
(250,202,o),
(250,187,cs),
(250,143,ls),
(250,43,o),
(314,-15,o),
(427,-15,cs),
(540,-15,o),
(607,44,o),
(607,143,cs),
(607,256,ls)
);
}
);
width = 687;
}
);
unicode = 223;
},
{
glyphname = t;
layers = (
{
layerId = master01;
shapes = (
{
closed = 1;
nodes = (
(230,732,o),
(216,740,o),
(190,740,cs),
(164,740,o),
(150,732,o),
(150,717,cs),
(150,600,l),
(70,600,ls),
(57,600,o),
(50,588,o),
(50,565,cs),
(50,542,o),
(57,530,o),
(70,530,cs),
(150,530,l),
(150,107,ls),
(150,50,o),
(180,-10,o),
(209,-10,cs),
(228,-10,o),
(260,14,o),
(260,29,cs),
(260,41,o),
(230,63,o),
(230,117,cs),
(230,530,l),
(335,530,ls),
(348,530,o),
(355,542,o),
(355,565,cs),
(355,588,o),
(348,600,o),
(335,600,cs),
(230,600,l),
(230,717,ls,{
name = hr00;
})
);
}
);
width = 385;
}
);
unicode = 116;
},
{
glyphname = u;
layers = (
{
layerId = master01;
shapes = (
{
closed = 1;
nodes = (
(543,597,o),
(529,605,o),
(503,605,cs),
(477,605,o),
(463,597,o),
(463,582,cs),
(463,133,ls),
(463,82,o),
(415,55,o),
(326,55,cs),
(237,55,o),
(190,82,o),
(190,133,cs),
(190,582,ls),
(190,597,o),
(176,605,o),
(150,605,cs),
(124,605,o),
(110,597,o),
(110,582,cs),
(110,143,ls),
(110,41,o),
(186,-15,o),
(326,-15,cs),
(466,-15,o),
(543,41,o),
(543,143,cs),
(543,582,ls,{
name = hr00;
})
);
}
);
width = 653;
}
);
unicode = 117;
},
{
glyphname = uogonek;
layers = (
{
layerId = master01;
shapes = (
{
closed = 1;
nodes = (
(401,-222,o),
(447,-185,o),
(447,-130,cs),
(447,-117,ls),
(447,-104,o),
(435,-96,o),
(414,-96,cs),
(392,-96,o),
(380,-103,o),
(380,-117,cs),
(380,-135,ls),
(380,-154,o),
(363,-164,o),
(332,-164,cs),
(302,-164,o),
(283,-152,o),
(283,-134,cs),
(283,-109,ls),
(283,-74,o),
(296,-54,o),
(329,-41,cs),
(434,0,ls),
(504,27,o),
(543,71,o),
(543,143,cs),
(543,582,ls),
(543,597,o),
(529,605,o),
(503,605,cs),
(477,605,o),
(463,597,o),
(463,582,cs),
(463,133,ls),
(463,82,o),
(415,55,o),
(326,55,cs),
(237,55,o),
(190,82,o),
(190,133,cs),
(190,582,ls),
(190,597,o),
(176,605,o),
(150,605,cs),
(124,605,o),
(110,597,o),
(110,582,cs),
(110,143,ls),
(110,50,o),
(173,-4,o),
(290,-13,c),
(229,-40,o),
(216,-60,o),
(216,-108,cs),
(216,-130,ls),
(216,-184,o),
(264,-222,o),
(333,-222,cs,{
name = hr00;
})
);
}
);
width = 653;
}
);
unicode = 371;
},
{
glyphname = v;
layers = (
{
layerId = master01;
shapes = (
{
closed = 1;
nodes = (
(405,-15,o),
(445,20,o),
(462,122,cs),
(539,585,ls),
(540,598,o),
(527,605,o),
(501,605,cs),
(475,605,o),
(462,597,o),
(459,582,cs),
(384,133,ls),
(374,72,o),
(356,55,o),
(305,55,cs),
(254,55,o),
(236,73,o),
(226,133,cs),
(151,582,ls),
(148,598,o),
(134,605,o),
(109,605,cs),
(83,605,o),
(69,598,o),
(71,585,cs),
(148,122,ls),
(165,20,o),
(205,-15,o),
(305,-15,cs,{
name = hr00;
})
);
}
);
width = 610;
}
);
unicode = 118;
},
{
glyphname = w;
layers = (
{
layerId = master01;
shapes = (
{
closed = 1;
nodes = (
(358,75,o),
(339,55,o),
(294,55,cs),
(250,55,o),
(235,71,o),
(225,133,cs),
(150,582,ls),
(147,598,o),
(133,605,o),
(108,605,cs),
(84,605,o),
(70,598,o),
(70,587,c),
(147,122,ls),
(164,19,o),
(200,-15,o),
(294,-15,cs),
(390,-15,o),
(429,21,o),
(441,122,cs),
(465,329,l),
(475,329,l),
(500,122,ls),
(512,21,o),
(551,-15,o),
(647,-15,cs),
(740,-15,o),
(777,19,o),
(794,122,cs),
(871,587,l),
(871,598,o),
(857,605,o),
(833,605,cs),
(807,605,o),
(794,597,o),
(791,582,cs),
(716,133,ls),
(705,71,o),
(691,55,o),
(647,55,cs),
(601,55,o),
(583,74,o),
(574,133,cs),
(508,541,ls),
(505,556,o),
(493,563,o),
(470,563,cs),
(447,563,o),
(433,555,o),
(432,541,cs),
(367,133,ls,{
name = hr00;
})
);
}
);
width = 941;
}
);
unicode = 119;
},
{
glyphname = x;
layers = (
{
layerId = master01;
shapes = (
{
closed = 1;
nodes = (
(84,2,o),
(98,-5,o),
(124,-5,cs),
(149,-5,o),
(162,2,o),
(166,18,cs),
(211,197,ls),
(225,253,o),
(251,275,o),
(305,275,cs),
(358,275,o),
(385,253,o),
(399,197,cs),
(444,18,ls),
(448,2,o),
(461,-5,o),
(486,-5,cs),
(512,-5,o),
(525,2,o),
(524,15,c),
(477,208,ls),
(463,263,o),
(444,294,o),
(406,310,c),
(442,327,o),
(462,357,o),
(477,412,cs),
(524,585,l),
(525,598,o),
(512,605,o),
(486,605,cs),
(461,605,o),
(448,598,o),
(444,582,cs),
(399,423,ls),
(383,366,o),
(357,345,o),
(305,345,cs),
(252,345,o),
(227,366,o),
(211,423,cs),
(166,582,ls),
(161,598,o),
(148,605,o),
(124,605,cs),
(98,605,o),
(84,598,o),
(86,585,c),
(133,412,ls),
(147,358,o),
(166,327,o),
(203,310,c),
(165,294,o),
(146,263,o),
(133,208,cs),
(86,15,l,{
name = hr00;
})
);
}
);
width = 610;
}
);
unicode = 120;
},
{
glyphname = y;
layers = (
{
layerId = master01;
shapes = (
{
closed = 1;
nodes = (
(540,598,o),
(527,605,o),
(501,605,cs),
(477,605,o),
(466,598,o),
(463,582,cs),
(375,55,l),
(305,55,ls),
(254,55,o),
(236,73,o),
(226,133,cs),
(151,582,ls),
(148,598,o),
(134,605,o),
(109,605,cs),
(83,605,o),
(69,598,o),
(71,585,cs),
(148,122,ls),
(165,20,o),
(205,-15,o),
(305,-15,cs),
(363,-15,l),
(349,-102,ls),
(339,-163,o),
(315,-180,o),
(243,-180,cs),
(171,-180,ls),
(158,-180,o),
(151,-192,o),
(151,-215,cs),
(151,-238,o),
(158,-250,o),
(171,-250,cs),
(243,-250,ls),
(369,-250,o),
(403,-221,o),
(425,-92,cs),
(539,585,l,{
name = hr00;
})
);
}
);
width = 610;
}
);
unicode = 121;
},
{
glyphname = z;
layers = (
{
layerId = master01;
shapes = (
{
closed = 1;
nodes = (
(473,0,ls),
(486,0,o),
(493,12,o),
(493,35,cs),
(493,58,o),
(486,70,o),
(473,70,cs),
(150,70,l),
(150,100,o),
(155,109,o),
(194,149,cs),
(396,356,ls),
(482,444,o),
(492,460,o),
(492,510,cs),
(492,565,ls),
(492,588,o),
(485,600,o),
(472,600,cs),
(119,600,ls),
(106,600,o),
(99,588,o),
(99,565,cs),
(99,542,o),
(106,530,o),
(119,530,cs),
(412,530,l),
(412,508,ls),
(412,478,o),
(409,473,o),
(368,431,cs),
(166,224,ls),
(77,132,o),
(70,121,o),
(70,70,cs),
(70,35,ls),
(70,12,o),
(77,0,o),
(90,0,c,{
name = hr00;
})
);
}
);
width = 573;
}
);
unicode = 122;
},
{
glyphname = fi;
layers = (
{
layerId = master01;
shapes = (
{
closed = 1;
nodes = (
(65,600,o),
(60,585,o),
(60,565,cs),
(60,546,o),
(65,530,o),
(80,530,cs),
(150,530,l),
(150,-93,ls),
(150,-177,o),
(120,-199,o),
(120,-211,cs),
(120,-227,o),
(154,-250,o),
(171,-250,cs),
(199,-250,o),
(230,-192,o),
(230,-103,cs),
(230,530,l,{
name = hr01;
}),
(495,530,l),
(495,107,ls),
(495,48,o),
(526,-10,o),
(554,-10,cs),
(571,-10,o),
(605,13,o),
(605,29,cs),
(605,41,o),
(575,63,o),
(575,117,cs),
(575,565,ls),
(575,584,o),
(570,600,o),
(555,600,cs),
(230,600,l),
(230,667,ls),
(230,725,o),
(280,745,o),
(356,745,cs),
(391,745,ls),
(406,745,o),
(411,761,o),
(411,780,cs),
(411,800,o),
(406,815,o),
(391,815,cs),
(356,815,ls),
(236,815,o),
(150,774,o),
(150,657,cs),
(150,600,l),
(80,600,ls)
);
},
{
closed = 1;
nodes = (
(578,689,o),
(559,683,o),
(535,683,cs),
(510,683,o),
(491,689,o),
(491,708,cs),
(491,795,ls),
(491,814,o),
(510,820,o),
(534,820,cs),
(559,820,o),
(578,814,o),
(578,795,cs),
(578,708,ls)
);
}
);
width = 685;
}
);
unicode = 64257;
},
{
glyphname = ordfeminine;
layers = (
{
layerId = master01;
shapes = (
{
closed = 1;
nodes = (
(262,380,o),
(266,393,o),
(266,409,cs),
(266,425,o),
(262,438,o),
(247,438,cs),
(199,438,ls),
(156,438,o),
(151,455,o),
(151,487,cs),
(151,492,ls),
(151,527,o),
(156,536,o),
(200,541,cs),
(297,552,l),
(297,474,ls),
(297,413,o),
(322,373,o),
(342,373,cs,{
name = hr01;
}),
(355,373,o),
(381,392,o),
(381,405,cs),
(381,416,o),
(362,423,o),
(362,481,cs,{
name = hr02;
}),
(362,667,ls),
(362,746,o),
(298,775,o),
(218,775,cs),
(131,775,ls),
(117,775,o),
(112,762,o),
(112,745,cs),
(112,730,o),
(117,716,o),
(131,716,cs),
(218,716,ls),
(262,716,o),
(297,705,o),
(297,674,cs),
(297,611,l),
(194,600,ls),
(117,592,o),
(86,571,o),
(86,492,cs),
(86,487,ls),
(86,408,o),
(119,380,o),
(199,380,cs),
(247,380,ls)
);
}
);
width = 472;
}
);
unicode = 170;
},
{
glyphname = ordmasculine;
layers = (
{
layerId = master01;
shapes = (
{
closed = 1;
nodes = (
(323,440,o),
(288,429,o),
(244,429,cs),
(200,429,o),
(164,440,o),
(164,471,cs),
(164,684,ls),
(164,715,o),
(199,726,o),
(243,726,cs),
(288,726,o),
(323,715,o),
(323,684,cs),
(323,471,ls,{
name = hr00;
})
);
},
{
closed = 1;
nodes = (
(387,756,o),
(323,785,o),
(243,785,cs),
(163,785,o),
(99,756,o),
(99,677,cs),
(99,478,ls),
(99,399,o),
(164,370,o),
(244,370,cs),
(324,370,o),
(387,399,o),
(387,478,cs),
(387,677,ls)
);
}
);
width = 491;
}
);
unicode = 186;
},
{
glyphname = pi;
layers = (
{
layerId = master01;
shapes = (
{
closed = 1;
nodes = (
(35,600,o),
(30,585,o),
(30,565,cs),
(30,546,o),
(35,530,o),
(50,530,cs),
(120,530,l),
(120,18,ls),
(120,1,o),
(138,-5,o),
(160,-5,cs),
(183,-5,o),
(200,1,o),
(200,18,cs),
(200,530,l),
(435,530,l),
(435,107,ls),
(435,48,o),
(466,-10,o),
(494,-10,cs,{
name = hr01;
}),
(511,-10,o),
(545,13,o),
(545,29,cs),
(545,41,o),
(515,63,o),
(515,117,cs),
(515,530,l),
(585,530,ls),
(600,530,o),
(605,545,o),
(605,565,cs),
(605,584,o),
(600,600,o),
(585,600,cs),
(50,600,ls)
);
}
);
width = 635;
}
);
unicode = 960;
},
{
glyphname = zero;
layers = (
{
layerId = master01;
shapes = (
{
closed = 1;
nodes = (
(533,701,o),
(454,755,o),
(305,755,cs),
(153,755,o),
(70,699,o),
(70,597,cs),
(70,143,ls),
(70,39,o),
(149,-15,o),
(298,-15,cs),
(450,-15,o),
(533,41,o),
(533,143,cs),
(533,597,ls,{
name = hr00;
})
);
},
{
closed = 1;
nodes = (
(453,82,o),
(399,55,o),
(298,55,cs),
(281,55,o),
(266,55,o),
(252,57,c),
(413,667,l),
(439,654,o),
(453,634,o),
(453,607,cs),
(453,133,l)
);
},
{
closed = 1;
nodes = (
(150,658,o),
(204,685,o),
(305,685,cs),
(321,685,o),
(335,684,o),
(348,683,c),
(188,74,l),
(162,87,o),
(150,106,o),
(150,133,cs),
(150,607,ls)
);
}
);
width = 600;
}
);
unicode = 48;
},
{
glyphname = one;
layers = (
{
layerId = master01;
shapes = (
{
closed = 1;
nodes = (
(490,0,ls),
(503,0,o),
(510,12,o),
(510,35,cs),
(510,58,o),
(503,70,o),
(490,70,cs),
(360,70,l),
(360,668,ls),
(360,726,o),
(348,740,o),
(300,740,cs),
(150,740,ls),
(137,740,o),
(130,728,o),
(130,705,cs),
(130,682,o),
(137,670,o),
(150,670,cs),
(280,670,l),
(280,70,l),
(150,70,ls),
(137,70,o),
(130,58,o),
(130,35,cs),
(130,12,o),
(137,0,o),
(150,0,c,{
name = hr00;
})
);
}
);
width = 600;
}
);
unicode = 49;
},
{
glyphname = two;
layers = (
{
layerId = master01;
shapes = (
{
closed = 1;
nodes = (
(503,0,ls),
(516,0,o),
(523,12,o),
(523,35,cs),
(523,58,o),
(516,70,o),
(503,70,cs),
(169,70,l),
(459,421,ls),
(497,467,o),
(523,522,o),
(523,557,cs),
(523,574,ls),
(523,691,o),
(476,740,o),
(365,740,cs),
(123,740,ls),
(110,740,o),
(103,728,o),
(103,705,cs),
(103,682,o),
(110,670,o),
(123,670,cs),
(365,670,ls),
(421,670,o),
(443,643,o),
(443,574,cs),
(443,562,ls),
(443,529,o),
(429,503,o),
(387,452,cs),
(69,67,ls),
(63,60,o),
(60,48,o),
(60,35,cs),
(60,12,o),
(67,0,o),
(80,0,c,{
name = hr00;
})
);
}
);
width = 600;
}
);
unicode = 50;
},
{
glyphname = three;
layers = (
{
layerId = master01;
shapes = (
{
closed = 1;
nodes = (
(442,-15,o),
(527,43,o),
(527,143,cs),
(527,256,ls),
(527,344,o),
(499,385,o),
(427,399,c),
(449,421,ls),
(486,458,o),
(513,516,o),
(513,557,cs,{
name = hr01;
}),
(513,574,ls),
(513,691,o),
(466,740,o),
(355,740,cs),
(123,740,ls),
(110,740,o),
(103,728,o),
(103,705,cs),
(103,682,o),
(110,670,o),
(123,670,cs),
(355,670,ls),
(411,670,o),
(433,643,o),
(433,574,cs),
(433,562,ls),
(433,524,o),
(416,491,o),
(377,452,cs),
(330,404,l),
(189,404,ls),
(176,404,o),
(169,392,o),
(169,369,cs),
(169,346,o),
(176,334,o),
(189,334,cs),
(361,334,ls),
(431,334,o),
(447,319,o),
(447,256,cs,{
name = hr02;
}),
(447,133,ls),
(447,84,o),
(390,55,o),
(296,55,cs),
(204,55,o),
(150,84,o),
(150,133,cs),
(150,187,ls),
(150,202,o),
(136,210,o),
(110,210,cs),
(84,210,o),
(70,202,o),
(70,187,cs),
(70,143,ls),
(70,43,o),
(152,-15,o),
(296,-15,c)
);
}
);
width = 600;
}
);
unicode = 51;
},
{
glyphname = four;
layers = (
{
layerId = master01;
shapes = (
{
closed = 1;
nodes = (
(64,388,o),
(45,331,o),
(45,299,cs),
(45,286,ls),
(45,197,o),
(94,160,o),
(211,160,cs),
(390,160,l),
(390,18,ls),
(390,3,o),
(404,-5,o),
(430,-5,cs),
(456,-5,o),
(470,3,o),
(470,18,cs),
(470,160,l),
(523,160,ls),
(536,160,o),
(543,172,o),
(543,195,cs),
(543,218,o),
(536,230,o),
(523,230,cs),
(470,230,l),
(470,508,ls),
(470,523,o),
(456,531,o),
(430,531,cs),
(404,531,o),
(390,523,o),
(390,508,cs),
(390,230,l),
(211,230,ls),
(145,230,o),
(125,243,o),
(125,288,cs),
(125,293,ls),
(125,326,o),
(137,360,o),
(181,458,cs),
(295,710,ls),
(296,712,o),
(297,715,o),
(297,717,cs),
(297,726,o),
(287,735,o),
(268,744,c),
(255,748,o),
(247,750,o),
(241,750,cs),
(231,750,o),
(225,747,o),
(222,740,cs),
(109,489,ls,{
name = hr00;
})
);
}
);
width = 600;
}
);
unicode = 52;
},
{
glyphname = five;
layers = (
{
layerId = master01;
shapes = (
{
closed = 1;
nodes = (
(431,314,o),
(457,297,o),
(457,256,cs),
(457,133,ls),
(457,84,o),
(400,55,o),
(306,55,cs),
(214,55,o),
(160,84,o),
(160,133,cs),
(160,187,ls),
(160,202,o),
(146,210,o),
(120,210,cs),
(94,210,o),
(80,202,o),
(80,187,cs),
(80,143,ls),
(80,43,o),
(162,-15,o),
(306,-15,cs),
(452,-15,o),
(537,43,o),
(537,143,cs),
(537,248,ls),
(537,341,o),
(497,373,o),
(341,407,cs),
(180,442,l,{
name = hr01;
}),
(180,564,ls),
(180,641,o),
(201,670,o),
(258,670,cs),
(490,670,ls),
(503,670,o),
(510,682,o),
(510,705,cs),
(510,728,o),
(503,740,o),
(490,740,cs),
(258,740,ls),
(145,740,o),
(100,690,o),
(100,564,cs),
(100,447,ls),
(100,399,o),
(110,384,o),
(148,376,cs),
(341,334,ls)
);
}
);
width = 600;
}
);
unicode = 53;
},
{
glyphname = six;
layers = (
{
layerId = master01;
shapes = (
{
closed = 1;
nodes = (
(452,-15,o),
(537,43,o),
(537,143,cs),
(537,258,ls),
(537,355,o),
(490,394,o),
(341,416,cs),
(160,443,l),
(160,564,ls),
(160,641,o),
(181,670,o),
(238,670,cs),
(490,670,ls),
(503,670,o),
(510,682,o),
(510,705,cs),
(510,728,o),
(503,740,o),
(490,740,cs),
(238,740,ls),
(125,740,o),
(80,690,o),
(80,564,cs),
(80,143,ls),
(80,43,o),
(162,-15,o),
(306,-15,cs,{
name = hr00;
})
);
},
{
closed = 1;
nodes = (
(214,55,o),
(160,84,o),
(160,133,cs),
(160,371,l),
(341,344,ls),
(425,331,o),
(457,309,o),
(457,266,cs),
(457,133,ls),
(457,84,o),
(400,55,o),
(306,55,c)
);
}
);
width = 600;
}
);
unicode = 54;
},
{
glyphname = seven;
layers = (
{
layerId = master01;
shapes = (
{
closed = 1;
nodes = (
(484,512,o),
(503,569,o),
(503,601,cs),
(503,614,ls),
(503,703,o),
(454,740,o),
(337,740,cs),
(100,740,ls),
(87,740,o),
(80,728,o),
(80,705,cs),
(80,682,o),
(87,670,o),
(100,670,cs),
(337,670,ls),
(403,670,o),
(423,657,o),
(423,612,cs),
(423,607,ls),
(423,573,o),
(411,538,o),
(367,442,cs),
(182,30,ls),
(181,28,o),
(180,25,o),
(180,23,cs),
(180,13,o),
(190,4,o),
(209,-4,cs),
(221,-8,o),
(230,-10,o),
(236,-10,cs),
(245,-10,o),
(252,-7,o),
(255,0,cs),
(439,411,ls,{
name = hr00;
})
);
}
);
width = 600;
}
);
unicode = 55;
},
{
glyphname = eight;
layers = (
{
layerId = master01;
shapes = (
{
closed = 1;
nodes = (
(506,481,o),
(531,529,o),
(531,567,cs),
(531,597,ls),
(531,700,o),
(451,755,o),
(303,755,cs),
(151,755,o),
(68,699,o),
(68,597,cs),
(68,567,ls),
(68,513,o),
(102,455,o),
(153,422,cs),
(211,384,l),
(127,299,ls),
(87,258,o),
(63,210,o),
(63,173,cs),
(63,143,ls),
(63,41,o),
(146,-15,o),
(296,-15,cs),
(449,-15,o),
(536,42,o),
(536,143,cs),
(536,173,ls),
(536,226,o),
(502,285,o),
(451,318,cs),
(387,359,l),
(467,441,ls,{
name = hr00;
})
);
},
{
closed = 1;
nodes = (
(439,237,o),
(456,209,o),
(456,168,cs),
(456,133,ls),
(456,84,o),
(396,55,o),
(297,55,cs),
(200,55,o),
(143,84,o),
(143,133,cs),
(143,168,ls),
(143,201,o),
(155,222,o),
(199,268,cs),
(273,344,l),
(400,263,l)
);
},
{
closed = 1;
nodes = (
(165,502,o),
(148,531,o),
(148,572,cs),
(148,607,ls),
(148,656,o),
(205,685,o),
(302,685,cs),
(397,685,o),
(451,657,o),
(451,607,cs),
(451,572,ls),
(451,538,o),
(439,517,o),
(395,472,cs),
(324,399,l),
(204,477,ls)
);
}
);
width = 600;
}
);
unicode = 56;
},
{
glyphname = nine;
layers = (
{
layerId = master01;
shapes = (
{
closed = 1;
nodes = (
(520,697,o),
(438,755,o),
(294,755,cs),
(148,755,o),
(63,697,o),
(63,597,cs),
(63,482,ls),
(63,384,o),
(111,346,o),
(259,324,cs),
(440,297,l),
(440,133,ls),
(440,84,o),
(383,55,o),
(289,55,cs),
(197,55,o),
(143,84,o),
(143,133,cs),
(143,187,ls),
(143,202,o),
(129,210,o),
(103,210,cs),
(77,210,o),
(63,202,o),
(63,187,cs),
(63,143,ls),
(63,43,o),
(145,-15,o),
(289,-15,cs),
(435,-15,o),
(520,43,o),
(520,143,cs),
(520,597,ls,{
name = hr00;
})
);
},
{
closed = 1;
nodes = (
(143,656,o),
(200,685,o),
(294,685,cs),
(386,685,o),
(440,656,o),
(440,607,cs),
(440,369,l),
(259,396,ls),
(176,408,o),
(143,430,o),
(143,474,cs),
(143,607,l)
);
}
);
width = 600;
}
);
unicode = 57;
},
{
glyphname = fraction;
layers = (
{
layerId = master01;
shapes = (
{
closed = 1;
nodes = (
(612,742,o),
(611,737,o),
(611,738,cs),
(611,749,o),
(602,755,o),
(586,755,cs),
(567,755,o),
(555,747,o),
(552,732,cs),
(403,19,ls),
(401,8,o),
(400,4,o),
(400,2,cs),
(400,-10,o),
(411,-15,o),
(425,-15,cs),
(442,-15,o),
(455,-9,o),
(459,8,cs),
(608,721,ls,{
name = hr00;
})
);
}
);
width = 1011;
}
);
unicode = 8260;
},
{
glyphname = zeroinferior;
layers = (
{
layerId = master01;
shapes = (
{
closed = 1;
nodes = (
(387,295,o),
(323,323,o),
(236,323,cs),
(150,323,o),
(79,295,o),
(79,216,cs),
(79,-72,ls),
(79,-151,o),
(145,-180,o),
(232,-180,cs),
(318,-180,o),
(387,-151,o),
(387,-72,cs),
(387,216,ls,{
name = hr00;
})
);
},
{
closed = 1;
nodes = (
(144,254,o),
(185,265,o),
(236,265,cs),
(287,265,o),
(323,254,o),
(323,223,cs),
(323,-79,ls),
(323,-110,o),
(283,-121,o),
(232,-121,cs),
(181,-121,o),
(144,-110,o),
(144,-79,cs),
(144,223,ls)
);
}
);
width = 470;
}
);
unicode = 8320;
},
{
glyphname = oneinferior;
layers = (
{
layerId = master01;
shapes = (
{
closed = 1;
nodes = (
(368,-170,o),
(373,-157,o),
(373,-141,cs),
(373,-124,o),
(368,-112,o),
(353,-112,cs),
(278,-112,l),
(278,261,ls),
(278,298,o),
(273,314,o),
(233,314,cs),
(137,314,ls),
(123,314,o),
(118,301,o),
(118,284,cs),
(118,268,o),
(123,255,o),
(137,255,cs),
(213,255,l),
(213,-112,l),
(137,-112,ls),
(123,-112,o),
(118,-125,o),
(118,-141,cs),
(118,-157,o),
(123,-170,o),
(137,-170,cs),
(353,-170,ls,{
name = hr00;
})
);
}
);
width = 470;
}
);
unicode = 8321;
},
{
glyphname = twoinferior;
layers = (
{
layerId = master01;
shapes = (
{
closed = 1;
nodes = (
(381,277,o),
(353,314,o),
(274,314,cs),
(120,314,ls),
(106,314,o),
(101,301,o),
(101,284,cs),
(101,269,o),
(106,255,o),
(120,255,cs),
(274,255,ls),
(306,255,o),
(317,238,o),
(317,201,cs),
(317,194,ls),
(317,173,o),
(305,154,o),
(284,128,cs),
(81,-116,ls),
(76,-122,o),
(73,-131,o),
(73,-141,cs),
(73,-157,o),
(78,-170,o),
(93,-170,cs),
(362,-170,ls),
(376,-170,o),
(381,-157,o),
(381,-141,cs),
(381,-125,o),
(376,-112,o),
(362,-112,cs),
(163,-112,l),
(338,101,ls),
(362,130,o),
(381,166,o),
(381,191,cs),
(381,201,ls,{
name = hr00;
})
);
}
);
width = 470;
}
);
unicode = 8322;
},
{
glyphname = threeinferior;
layers = (
{
layerId = master01;
shapes = (
{
closed = 1;
nodes = (
(384,57,o),
(366,84,o),
(327,95,c),
(332,100,ls),
(359,127,o),
(374,166,o),
(374,191,cs),
(374,201,ls),
(374,277,o),
(347,314,o),
(268,314,cs),
(120,314,ls),
(106,314,o),
(101,301,o),
(101,284,cs),
(101,269,o),
(106,255,o),
(120,255,cs),
(268,255,ls),
(299,255,o),
(310,238,o),
(310,201,cs),
(310,194,ls),
(310,173,o),
(302,153,o),
(277,129,cs),
(248,101,l),
(162,101,ls),
(148,101,o),
(143,88,o),
(143,71,cs),
(143,55,o),
(148,42,o),
(162,42,cs),
(272,42,ls),
(314,42,o),
(320,31,o),
(320,-1,cs),
(320,-79,ls),
(320,-110,o),
(275,-121,o),
(230,-121,cs),
(186,-121,o),
(144,-110,o),
(144,-79,cs),
(144,-44,ls),
(144,-28,o),
(130,-23,o),
(112,-23,cs),
(94,-23,o),
(79,-28,o),
(79,-44,cs),
(79,-72,ls),
(79,-151,o),
(150,-180,o),
(230,-180,cs),
(310,-180,o),
(384,-151,o),
(384,-72,cs),
(384,-1,ls,{
name = hr00;
})
);
}
);
width = 470;
}
);
unicode = 8323;
},
{
glyphname = fourinferior;
layers = (
{
layerId = master01;
shapes = (
{
closed = 1;
nodes = (
(79,91,o),
(64,50,o),
(64,26,cs),
(64,19,ls),
(64,-42,o),
(95,-68,o),
(176,-68,cs),
(283,-68,l),
(283,-151,ls),
(283,-167,o),
(297,-173,o),
(315,-173,cs),
(333,-173,o),
(347,-167,o),
(347,-151,cs),
(347,-68,l),
(374,-68,ls),
(389,-68,o),
(394,-56,o),
(394,-39,cs),
(394,-23,o),
(389,-11,o),
(374,-11,cs),
(347,-11,l),
(347,159,ls),
(347,175,o),
(333,181,o),
(315,181,cs),
(297,181,o),
(283,175,o),
(283,159,cs),
(283,-11,l),
(176,-11,ls),
(134,-11,o),
(128,0,o),
(128,20,cs),
(129,45,o),
(137,68,o),
(163,125,cs),
(237,286,l),
(237,287,o),
(238,289,o),
(238,290,cs),
(238,303,o),
(218,320,o),
(196,320,cs),
(189,320,o),
(181,316,o),
(177,310,c),
(106,151,ls,{
name = hr00;
})
);
}
);
width = 470;
}
);
unicode = 8324;
},
{
glyphname = fiveinferior;
layers = (
{
layerId = master01;
shapes = (
{
closed = 1;
nodes = (
(301,33,o),
(326,25,o),
(326,-1,cs),
(326,-79,ls),
(326,-110,o),
(281,-121,o),
(237,-121,cs),
(192,-121,o),
(151,-110,o),
(151,-79,cs),
(151,-44,ls),
(151,-28,o),
(137,-23,o),
(119,-23,cs),
(101,-23,o),
(86,-28,o),
(86,-44,cs),
(86,-72,ls),
(86,-151,o),
(157,-180,o),
(237,-180,cs),
(317,-180,o),
(390,-151,o),
(390,-72,cs),
(390,-6,ls),
(390,73,o),
(338,87,o),
(260,103,cs),
(163,123,l,{
name = hr01;
}),
(163,195,ls),
(163,238,o),
(174,255,o),
(206,255,cs),
(353,255,ls),
(368,255,o),
(373,269,o),
(373,284,cs),
(373,301,o),
(368,314,o),
(353,314,cs),
(206,314,ls),
(127,314,o),
(99,277,o),
(99,195,cs),
(99,121,ls),
(99,83,o),
(108,74,o),
(134,68,cs),
(258,42,ls)
);
}
);
width = 470;
}
);
unicode = 8325;
},
{
glyphname = sixinferior;
layers = (
{
layerId = master01;
shapes = (
{
closed = 1;
nodes = (
(86,-151,o),
(157,-180,o),
(237,-180,cs),
(317,-180,o),
(390,-151,o),
(390,-72,cs),
(390,1,ls),
(390,80,o),
(339,96,o),
(260,108,cs),
(151,124,l),
(151,195,ls),
(151,238,o),
(161,255,o),
(194,255,cs),
(353,255,ls),
(368,255,o),
(373,269,o),
(373,284,cs),
(373,301,o),
(368,314,o),
(353,314,cs),
(194,314,ls),
(115,314,o),
(86,277,o),
(86,195,cs),
(86,-72,ls,{
name = hr00;
})
);
},
{
closed = 1;
nodes = (
(299,43,o),
(326,30,o),
(326,6,cs),
(326,-79,ls),
(326,-110,o),
(281,-121,o),
(237,-121,cs),
(192,-121,o),
(151,-110,o),
(151,-79,cs),
(151,65,l),
(258,49,ls)
);
}
);
width = 470;
}
);
unicode = 8326;
},
{
glyphname = seveninferior;
layers = (
{
layerId = master01;
shapes = (
{
closed = 1;
nodes = (
(353,154,o),
(369,195,o),
(369,219,cs),
(369,227,ls),
(369,287,o),
(337,314,o),
(256,314,cs),
(106,314,ls),
(91,314,o),
(86,301,o),
(86,284,cs),
(86,269,o),
(91,255,o),
(106,255,cs),
(256,255,ls),
(298,255,o),
(304,244,o),
(304,226,cs),
(303,200,o),
(294,172,o),
(270,120,cs),
(149,-147,l),
(150,-147,o),
(150,-149,o),
(150,-149,c),
(150,-158,o),
(169,-177,o),
(192,-177,cs),
(199,-177,o),
(207,-172,o),
(210,-166,cs),
(327,95,ls,{
name = hr00;
})
);
}
);
width = 470;
}
);
unicode = 8327;
},
{
glyphname = eightinferior;
layers = (
{
layerId = master01;
shapes = (
{
closed = 1;
nodes = (
(371,140,o),
(386,172,o),
(386,197,cs),
(386,216,ls),
(386,295,o),
(319,323,o),
(235,323,cs),
(149,323,o),
(78,295,o),
(78,216,cs),
(78,197,ls),
(78,172,o),
(91,129,o),
(135,99,cs),
(145,92,o),
(155,87,o),
(165,80,c),
(118,31,ls),
(91,3,o),
(75,-28,o),
(75,-54,cs),
(75,-72,ls),
(75,-151,o),
(146,-180,o),
(230,-180,cs),
(316,-180,o),
(389,-151,o),
(389,-72,cs),
(389,-54,ls),
(389,-19,o),
(370,31,o),
(299,66,c),
(344,112,ls,{
name = hr00;
})
);
},
{
closed = 1;
nodes = (
(316,-18,o),
(325,-38,o),
(325,-57,cs),
(325,-79,ls),
(325,-110,o),
(278,-121,o),
(231,-121,cs),
(184,-121,o),
(140,-110,o),
(140,-79,cs),
(140,-57,ls),
(140,-36,o),
(148,-23,o),
(173,2,cs),
(216,47,l),
(292,-2,ls)
);
},
{
closed = 1;
nodes = (
(152,162,o),
(143,181,o),
(143,200,cs),
(143,223,ls),
(143,254,o),
(187,265,o),
(234,265,cs),
(281,265,o),
(322,254,o),
(322,223,cs),
(322,200,ls),
(322,178,o),
(312,167,o),
(288,142,cs),
(247,100,l),
(176,146,ls)
);
}
);
width = 470;
}
);
unicode = 8328;
},
{
glyphname = nineinferior;
layers = (
{
layerId = master01;
shapes = (
{
closed = 1;
nodes = (
(379,295,o),
(309,323,o),
(229,323,cs),
(149,323,o),
(75,295,o),
(75,216,cs),
(75,143,ls),
(75,64,o),
(126,47,o),
(205,36,cs),
(315,20,l),
(315,-79,ls),
(315,-110,o),
(270,-121,o),
(226,-121,cs),
(181,-121,o),
(140,-110,o),
(140,-79,cs),
(140,-44,ls),
(140,-28,o),
(126,-23,o),
(108,-23,cs),
(90,-23,o),
(75,-28,o),
(75,-44,cs),
(75,-72,ls),
(75,-151,o),
(146,-180,o),
(226,-180,cs),
(306,-180,o),
(379,-151,o),
(379,-72,cs),
(379,216,ls,{
name = hr00;
})
);
},
{
closed = 1;
nodes = (
(140,254,o),
(184,265,o),
(229,265,cs),
(273,265,o),
(315,254,o),
(315,223,cs),
(315,79,l),
(207,95,ls),
(166,101,o),
(140,113,o),
(140,138,cs),
(140,223,l)
);
}
);
width = 470;
}
);
unicode = 8329;
},
{
glyphname = period;
layers = (
{
layerId = master01;
shapes = (
{
closed = 1;
nodes = (
(143,110,o),
(129,118,o),
(100,118,cs),
(72,118,o),
(58,110,o),
(58,94,cs),
(58,9,ls),
(58,-7,o),
(72,-15,o),
(101,-15,cs),
(129,-15,o),
(143,-7,o),
(143,9,cs),
(143,94,l,{
name = hr00;
})
);
}
);
width = 201;
}
);
unicode = 46;
},
{
glyphname = comma;
layers = (
{
layerId = master01;
shapes = (
{
closed = 1;
nodes = (
(143,110,o),
(129,118,o),
(100,118,cs),
(72,118,o),
(58,110,o),
(58,94,cs),
(58,22,ls),
(58,-2,o),
(82,-14,o),
(82,-36,cs,{
name = hr01;
}),
(82,-42,o),
(81,-46,o),
(76,-61,cs),
(61,-101,ls),
(59,-105,o),
(59,-107,o),
(59,-110,cs),
(59,-119,o),
(84,-133,o),
(101,-133,cs),
(108,-133,o),
(114,-130,o),
(116,-124,cs),
(125,-100,ls),
(137,-65,o),
(143,-39,o),
(143,-17,cs),
(143,94,ls)
);
}
);
width = 201;
}
);
unicode = 44;
},
{
glyphname = ellipsis;
layers = (
{
layerId = master01;
shapes = (
{
closed = 1;
nodes = (
(151,135,o),
(129,142,o),
(100,142,cs),
(72,142,o),
(50,135,o),
(50,114,cs),
(50,13,ls),
(50,-8,o),
(72,-15,o),
(101,-15,cs),
(129,-15,o),
(151,-8,o),
(151,13,cs),
(151,114,l,{
name = hr00;
})
);
},
{
closed = 1;
nodes = (
(352,135,o),
(330,142,o),
(301,142,cs),
(273,142,o),
(251,135,o),
(251,114,cs),
(251,13,ls),
(251,-8,o),
(273,-15,o),
(302,-15,cs),
(330,-15,o),
(352,-8,o),
(352,13,cs),
(352,114,l)
);
},
{
closed = 1;
nodes = (
(553,135,o),
(531,142,o),
(502,142,cs),
(474,142,o),
(452,135,o),
(452,114,cs),
(452,13,ls),
(452,-8,o),
(474,-15,o),
(503,-15,cs),
(531,-15,o),
(553,-8,o),
(553,13,cs),
(553,114,l)
);
}
);
width = 603;
}
);
unicode = 8230;
},
{
glyphname = exclam;
layers = (
{
layerId = master01;
shapes = (
{
closed = 1;
nodes = (
(200,807,o),
(178,815,o),
(150,815,cs),
(124,815,o),
(100,807,o),
(100,787,cs),
(100,787,o),
(109,526,o),
(117,269,c),
(117,255,o),
(131,247,o),
(150,247,cs),
(170,247,o),
(183,255,o),
(183,269,cs),
(200,786,ls,{
name = hr00;
})
);
},
{
closed = 1;
nodes = (
(193,112,o),
(175,118,o),
(150,118,cs),
(126,118,o),
(108,112,o),
(108,94,cs),
(108,9,ls),
(108,-9,o),
(126,-15,o),
(151,-15,cs),
(175,-15,o),
(193,-9,o),
(193,9,cs),
(193,94,l)
);
}
);
width = 301;
}
);
unicode = 33;
},
{
glyphname = exclamdown;
layers = (
{
layerId = master01;
shapes = (
{
closed = 1;
nodes = (
(183,345,o),
(170,353,o),
(150,353,cs),
(131,353,o),
(117,345,o),
(117,331,c),
(109,74,o),
(100,-187,o),
(100,-187,cs),
(100,-207,o),
(124,-215,o),
(150,-215,cs),
(178,-215,o),
(200,-207,o),
(200,-186,cs),
(183,331,l,{
name = hr00;
})
);
},
{
closed = 1;
nodes = (
(193,609,o),
(175,615,o),
(151,615,cs),
(126,615,o),
(108,609,o),
(108,591,cs),
(108,506,ls),
(108,488,o),
(126,482,o),
(150,482,cs),
(175,482,o),
(193,488,o),
(193,506,c),
(193,591,l)
);
}
);
width = 301;
}
);
unicode = 161;
},
{
glyphname = question;
layers = (
{
layerId = master01;
shapes = (
{
closed = 1;
nodes = (
(259,112,o),
(241,118,o),
(216,118,cs),
(192,118,o),
(174,112,o),
(174,94,cs),
(174,9,ls),
(174,-9,o),
(192,-15,o),
(217,-15,cs),
(241,-15,o),
(259,-9,o),
(259,9,cs),
(259,94,ls,{
name = hr00;
})
);
},
{
closed = 1;
nodes = (
(342,419,o),
(417,438,o),
(417,552,cs),
(417,657,ls),
(417,774,o),
(312,815,o),
(217,815,cs),
(121,815,o),
(20,774,o),
(20,657,cs),
(20,613,ls),
(20,596,o),
(38,590,o),
(60,590,cs),
(83,590,o),
(100,596,o),
(100,613,cs),
(100,667,ls),
(100,725,o),
(156,745,o),
(217,745,cs),
(277,745,o),
(337,725,o),
(337,667,cs),
(337,544,ls),
(337,496,o),
(303,482,o),
(244,466,cs),
(177,448,l),
(183,269,ls),
(183,255,o),
(197,247,o),
(216,247,cs),
(236,247,o),
(249,255,o),
(249,269,cs),
(252,395,l)
);
}
);
width = 467;
}
);
unicode = 63;
},
{
glyphname = questiondown;
layers = (
{
layerId = master01;
shapes = (
{
closed = 1;
nodes = (
(208,488,o),
(226,482,o),
(251,482,cs),
(275,482,o),
(293,488,o),
(293,506,cs),
(293,591,ls),
(293,609,o),
(275,615,o),
(250,615,cs),
(226,615,o),
(208,609,o),
(208,591,cs),
(208,506,ls,{
name = hr00;
})
);
},
{
closed = 1;
nodes = (
(125,181,o),
(50,162,o),
(50,48,cs),
(50,-57,ls),
(50,-174,o),
(155,-215,o),
(250,-215,cs),
(346,-215,o),
(447,-174,o),
(447,-57,cs),
(447,-13,ls),
(447,4,o),
(429,10,o),
(407,10,cs),
(384,10,o),
(367,4,o),
(367,-13,cs),
(367,-67,ls),
(367,-125,o),
(311,-145,o),
(250,-145,cs),
(190,-145,o),
(130,-125,o),
(130,-67,cs),
(130,56,ls),
(130,104,o),
(164,118,o),
(223,134,cs),
(290,152,l),
(284,331,ls),
(284,345,o),
(270,353,o),
(251,353,cs),
(231,353,o),
(218,345,o),
(218,331,cs),
(215,205,l)
);
}
);
width = 467;
}
);
unicode = 191;
},
{
glyphname = asterisk;
layers = (
{
layerId = master01;
shapes = (
{
closed = 1;
nodes = (
(149,713,o),
(145,713,o),
(142,713,cs),
(124,713,o),
(100,680,o),
(100,657,cs),
(100,649,o),
(103,642,o),
(111,638,cs),
(220,587,ls),
(229,583,o),
(232,582,o),
(236,582,cs),
(251,582,o),
(265,606,o),
(265,623,cs),
(265,629,o),
(265,632,o),
(257,638,cs),
(154,709,ls,{
name = hr00;
})
);
},
{
closed = 1;
nodes = (
(288,802,o),
(267,795,o),
(267,778,cs),
(267,778,o),
(267,777,o),
(278,650,cs),
(279,637,o),
(292,630,o),
(309,630,cs),
(325,630,o),
(339,637,o),
(340,650,cs),
(351,777,o),
(351,778,o),
(351,778,cs),
(351,795,o),
(330,802,o),
(309,802,cs)
);
},
{
closed = 1;
nodes = (
(353,632,o),
(353,629,o),
(353,623,cs),
(353,606,o),
(367,582,o),
(382,582,cs),
(386,582,o),
(389,583,o),
(398,587,cs),
(507,638,ls),
(515,642,o),
(518,649,o),
(518,657,cs),
(518,680,o),
(494,713,o),
(476,713,cs),
(473,713,o),
(468,713,o),
(464,709,cs),
(361,638,l)
);
},
{
closed = 1;
nodes = (
(265,511,o),
(265,515,o),
(265,521,cs),
(265,538,o),
(251,562,o),
(236,562,cs),
(232,562,o),
(229,561,o),
(220,557,cs),
(111,506,ls),
(103,502,o),
(100,495,o),
(100,487,cs),
(100,464,o),
(124,431,o),
(142,431,cs),
(145,431,o),
(149,431,o),
(154,434,cs),
(257,506,l)
);
},
{
closed = 1;
nodes = (
(330,342,o),
(351,349,o),
(351,366,c),
(351,366,o),
(351,367,o),
(340,494,cs),
(339,507,o),
(325,514,o),
(309,514,cs),
(292,514,o),
(279,507,o),
(278,494,cs),
(267,367,o),
(267,366,o),
(267,366,cs),
(267,349,o),
(288,342,o),
(309,342,c)
);
},
{
closed = 1;
nodes = (
(468,431,o),
(473,431,o),
(476,431,cs),
(494,431,o),
(518,464,o),
(518,487,cs),
(518,495,o),
(515,502,o),
(507,506,cs),
(398,557,ls),
(389,561,o),
(386,562,o),
(382,562,cs),
(367,562,o),
(353,538,o),
(353,521,cs),
(353,515,o),
(353,511,o),
(361,506,cs),
(464,434,l)
);
}
);
width = 618;
}
);
unicode = 42;
},
{
glyphname = numbersign;
layers = (
{
layerId = master01;
shapes = (
{
closed = 1;
nodes = (
(19,516,o),
(14,501,o),
(14,481,cs),
(14,462,o),
(19,446,o),
(34,446,cs),
(155,446,l),
(125,296,l),
(-11,296,ls),
(-26,296,o),
(-31,281,o),
(-31,261,cs),
(-31,242,o),
(-26,226,o),
(-11,226,cs),
(110,226,l),
(68,19,l),
(65,8,o),
(64,4,o),
(64,2,cs),
(64,-10,o),
(77,-15,o),
(95,-15,cs),
(116,-15,o),
(132,-9,o),
(137,8,c),
(181,226,l),
(360,226,l),
(318,19,l),
(315,8,o),
(314,4,o),
(314,2,cs),
(314,-10,o),
(327,-15,o),
(345,-15,cs),
(366,-15,o),
(382,-9,o),
(387,8,c),
(431,226,l),
(567,226,ls),
(582,226,o),
(587,241,o),
(587,261,cs),
(587,280,o),
(582,296,o),
(567,296,cs),
(446,296,l),
(476,446,l),
(611,446,ls),
(626,446,o),
(631,461,o),
(631,481,cs),
(631,500,o),
(626,516,o),
(611,516,cs),
(491,516,l),
(533,721,l),
(536,732,o),
(536,736,o),
(536,738,cs),
(536,750,o),
(524,755,o),
(506,755,cs),
(485,755,o),
(468,749,o),
(464,732,cs),
(420,516,l),
(241,516,l),
(283,721,l),
(286,732,o),
(286,736,o),
(286,738,cs),
(286,750,o),
(274,755,o),
(256,755,cs),
(235,755,o),
(219,749,o),
(214,732,c),
(170,516,l),
(34,516,ls,{
name = hr00;
})
);
},
{
closed = 1;
nodes = (
(405,446,l),
(375,296,l),
(196,296,l),
(226,446,l)
);
}
);
width = 600;
}
);
unicode = 35;
},
{
glyphname = slash;
layers = (
{
layerId = master01;
shapes = (
{
closed = 1;
nodes = (
(346,821,o),
(347,826,o),
(347,828,cs),
(347,839,o),
(336,845,o),
(316,845,cs),
(292,845,o),
(278,837,o),
(274,822,cs),
(34,-71,ls),
(31,-84,o),
(30,-86,o),
(30,-88,cs),
(30,-99,o),
(41,-105,o),
(61,-105,cs),
(84,-105,o),
(98,-97,o),
(103,-82,cs),
(343,811,ls,{
name = hr00;
})
);
}
);
width = 377;
}
);
unicode = 47;
},
{
glyphname = backslash;
layers = (
{
layerId = master01;
shapes = (
{
closed = 1;
nodes = (
(279,-99,o),
(295,-105,o),
(316,-105,cs),
(334,-105,o),
(347,-100,o),
(347,-88,cs),
(347,-86,o),
(346,-82,o),
(343,-71,cs),
(103,822,ls),
(98,839,o),
(82,845,o),
(61,845,cs),
(43,845,o),
(30,840,o),
(30,828,cs),
(30,826,o),
(31,822,o),
(34,811,cs),
(274,-82,ls,{
name = hr00;
})
);
}
);
width = 377;
}
);
unicode = 92;
},
{
glyphname = hyphen;
layers = (
{
layerId = master01;
shapes = (
{
closed = 1;
nodes = (
(57,359,o),
(50,347,o),
(50,324,cs),
(50,301,o),
(57,289,o),
(70,289,cs),
(395,289,ls),
(408,289,o),
(415,301,o),
(415,324,cs),
(415,347,o),
(408,359,o),
(395,359,cs),
(70,359,ls,{
name = hr00;
})
);
}
);
width = 465;
}
);
unicode = 45;
},
{
glyphname = endash;
layers = (
{
layerId = master01;
shapes = (
{
closed = 1;
nodes = (
(95,359,o),
(90,344,o),
(90,324,cs),
(90,305,o),
(95,289,o),
(110,289,cs),
(543,289,ls),
(558,289,o),
(563,304,o),
(563,324,cs),
(563,343,o),
(558,359,o),
(543,359,cs),
(110,359,ls,{
name = hr00;
})
);
}
);
width = 653;
}
);
unicode = 8211;
},
{
glyphname = emdash;
layers = (
{
layerId = master01;
shapes = (
{
closed = 1;
nodes = (
(95,359,o),
(90,344,o),
(90,324,cs),
(90,305,o),
(95,289,o),
(110,289,cs),
(856,289,ls),
(871,289,o),
(876,304,o),
(876,324,cs),
(876,343,o),
(871,359,o),
(856,359,cs),
(110,359,ls,{
name = hr00;
})
);
}
);
width = 966;
}
);
unicode = 8212;
},
{
glyphname = underscore;
layers = (
{
layerId = master01;
shapes = (
{
closed = 1;
nodes = (
(55,0,o),
(50,-15,o),
(50,-35,cs),
(50,-54,o),
(55,-70,o),
(70,-70,cs),
(495,-70,ls),
(510,-70,o),
(515,-55,o),
(515,-35,cs),
(515,-16,o),
(510,0,o),
(495,0,cs),
(70,0,ls,{
name = hr00;
})
);
}
);
width = 565;
}
);
unicode = 95;
},
{
glyphname = parenleft;
layers = (
{
layerId = master01;
shapes = (
{
closed = 1;
nodes = (
(200,519,o),
(247,676,o),
(328,800,cs),
(329,802,o),
(330,805,o),
(330,807,cs),
(330,816,o),
(320,825,o),
(301,834,cs),
(288,838,o),
(280,840,o),
(274,840,cs),
(265,840,o),
(259,837,o),
(255,830,cs),
(178,725,o),
(120,527,o),
(120,370,cs),
(120,213,o),
(178,15,o),
(255,-90,cs),
(259,-97,o),
(265,-100,o),
(274,-100,cs),
(280,-100,o),
(288,-98,o),
(301,-94,cs),
(320,-86,o),
(330,-77,o),
(330,-67,cs),
(330,-65,o),
(329,-62,o),
(328,-60,cs),
(247,64,o),
(200,222,o),
(200,370,cs,{
name = hr00;
})
);
}
);
width = 360;
}
);
unicode = 40;
},
{
glyphname = parenright;
layers = (
{
layerId = master01;
shapes = (
{
closed = 1;
nodes = (
(160,222,o),
(113,64,o),
(32,-60,cs),
(31,-62,o),
(30,-65,o),
(30,-67,cs),
(30,-77,o),
(40,-86,o),
(59,-94,cs),
(71,-98,o),
(80,-100,o),
(86,-100,cs),
(94,-100,o),
(100,-97,o),
(105,-90,cs),
(182,15,o),
(240,213,o),
(240,370,cs),
(240,527,o),
(182,725,o),
(105,830,cs),
(100,837,o),
(94,840,o),
(86,840,cs),
(80,840,o),
(71,838,o),
(59,834,cs),
(40,825,o),
(30,816,o),
(30,807,cs),
(30,805,o),
(31,802,o),
(32,800,cs),
(113,676,o),
(160,519,o),
(160,370,cs,{
name = hr00;
})
);
}
);
width = 360;
}
);
unicode = 41;
},
{
glyphname = braceleft;
layers = (
{
layerId = master01;
shapes = (
{
closed = 1;
nodes = (
(214,437,o),
(192,396,o),
(146,381,c),
(192,363,o),
(214,324,o),
(214,258,cs),
(214,58,ls),
(214,-6,o),
(240,-30,o),
(310,-30,cs),
(323,-30,o),
(330,-42,o),
(330,-65,cs),
(330,-88,o),
(323,-100,o),
(310,-100,cs),
(187,-100,o),
(134,-53,o),
(134,58,cs),
(134,258,ls),
(134,317,o),
(124,336,o),
(86,346,cs),
(71,350,ls),
(57,353,o),
(51,363,o),
(51,381,cs),
(51,398,o),
(57,408,o),
(71,412,cs),
(86,416,ls),
(123,425,o),
(134,445,o),
(134,504,cs),
(134,682,ls),
(134,793,o),
(187,840,o),
(310,840,cs),
(323,840,o),
(330,828,o),
(330,805,cs),
(330,782,o),
(323,770,o),
(310,770,cs),
(240,770,o),
(214,746,o),
(214,682,cs),
(214,504,ls,{
name = hr00;
})
);
}
);
width = 360;
}
);
unicode = 123;
},
{
glyphname = braceright;
layers = (
{
layerId = master01;
shapes = (
{
closed = 1;
nodes = (
(146,437,o),
(167,398,o),
(217,381,c),
(167,364,o),
(146,325,o),
(146,258,cs),
(146,58,ls),
(146,-6,o),
(120,-30,o),
(50,-30,cs),
(37,-30,o),
(30,-42,o),
(30,-65,cs),
(30,-88,o),
(37,-100,o),
(50,-100,cs),
(173,-100,o),
(226,-53,o),
(226,58,cs),
(226,258,ls),
(226,317,o),
(236,336,o),
(274,346,cs),
(289,350,ls),
(303,353,o),
(309,363,o),
(309,381,cs),
(309,398,o),
(303,408,o),
(289,412,cs),
(274,416,ls),
(237,425,o),
(226,445,o),
(226,504,cs),
(226,682,ls),
(226,793,o),
(173,840,o),
(50,840,cs),
(37,840,o),
(30,828,o),
(30,805,cs),
(30,782,o),
(37,770,o),
(50,770,cs),
(120,770,o),
(146,746,o),
(146,682,cs),
(146,504,ls,{
name = hr00;
})
);
}
);
width = 360;
}
);
unicode = 125;
},
{
glyphname = bracketleft;
layers = (
{
layerId = master01;
shapes = (
{
closed = 1;
nodes = (
(200,770,l),
(310,770,ls),
(323,770,o),
(330,782,o),
(330,805,cs),
(330,828,o),
(323,840,o),
(310,840,cs),
(180,840,ls),
(131,840,o),
(120,826,o),
(120,765,cs),
(120,-25,ls),
(120,-86,o),
(131,-100,o),
(180,-100,cs),
(310,-100,ls),
(323,-100,o),
(330,-88,o),
(330,-65,cs),
(330,-42,o),
(323,-30,o),
(310,-30,cs),
(200,-30,l,{
name = hr00;
})
);
}
);
width = 360;
}
);
unicode = 91;
},
{
glyphname = bracketright;
layers = (
{
layerId = master01;
shapes = (
{
closed = 1;
nodes = (
(37,-30,o),
(30,-42,o),
(30,-65,cs),
(30,-88,o),
(37,-100,o),
(50,-100,cs),
(180,-100,ls),
(229,-100,o),
(240,-86,o),
(240,-25,cs),
(240,765,ls),
(240,826,o),
(229,840,o),
(180,840,cs),
(50,840,ls),
(37,840,o),
(30,828,o),
(30,805,cs),
(30,782,o),
(37,770,o),
(50,770,cs),
(160,770,l),
(160,-30,l),
(50,-30,ls,{
name = hr00;
})
);
}
);
width = 360;
}
);
unicode = 93;
},
{
glyphname = quotedblleft;
layers = (
{
layerId = master01;
shapes = (
{
closed = 1;
nodes = (
(228,533,o),
(242,525,o),
(271,525,cs),
(299,525,o),
(313,533,o),
(313,549,cs),
(313,621,ls),
(313,645,o),
(289,657,o),
(289,679,cs,{
name = hr01;
}),
(289,685,o),
(290,689,o),
(295,704,cs),
(310,744,ls),
(311,748,o),
(312,750,o),
(312,753,cs),
(312,762,o),
(287,776,o),
(270,776,cs),
(262,776,o),
(257,773,o),
(255,767,cs),
(246,743,ls),
(234,708,o),
(228,682,o),
(228,660,cs),
(228,549,ls)
);
},
{
closed = 1;
nodes = (
(58,533,o),
(72,525,o),
(101,525,cs),
(129,525,o),
(143,533,o),
(143,549,cs),
(143,621,ls),
(143,645,o),
(119,657,o),
(119,679,cs,{
name = hr02;
}),
(119,685,o),
(120,689,o),
(125,704,cs),
(140,744,ls),
(141,748,o),
(142,750,o),
(142,753,cs),
(142,762,o),
(117,776,o),
(100,776,cs),
(92,776,o),
(87,773,o),
(85,767,cs),
(76,743,ls),
(64,708,o),
(58,682,o),
(58,660,cs),
(58,549,ls)
);
}
);
width = 371;
}
);
unicode = 8220;
},
{
glyphname = quotedblright;
layers = (
{
layerId = master01;
shapes = (
{
closed = 1;
nodes = (
(143,782,o),
(129,790,o),
(100,790,cs),
(72,790,o),
(58,782,o),
(58,766,cs),
(58,694,ls),
(58,670,o),
(82,658,o),
(82,636,cs,{
name = hr01;
}),
(82,630,o),
(81,626,o),
(76,611,cs),
(61,571,ls),
(59,567,o),
(59,565,o),
(59,562,cs),
(59,553,o),
(84,539,o),
(101,539,cs),
(108,539,o),
(114,542,o),
(116,548,cs),
(125,572,ls),
(137,607,o),
(143,633,o),
(143,655,cs),
(143,766,ls)
);
},
{
closed = 1;
nodes = (
(313,782,o),
(299,790,o),
(270,790,cs),
(242,790,o),
(228,782,o),
(228,766,cs),
(228,694,ls),
(228,670,o),
(252,658,o),
(252,636,cs,{
name = hr02;
}),
(252,630,o),
(251,626,o),
(246,611,cs),
(231,571,ls),
(229,567,o),
(229,565,o),
(229,562,cs),
(229,553,o),
(254,539,o),
(271,539,cs),
(278,539,o),
(284,542,o),
(286,548,cs),
(295,572,ls),
(307,607,o),
(313,633,o),
(313,655,cs),
(313,766,ls)
);
}
);
width = 371;
}
);
unicode = 8221;
},
{
glyphname = quoteleft;
layers = (
{
layerId = master01;
shapes = (
{
closed = 1;
nodes = (
(58,533,o),
(72,525,o),
(101,525,cs),
(129,525,o),
(143,533,o),
(143,549,cs),
(143,621,ls),
(143,645,o),
(119,657,o),
(119,679,cs,{
name = hr01;
}),
(119,685,o),
(120,689,o),
(125,704,cs),
(140,744,ls),
(141,748,o),
(142,750,o),
(142,753,cs),
(142,762,o),
(117,776,o),
(100,776,cs),
(92,776,o),
(87,773,o),
(85,767,cs),
(76,743,ls),
(64,708,o),
(58,682,o),
(58,660,cs),
(58,549,ls)
);
}
);
width = 201;
}
);
unicode = 8216;
},
{
glyphname = quoteright;
layers = (
{
layerId = master01;
shapes = (
{
closed = 1;
nodes = (
(143,782,o),
(129,790,o),
(100,790,cs),
(72,790,o),
(58,782,o),
(58,766,cs),
(58,694,ls),
(58,670,o),
(82,658,o),
(82,636,cs,{
name = hr01;
}),
(82,630,o),
(81,626,o),
(76,611,cs),
(61,571,ls),
(59,567,o),
(59,565,o),
(59,562,cs),
(59,553,o),
(84,539,o),
(101,539,cs),
(108,539,o),
(114,542,o),
(116,548,cs),
(125,572,ls),
(137,607,o),
(143,633,o),
(143,655,cs),
(143,766,ls)
);
}
);
width = 201;
}
);
unicode = 8217;
},
{
glyphname = guillemotleft;
layers = (
{
layerId = master01;
shapes = (
{
closed = 1;
nodes = (
(74,395,o),
(70,378,o),
(70,360,cs),
(70,341,o),
(75,322,o),
(84,309,cs),
(235,108,ls),
(239,104,o),
(243,103,o),
(247,103,cs),
(261,103,o),
(300,130,o),
(300,146,cs),
(300,150,o),
(299,154,o),
(295,158,cs),
(154,359,l),
(295,560,ls),
(298,563,o),
(300,567,o),
(300,571,cs),
(300,586,o),
(263,615,o),
(247,615,cs),
(242,615,o),
(238,613,o),
(235,610,cs),
(84,409,ls,{
name = hr00;
})
);
},
{
closed = 1;
nodes = (
(283,395,o),
(279,378,o),
(279,360,cs),
(279,341,o),
(284,322,o),
(293,309,cs),
(444,108,l),
(448,104,o),
(452,103,o),
(456,103,cs),
(470,103,o),
(509,130,o),
(509,146,cs),
(509,150,o),
(508,154,o),
(504,158,c),
(363,359,l),
(504,560,l),
(507,563,o),
(509,567,o),
(509,571,cs),
(509,586,o),
(472,615,o),
(456,615,cs),
(451,615,o),
(447,613,o),
(444,610,cs),
(293,409,ls)
);
}
);
width = 579;
}
);
unicode = 171;
},
{
glyphname = guillemotright;
layers = (
{
layerId = master01;
shapes = (
{
closed = 1;
nodes = (
(341,613,o),
(337,615,o),
(332,615,cs),
(316,615,o),
(279,586,o),
(279,571,cs),
(279,567,o),
(281,563,o),
(284,560,cs),
(425,359,l),
(284,158,ls),
(280,154,o),
(279,150,o),
(279,146,cs),
(279,130,o),
(318,103,o),
(332,103,cs),
(336,103,o),
(340,104,o),
(344,108,cs),
(495,309,ls),
(504,322,o),
(509,341,o),
(509,360,cs),
(509,378,o),
(505,395,o),
(495,409,cs),
(344,610,l,{
name = hr00;
})
);
},
{
closed = 1;
nodes = (
(132,613,o),
(128,615,o),
(123,615,cs),
(107,615,o),
(70,586,o),
(70,571,cs),
(70,567,o),
(72,563,o),
(75,560,c),
(216,359,l),
(75,158,l),
(71,154,o),
(70,150,o),
(70,146,cs),
(70,130,o),
(109,103,o),
(123,103,cs),
(127,103,o),
(131,104,o),
(135,108,c),
(286,309,ls),
(295,322,o),
(300,341,o),
(300,360,cs),
(300,378,o),
(296,395,o),
(286,409,cs),
(135,610,l)
);
}
);
width = 579;
}
);
unicode = 187;
},
{
glyphname = guilsinglleft;
layers = (
{
layerId = master01;
shapes = (
{
closed = 1;
nodes = (
(74,395,o),
(70,378,o),
(70,360,cs),
(70,341,o),
(75,322,o),
(84,309,cs),
(235,108,l),
(239,104,o),
(243,103,o),
(247,103,cs),
(261,103,o),
(300,130,o),
(300,146,cs),
(300,150,o),
(299,154,o),
(295,158,c),
(154,359,l),
(295,560,l),
(298,563,o),
(300,567,o),
(300,571,cs),
(300,586,o),
(263,615,o),
(247,615,cs),
(242,615,o),
(238,613,o),
(235,610,cs),
(84,409,ls,{
name = hr00;
})
);
}
);
width = 370;
}
);
unicode = 8249;
},
{
glyphname = guilsinglright;
layers = (
{
layerId = master01;
shapes = (
{
closed = 1;
nodes = (
(132,613,o),
(128,615,o),
(123,615,cs),
(107,615,o),
(70,586,o),
(70,571,cs),
(70,567,o),
(72,563,o),
(75,560,cs),
(216,359,l),
(75,158,ls),
(71,154,o),
(70,150,o),
(70,146,cs),
(70,130,o),
(109,103,o),
(123,103,cs),
(127,103,o),
(131,104,o),
(135,108,cs),
(286,309,ls),
(295,322,o),
(300,341,o),
(300,360,cs),
(300,378,o),
(296,395,o),
(286,409,cs),
(135,610,l,{
name = hr00;
})
);
}
);
width = 370;
}
);
unicode = 8250;
},
{
glyphname = quotedbl;
layers = (
{
layerId = master01;
shapes = (
{
closed = 1;
nodes = (
(134,773,o),
(119,781,o),
(92,781,cs),
(65,781,o),
(50,773,o),
(50,758,cs),
(50,758,o),
(50,757,o),
(58,543,c),
(58,532,o),
(71,525,o),
(92,525,cs),
(113,525,o),
(126,532,o),
(126,543,cs),
(134,757,ls,{
name = hr00;
})
);
},
{
closed = 1;
nodes = (
(304,773,o),
(289,781,o),
(262,781,cs),
(235,781,o),
(220,773,o),
(220,758,cs),
(220,758,o),
(220,757,o),
(228,543,cs),
(228,532,o),
(241,525,o),
(262,525,cs),
(283,525,o),
(296,532,o),
(296,543,cs),
(304,757,l)
);
}
);
width = 354;
}
);
unicode = 34;
},
{
glyphname = quotesingle;
layers = (
{
layerId = master01;
shapes = (
{
closed = 1;
nodes = (
(134,773,o),
(119,781,o),
(92,781,cs),
(65,781,o),
(50,773,o),
(50,758,cs),
(50,758,o),
(50,757,o),
(58,543,c),
(58,532,o),
(71,525,o),
(92,525,cs),
(113,525,o),
(126,532,o),
(126,543,cs),
(134,757,ls,{
name = hr00;
})
);
}
);
width = 184;
}
);
unicode = 39;
},
{
glyphname = florin;
layers = (
{
layerId = master01;
shapes = (
{
closed = 1;
nodes = (
(184,-127,o),
(140,-149,o),
(140,-161,cs),
(140,-177,o),
(174,-200,o),
(191,-200,cs),
(219,-200,o),
(266,-142,o),
(270,-53,cs),
(300,574,ls,{
name = hr01;
}),
(303,640,o),
(320,670,o),
(378,670,cs),
(470,670,ls),
(485,670,o),
(490,686,o),
(490,705,cs),
(490,725,o),
(485,740,o),
(470,740,cs),
(378,740,ls,{
name = hr02;
}),
(261,740,o),
(225,684,o),
(220,574,cs),
(190,-43,l)
);
},
{
pos = (-17,0);
ref = ethbar;
}
);
width = 600;
}
);
unicode = 402;
},
{
glyphname = apple;
layers = (
{
layerId = master01;
shapes = (
{
closed = 1;
nodes = (
(559,-88,o),
(563,-88,o),
(566,-88,cs),
(574,-88,o),
(581,-89,o),
(589,-89,cs),
(615,-89,o),
(617,-70,o),
(634,-60,cs),
(649,-52,o),
(670,-51,o),
(683,-42,cs),
(696,-33,o),
(701,-11,o),
(713,1,cs),
(723,11,o),
(739,12,o),
(748,23,cs),
(759,36,o),
(758,60,o),
(766,74,cs),
(776,91,o),
(800,92,o),
(800,120,cs),
(800,130,o),
(798,141,o),
(798,152,cs),
(798,177,o),
(820,180,o),
(823,200,c),
(823,214,o),
(812,229,o),
(812,244,cs),
(812,257,o),
(823,269,o),
(823,283,cs),
(823,305,o),
(799,319,o),
(799,344,cs),
(799,352,o),
(800,360,o),
(800,369,cs),
(800,397,o),
(775,400,o),
(764,418,cs),
(758,428,o),
(763,450,o),
(757,460,cs),
(746,479,o),
(720,483,o),
(706,496,cs),
(694,508,o),
(696,526,o),
(683,535,cs),
(669,545,o),
(653,542,o),
(638,550,cs),
(619,560,o),
(617,586,o),
(590,586,cs),
(580,586,o),
(570,583,o),
(562,583,cs),
(538,583,o),
(531,608,o),
(505,608,cs),
(491,608,o),
(474,596,o),
(460,596,cs),
(447,596,o),
(429,608,o),
(416,608,cs),
(394,608,o),
(386,585,o),
(361,585,cs),
(352,585,o),
(343,587,o),
(335,587,cs),
(310,586,o),
(303,558,o),
(286,549,cs),
(270,541,o),
(248,543,o),
(235,532,cs),
(224,522,o),
(220,501,o),
(210,491,cs),
(199,480,o),
(178,480,o),
(170,467,cs),
(163,456,o),
(166,435,o),
(159,424,cs),
(149,407,o),
(124,401,o),
(124,376,cs),
(124,368,o),
(125,359,o),
(125,351,cs),
(125,332,o),
(100,311,o),
(100,290,cs),
(100,275,o),
(112,265,o),
(112,248,cs),
(112,233,o),
(100,218,o),
(100,204,cs),
(100,183,o),
(125,168,o),
(125,149,cs),
(125,141,o),
(122,133,o),
(122,124,cs),
(122,98,o),
(148,87,o),
(156,75,cs),
(167,57,o),
(160,46,o),
(171,28,cs),
(181,12,o),
(197,15,o),
(210,4,cs),
(223,-7,o),
(222,-31,o),
(240,-42,cs),
(256,-52,o),
(263,-43,o),
(286,-55,cs),
(299,-62,o),
(311,-91,o),
(337,-91,cs),
(344,-91,o),
(353,-89,o),
(361,-89,cs),
(385,-89,o),
(396,-114,o),
(416,-114,cs),
(431,-114,o),
(446,-102,o),
(462,-102,cs),
(477,-102,o),
(493,-112,o),
(508,-112,cs),
(525,-112,o),
(538,-94,o),
(556,-89,cs)
);
},
{
closed = 1;
nodes = (
(517,0,o),
(507,-13,o),
(495,-13,cs),
(484,-13,o),
(473,-6,o),
(462,-6,cs,{
name = hr01;
}),
(450,-6,o),
(438,-15,o),
(426,-15,c,{
name = hr02;
}),
(412,-13,o),
(405,3,o),
(386,3,cs),
(381,3,o),
(376,2,o),
(371,2,cs),
(352,2,o),
(345,23,o),
(334,28,cs),
(317,37,o),
(312,29,o),
(301,37,cs),
(288,45,o),
(289,63,o),
(279,71,cs),
(270,79,o),
(258,77,o),
(251,88,cs),
(243,101,o),
(248,110,o),
(240,123,cs),
(235,132,o),
(215,139,o),
(215,158,cs),
(215,163,o),
(217,169,o),
(217,174,cs),
(217,189,o),
(200,200,o),
(200,215,cs),
(200,226,o),
(208,237,o),
(208,248,cs),
(208,260,o),
(200,267,o),
(200,278,cs),
(200,294,o),
(217,308,o),
(217,324,cs),
(217,329,o),
(216,335,o),
(216,340,cs),
(216,359,o),
(235,363,o),
(242,376,cs),
(247,384,o),
(245,399,o),
(250,407,cs),
(257,416,o),
(271,416,o),
(279,424,cs),
(287,432,o),
(289,447,o),
(298,454,cs),
(307,462,o),
(323,460,o),
(334,466,cs),
(347,472,o),
(351,493,o),
(370,493,cs),
(376,493,o),
(381,492,o),
(387,492,cs),
(406,492,o),
(413,509,o),
(429,509,cs),
(439,509,o),
(451,500,o),
(461,500,cs),
(471,500,o),
(483,509,o),
(494,509,cs),
(513,509,o),
(516,491,o),
(535,491,cs),
(541,491,o),
(548,493,o),
(555,493,cs),
(575,493,o),
(576,474,o),
(589,467,cs),
(601,460,o),
(612,464,o),
(622,456,cs),
(632,449,o),
(630,436,o),
(639,428,cs),
(649,418,o),
(668,415,o),
(676,402,cs),
(680,394,o),
(677,379,o),
(681,371,cs),
(689,357,o),
(707,356,o),
(707,335,cs),
(707,329,o),
(706,323,o),
(706,318,cs),
(706,300,o),
(724,289,o),
(724,273,cs),
(724,264,o),
(716,254,o),
(716,245,cs),
(716,234,o),
(724,223,o),
(724,213,c),
(721,199,o),
(706,196,o),
(706,177,cs),
(706,171,o),
(707,164,o),
(707,157,cs),
(707,133,o),
(691,136,o),
(683,122,cs),
(677,111,o),
(677,94,o),
(670,84,cs),
(663,76,o),
(651,76,o),
(644,68,cs),
(636,60,o),
(632,45,o),
(622,38,cs),
(613,31,o),
(597,30,o),
(587,24,c),
(575,19,o),
(574,3,o),
(554,3,cs),
(549,3,o),
(544,4,o),
(539,4,cs),
(536,4,o),
(533,4,o),
(530,3,cs)
);
},
{
closed = 1;
nodes = (
(368,417,o),
(292,341,o),
(292,247,cs),
(292,153,o),
(368,77,o),
(462,77,cs),
(556,77,o),
(632,153,o),
(632,247,cs),
(632,341,o),
(556,417,o),
(462,417,cs)
);
},
{
closed = 1;
nodes = (
(505,117,l),
(420,117,l),
(420,292,l),
(366,292,l),
(366,360,l),
(557,360,l),
(557,292,l),
(505,292,l)
);
}
);
width = 923;
}
);
unicode = 63743;
},
{
glyphname = at;
layers = (
{
layerId = master01;
shapes = (
{
closed = 1;
nodes = (
(964,69,o),
(971,87,o),
(971,138,cs),
(971,529,ls),
(971,729,o),
(792,800,o),
(549,800,cs),
(308,800,o),
(110,729,o),
(110,529,cs),
(110,130,ls),
(110,-70,o),
(289,-141,o),
(532,-141,cs),
(949,-141,ls),
(965,-141,o),
(971,-124,o),
(971,-104,cs),
(971,-83,o),
(965,-66,o),
(949,-66,cs),
(532,-66,ls),
(335,-66,o),
(190,-15,o),
(190,130,cs),
(190,529,ls),
(190,674,o),
(352,725,o),
(549,725,cs),
(746,725,o),
(891,674,o),
(891,529,cs),
(891,137,l),
(784,137,ls),
(726,137,o),
(715,153,o),
(712,276,cs),
(707,464,ls),
(704,565,o),
(625,600,o),
(521,600,cs),
(407,600,ls),
(390,600,o),
(386,586,o),
(386,566,cs),
(386,547,o),
(390,532,o),
(407,532,cs),
(521,532,ls),
(582,532,o),
(629,516,o),
(630,472,cs),
(632,363,l),
(490,349,ls),
(389,339,o),
(352,315,o),
(352,213,cs),
(352,206,ls),
(352,104,o),
(394,69,o),
(496,69,cs),
(594,69,ls),
(610,69,o),
(616,84,o),
(616,103,cs),
(616,122,o),
(610,137,o),
(594,137,cs),
(496,137,ls),
(436,137,o),
(429,160,o),
(429,206,cs),
(429,213,ls),
(429,258,o),
(437,275,o),
(497,281,cs),
(634,295,l),
(635,267,ls),
(639,105,o),
(673,69,o),
(784,69,cs),
(911,69,ls,{
name = hr00;
})
);
}
);
width = 1081;
}
);
unicode = 64;
},
{
glyphname = ampersand;
layers = (
{
layerId = master01;
shapes = (
{
closed = 1;
nodes = (
(209,755,o),
(110,714,o),
(110,597,cs),
(110,504,ls),
(110,431,o),
(139,397,o),
(188,382,c),
(133,369,o),
(100,335,o),
(100,258,cs),
(100,143,ls),
(100,26,o),
(200,-15,o),
(323,-15,cs),
(387,-15,o),
(433,-4,o),
(463,23,c),
(463,-93,ls),
(463,-152,o),
(494,-210,o),
(522,-210,cs),
(539,-210,o),
(573,-187,o),
(573,-171,cs),
(573,-159,o),
(543,-137,o),
(543,-83,cs),
(543,346,l),
(683,346,ls),
(698,346,o),
(703,362,o),
(703,381,cs),
(703,400,o),
(698,416,o),
(683,416,cs),
(298,416,ls),
(229,416,o),
(190,446,o),
(190,504,cs),
(190,607,ls),
(190,665,o),
(251,685,o),
(327,685,cs),
(399,685,o),
(451,665,o),
(451,607,cs,{
name = hr01;
}),
(451,582,ls),
(451,565,o),
(469,559,o),
(491,559,cs),
(514,559,o),
(531,565,o),
(531,582,cs),
(531,597,ls),
(531,714,o),
(440,755,o),
(332,755,cs)
);
},
{
closed = 1;
nodes = (
(180,316,o),
(219,346,o),
(288,346,cs),
(463,346,l,{
name = hr02;
}),
(463,133,ls),
(463,75,o),
(405,55,o),
(325,55,cs),
(244,55,o),
(180,75,o),
(180,133,cs),
(180,258,ls)
);
}
);
width = 703;
}
);
unicode = 38;
},
{
glyphname = paragraph;
layers = (
{
layerId = master01;
shapes = (
{
closed = 1;
nodes = (
(483,744,o),
(387,785,o),
(267,785,cs),
(147,785,o),
(50,744,o),
(50,627,cs),
(50,478,ls),
(50,361,o),
(146,320,o),
(266,320,cs),
(403,320,l),
(403,-3,ls),
(403,-62,o),
(434,-120,o),
(462,-120,cs),
(479,-120,o),
(513,-97,o),
(513,-81,cs),
(513,-69,o),
(483,-47,o),
(483,7,cs),
(483,627,ls,{
name = hr00;
})
);
}
);
width = 593;
}
);
unicode = 182;
},
{
glyphname = section;
layers = (
{
layerId = master01;
shapes = (
{
closed = 1;
nodes = (
(420,-120,o),
(400,-150,o),
(342,-150,cs),
(110,-150,ls),
(95,-150,o),
(90,-166,o),
(90,-185,cs),
(90,-205,o),
(95,-220,o),
(110,-220,cs),
(342,-220,ls),
(459,-220,o),
(500,-165,o),
(500,-54,cs),
(500,-2,ls),
(500,52,o),
(483,84,o),
(453,106,c),
(486,131,o),
(500,172,o),
(500,236,cs),
(500,318,ls),
(500,435,o),
(421,452,o),
(304,476,cs),
(255,486,ls),
(198,498,o),
(177,516,o),
(177,592,cs),
(177,604,ls),
(177,670,o),
(197,700,o),
(255,700,cs),
(467,700,ls),
(482,700,o),
(487,716,o),
(487,735,cs),
(487,755,o),
(482,770,o),
(467,770,cs),
(255,770,ls),
(138,770,o),
(97,715,o),
(97,604,cs),
(97,590,ls),
(97,514,o),
(114,473,o),
(155,447,c),
(113,422,o),
(97,374,o),
(97,304,cs),
(97,270,ls),
(97,149,o),
(140,117,o),
(255,94,cs),
(304,84,ls),
(378,69,o),
(420,54,o),
(420,6,cs),
(420,-54,ls,{
name = hr00;
})
);
},
{
closed = 1;
nodes = (
(420,187,o),
(409,153,o),
(380,138,c),
(357,145,o),
(332,150,o),
(304,156,cs),
(255,166,ls),
(198,178,o),
(177,196,o),
(177,272,cs),
(177,324,ls),
(177,381,o),
(192,411,o),
(234,418,c),
(241,417,o),
(247,415,o),
(255,414,cs),
(304,404,ls),
(378,389,o),
(420,374,o),
(420,326,cs),
(420,236,ls)
);
}
);
width = 590;
}
);
unicode = 167;
},
{
glyphname = copyright;
layers = (
{
layerId = master01;
shapes = (
{
closed = 1;
nodes = (
(695,801,o),
(571,850,o),
(403,850,cs),
(237,850,o),
(100,801,o),
(100,663,cs),
(100,366,ls),
(100,228,o),
(227,177,o),
(395,177,cs),
(561,177,o),
(695,228,o),
(695,366,cs),
(695,663,ls,{
name = hr00;
})
);
},
{
closed = 1;
nodes = (
(645,257,o),
(533,222,o),
(395,222,cs),
(255,222,o),
(150,257,o),
(150,366,cs),
(150,663,ls),
(150,771,o),
(264,805,o),
(403,805,cs),
(542,805,o),
(645,771,o),
(645,663,cs),
(645,366,l)
);
},
{
closed = 1;
nodes = (
(304,677,o),
(345,688,o),
(396,688,cs),
(447,688,o),
(483,677,o),
(483,646,cs),
(483,599,ls),
(483,584,o),
(498,578,o),
(516,578,cs),
(534,578,o),
(548,584,o),
(548,599,cs),
(548,639,ls),
(548,718,o),
(482,747,o),
(396,747,cs),
(309,747,o),
(239,718,o),
(239,639,cs),
(239,389,ls),
(239,310,o),
(309,281,o),
(396,281,cs),
(482,281,o),
(548,310,o),
(548,389,cs),
(548,428,ls),
(548,444,o),
(534,450,o),
(516,450,cs),
(498,450,o),
(483,444,o),
(483,428,cs),
(483,382,ls),
(483,351,o),
(447,340,o),
(396,340,cs),
(345,340,o),
(304,351,o),
(304,382,cs),
(304,646,ls)
);
}
);
width = 795;
}
);
unicode = 169;
},
{
glyphname = registered;
layers = (
{
layerId = master01;
shapes = (
{
closed = 1;
nodes = (
(695,801,o),
(571,850,o),
(403,850,cs),
(237,850,o),
(100,801,o),
(100,663,cs),
(100,366,ls),
(100,228,o),
(227,177,o),
(395,177,cs),
(561,177,o),
(695,228,o),
(695,366,cs),
(695,663,ls,{
name = hr00;
})
);
},
{
closed = 1;
nodes = (
(358,520,o),
(354,509,o),
(354,492,cs),
(354,475,o),
(358,462,o),
(373,462,cs),
(404,462,ls),
(446,462,o),
(451,458,o),
(458,433,cs),
(492,308,ls),
(496,293,o),
(505,288,o),
(524,288,cs),
(540,288,o),
(555,292,o),
(555,308,cs),
(555,309,o),
(561,290,o),
(516,455,cs),
(512,470,o),
(507,483,o),
(499,492,c),
(530,503,o),
(548,526,o),
(548,570,cs),
(548,639,ls),
(548,718,o),
(484,747,o),
(403,747,cs),
(323,747,o),
(258,718,o),
(258,639,cs),
(258,310,ls),
(258,294,o),
(273,288,o),
(290,288,cs),
(309,288,o),
(323,294,o),
(323,310,cs),
(323,646,ls),
(323,677,o),
(358,688,o),
(403,688,cs),
(447,688,o),
(484,677,o),
(484,646,cs),
(484,563,ls),
(484,531,o),
(449,520,o),
(404,520,cs),
(373,520,ls)
);
},
{
closed = 1;
nodes = (
(645,257,o),
(533,222,o),
(395,222,cs),
(255,222,o),
(150,257,o),
(150,366,cs),
(150,663,ls),
(150,771,o),
(264,805,o),
(403,805,cs),
(542,805,o),
(645,771,o),
(645,663,cs),
(645,366,l)
);
}
);
width = 795;
}
);
unicode = 174;
},
{
glyphname = trademark;
layers = (
{
layerId = master01;
shapes = (
{
closed = 1;
nodes = (
(827,283,o),
(840,277,o),
(859,277,cs),
(876,277,o),
(891,283,o),
(891,299,cs),
(891,709,ls),
(891,748,o),
(886,764,o),
(846,764,cs),
(831,764,ls),
(769,764,o),
(755,759,o),
(740,698,cs),
(683,464,l),
(662,550,o),
(645,614,o),
(625,698,cs),
(610,757,o),
(594,764,o),
(533,764,cs),
(519,764,ls),
(479,764,o),
(474,748,o),
(474,711,cs),
(474,299,ls),
(474,283,o),
(488,277,o),
(506,277,cs),
(525,277,o),
(538,283,o),
(538,299,cs),
(538,705,l),
(560,705,o),
(562,700,o),
(568,676,cs),
(651,376,ls),
(654,362,o),
(664,357,o),
(683,357,cs),
(701,357,o),
(710,362,o),
(714,376,cs),
(797,676,ls),
(804,701,o),
(805,705,o),
(827,705,c),
(827,299,ls,{
name = hr00;
})
);
},
{
closed = 1;
nodes = (
(104,764,o),
(100,751,o),
(100,734,cs),
(100,719,o),
(104,705,o),
(119,705,cs),
(220,705,l),
(220,299,ls),
(220,283,o),
(234,277,o),
(252,277,cs),
(271,277,o),
(284,283,o),
(284,299,cs),
(284,705,l),
(386,705,ls),
(401,705,o),
(405,718,o),
(405,734,cs),
(405,751,o),
(401,764,o),
(386,764,cs),
(119,764,ls)
);
}
);
width = 1051;
}
);
unicode = 8482;
},
{
glyphname = degree;
layers = (
{
layerId = master01;
shapes = (
{
closed = 1;
nodes = (
(387,727,o),
(323,755,o),
(236,755,cs),
(150,755,o),
(79,727,o),
(79,648,cs),
(79,478,ls),
(79,399,o),
(145,370,o),
(232,370,cs),
(318,370,o),
(387,399,o),
(387,478,cs),
(387,648,ls,{
name = hr00;
})
);
},
{
closed = 1;
nodes = (
(144,686,o),
(185,697,o),
(236,697,cs),
(287,697,o),
(323,686,o),
(323,655,cs),
(323,471,ls),
(323,440,o),
(283,429,o),
(232,429,cs),
(181,429,o),
(144,440,o),
(144,471,cs),
(144,655,ls)
);
}
);
width = 470;
}
);
unicode = 176;
},
{
glyphname = bar;
layers = (
{
layerId = master01;
shapes = (
{
closed = 1;
nodes = (
(196,839,o),
(181,845,o),
(160,845,cs),
(140,845,o),
(124,839,o),
(124,822,cs),
(124,-82,ls),
(124,-99,o),
(140,-105,o),
(160,-105,cs),
(181,-105,o),
(196,-99,o),
(196,-82,cs),
(196,822,ls,{
name = hr00;
})
);
}
);
width = 320;
}
);
unicode = 124;
},
{
glyphname = brokenbar;
layers = (
{
layerId = master01;
shapes = (
{
closed = 1;
nodes = (
(196,839,o),
(181,845,o),
(160,845,cs),
(140,845,o),
(124,839,o),
(124,822,cs),
(124,518,ls),
(124,501,o),
(140,495,o),
(160,495,cs),
(181,495,o),
(196,501,o),
(196,518,cs),
(196,822,ls,{
name = hr00;
})
);
},
{
closed = 1;
nodes = (
(196,239,o),
(181,245,o),
(160,245,cs),
(140,245,o),
(124,239,o),
(124,222,cs),
(124,-82,ls),
(124,-99,o),
(140,-105,o),
(160,-105,cs),
(181,-105,o),
(196,-99,o),
(196,-82,cs),
(196,222,ls)
);
}
);
width = 320;
}
);
unicode = 166;
},
{
glyphname = dagger;
layers = (
{
layerId = master01;
shapes = (
{
closed = 1;
nodes = (
(45,600,o),
(40,585,o),
(40,565,cs),
(40,546,o),
(45,530,o),
(60,530,cs),
(210,530,l),
(210,-82,ls),
(210,-99,o),
(228,-105,o),
(250,-105,cs),
(273,-105,o),
(290,-99,o),
(290,-82,cs),
(290,530,l),
(440,530,ls),
(455,530,o),
(460,545,o),
(460,565,cs),
(460,584,o),
(455,600,o),
(440,600,cs),
(290,600,l),
(290,752,ls),
(290,769,o),
(273,775,o),
(250,775,cs),
(228,775,o),
(210,769,o),
(210,752,cs),
(210,600,l),
(60,600,ls,{
name = hr00;
})
);
}
);
width = 500;
}
);
unicode = 8224;
},
{
glyphname = uni2113;
layers = (
{
layerId = master01;
shapes = (
{
closed = 1;
nodes = (
(280,-15,ls),
(293,-15,o),
(300,-3,o),
(300,20,cs),
(300,43,o),
(293,55,o),
(280,55,cs),
(245,55,ls),
(208,55,o),
(190,72,o),
(190,107,cs),
(190,732,ls),
(190,747,o),
(176,755,o),
(150,755,cs),
(124,755,o),
(110,747,o),
(110,732,cs),
(110,117,ls),
(110,29,o),
(155,-15,o),
(245,-15,c,{
name = hr00;
})
);
}
);
width = 300;
}
);
unicode = 8467;
},
{
glyphname = daggerdbl;
layers = (
{
layerId = master01;
shapes = (
{
closed = 1;
nodes = (
(45,600,o),
(40,585,o),
(40,565,cs),
(40,546,o),
(45,530,o),
(60,530,cs),
(210,530,l),
(210,140,l),
(60,140,ls),
(45,140,o),
(40,125,o),
(40,105,cs),
(40,86,o),
(45,70,o),
(60,70,cs),
(210,70,l),
(210,-82,ls),
(210,-99,o),
(228,-105,o),
(250,-105,cs),
(273,-105,o),
(290,-99,o),
(290,-82,cs),
(290,70,l),
(440,70,ls),
(455,70,o),
(460,85,o),
(460,105,cs),
(460,124,o),
(455,140,o),
(440,140,cs),
(290,140,l),
(290,530,l),
(440,530,ls),
(455,530,o),
(460,545,o),
(460,565,cs),
(460,584,o),
(455,600,o),
(440,600,cs),
(290,600,l),
(290,752,ls),
(290,769,o),
(273,775,o),
(250,775,cs),
(228,775,o),
(210,769,o),
(210,752,cs),
(210,600,l),
(60,600,ls,{
name = hr00;
})
);
}
);
width = 500;
}
);
unicode = 8225;
},
{
glyphname = estimated;
layers = (
{
layerId = master01;
shapes = (
{
closed = 1;
nodes = (
(157,78,l),
(198,39,o),
(247,19,o),
(302,19,cs),
(385,19,o),
(449,59,o),
(495,139,c),
(530,118,l),
(461,26,o),
(409,-17,o),
(302,-17,cs),
(138,-17,o),
(44,107,o),
(44,259,cs),
(44,422,o),
(142,535,o),
(302,535,cs),
(473,535,o),
(554,413,o),
(561,259,c),
(157,259,l,{
name = hr00;
})
);
},
{
closed = 1;
nodes = (
(448,440,l),
(406,480,o),
(357,500,o),
(301,500,cs),
(244,500,o),
(196,480,o),
(157,440,c),
(157,295,l),
(448,295,l)
);
}
);
width = 600;
}
);
unicode = 8494;
},
{
glyphname = Euro;
layers = (
{
layerId = master01;
shapes = (
{
closed = 1;
nodes = (
(129,55,o),
(170,0,o),
(287,0,cs),
(509,0,ls),
(524,0,o),
(529,15,o),
(529,35,cs),
(529,54,o),
(524,70,o),
(509,70,cs),
(287,70,ls),
(229,70,o),
(209,100,o),
(209,166,cs),
(209,574,ls),
(209,640,o),
(229,670,o),
(287,670,cs),
(489,670,ls),
(504,670,o),
(509,686,o),
(509,705,cs),
(509,725,o),
(504,740,o),
(489,740,cs),
(287,740,ls),
(170,740,o),
(129,685,o),
(129,574,cs),
(129,166,ls,{
name = hr00;
})
);
},
{
pos = (-50,80);
ref = ethbar;
},
{
pos = (-50,-80);
ref = ethbar;
}
);
width = 600;
}
);
unicode = 8364;
},
{
glyphname = cent;
layers = (
{
layerId = master01;
shapes = (
{
closed = 1;
nodes = (
(358,-105,o),
(370,-97,o),
(370,-82,cs),
(370,96,l),
(486,96,ls),
(499,96,o),
(506,108,o),
(506,131,cs),
(506,154,o),
(499,166,o),
(486,166,cs),
(370,166,l),
(370,576,l),
(486,576,ls),
(499,576,o),
(506,588,o),
(506,611,cs),
(506,634,o),
(499,646,o),
(486,646,cs),
(370,646,l),
(370,822,ls),
(370,837,o),
(358,845,o),
(334,845,cs),
(311,845,o),
(298,837,o),
(298,822,cs),
(298,645,l),
(176,640,o),
(110,585,o),
(110,488,cs),
(110,254,ls),
(110,157,o),
(176,101,o),
(298,96,c),
(298,-82,ls),
(298,-97,o),
(311,-105,o),
(334,-105,c,{
name = hr00;
})
);
},
{
closed = 1;
nodes = (
(190,544,o),
(227,571,o),
(298,575,c),
(298,166,l),
(227,170,o),
(190,197,o),
(190,244,cs),
(190,498,l)
);
}
);
width = 600;
}
);
unicode = 162;
},
{
glyphname = currency;
layers = (
{
layerId = master01;
shapes = (
{
closed = 1;
nodes = (
(262,605,o),
(231,600,o),
(204,592,c),
(134,712,ls),
(123,730,o),
(114,735,o),
(92,735,cs),
(72,735,o),
(60,729,o),
(60,718,cs),
(60,712,o),
(62,705,o),
(68,696,cs),
(145,564,l),
(111,537,o),
(94,497,o),
(94,447,cs),
(94,343,ls),
(94,292,o),
(111,253,o),
(146,226,c),
(68,94,ls),
(62,85,o),
(60,78,o),
(60,72,cs),
(60,61,o),
(72,55,o),
(92,55,cs),
(114,55,o),
(123,60,o),
(134,78,cs),
(204,197,l),
(231,189,o),
(263,185,o),
(300,185,cs),
(336,185,o),
(369,189,o),
(396,197,c),
(466,78,ls),
(477,60,o),
(486,55,o),
(508,55,cs),
(528,55,o),
(540,61,o),
(540,72,cs),
(540,78,o),
(538,85,o),
(532,94,cs),
(454,226,l),
(488,253,o),
(506,292,o),
(506,343,cs),
(506,447,ls),
(506,497,o),
(488,537,o),
(454,563,c),
(532,696,ls),
(538,705,o),
(540,712,o),
(540,718,cs),
(540,729,o),
(528,735,o),
(508,735,cs),
(486,735,o),
(477,730,o),
(466,712,cs),
(396,592,l),
(368,601,o),
(336,605,o),
(299,605,cs,{
name = hr00;
})
);
},
{
closed = 1;
nodes = (
(218,255,o),
(174,282,o),
(174,333,cs),
(174,457,ls),
(174,508,o),
(217,535,o),
(299,535,cs),
(383,535,o),
(426,508,o),
(426,457,cs),
(426,333,ls),
(426,282,o),
(382,255,o),
(300,255,cs)
);
}
);
width = 600;
}
);
unicode = 164;
},
{
glyphname = dollar;
layers = (
{
layerId = master01;
shapes = (
{
closed = 1;
nodes = (
(339,839,o),
(324,845,o),
(303,845,cs),
(283,845,o),
(267,839,o),
(267,822,cs),
(267,740,l),
(238,740,ls),
(121,740,o),
(80,685,o),
(80,574,cs),
(80,530,ls),
(80,409,o),
(124,380,o),
(238,354,cs),
(267,347,l),
(267,70,l),
(103,70,ls),
(88,70,o),
(83,54,o),
(83,35,cs),
(83,15,o),
(88,0,o),
(103,0,cs),
(267,0,l),
(267,-82,ls),
(267,-99,o),
(283,-105,o),
(303,-105,cs),
(324,-105,o),
(339,-99,o),
(339,-82,cs),
(339,0,l),
(365,0,ls),
(482,0,o),
(523,55,o),
(523,166,cs),
(523,248,ls),
(523,361,o),
(449,379,o),
(339,403,c),
(339,670,l),
(480,670,ls),
(495,670,o),
(500,686,o),
(500,705,cs),
(500,725,o),
(495,740,o),
(480,740,cs),
(339,740,l),
(339,822,ls,{
name = hr00;
})
);
},
{
closed = 1;
nodes = (
(443,100,o),
(423,70,o),
(365,70,cs),
(339,70,l),
(339,331,l),
(405,315,o),
(443,301,o),
(443,256,cs),
(443,166,ls)
);
},
{
closed = 1;
nodes = (
(160,574,ls),
(160,640,o),
(180,670,o),
(238,670,cs),
(267,670,l),
(267,419,l),
(238,426,ls),
(181,439,o),
(160,456,o),
(160,532,c)
);
}
);
width = 600;
}
);
unicode = 36;
},
{
glyphname = lira;
layers = (
{
layerId = master01;
shapes = (
{
closed = 1;
nodes = (
(523,0,ls),
(538,0,o),
(543,15,o),
(543,35,cs),
(543,54,o),
(538,70,o),
(523,70,cs),
(173,70,l),
(182,91,o),
(188,117,o),
(190,147,cs,{
name = hr01;
}),
(220,574,ls,{
name = hr02;
}),
(225,640,o),
(240,670,o),
(298,670,cs),
(490,670,ls),
(505,670,o),
(510,686,o),
(510,705,cs),
(510,725,o),
(505,740,o),
(490,740,cs),
(298,740,ls),
(181,740,o),
(148,684,o),
(140,574,cs),
(110,157,ls,{
name = hr03;
}),
(104,73,o),
(60,51,o),
(60,39,cs),
(60,23,o),
(89,0,o),
(108,0,c)
);
},
{
pos = (-50,80);
ref = ethbar;
},
{
pos = (-50,-80);
ref = ethbar;
}
);
width = 600;
}
);
unicode = 8356;
},
{
glyphname = sterling;
layers = (
{
layerId = master01;
shapes = (
{
closed = 1;
nodes = (
(26,410,o),
(21,397,o),
(21,379,cs),
(21,362,o),
(26,347,o),
(39,347,cs),
(123,347,l),
(110,157,ls),
(104,73,o),
(60,51,o),
(60,39,cs),
(60,19,o),
(94,0,o),
(111,0,cs),
(523,0,ls),
(538,0,o),
(543,15,o),
(543,35,cs),
(543,54,o),
(538,70,o),
(523,70,cs),
(173,70,l),
(182,91,o),
(188,117,o),
(190,147,cs),
(204,347,l),
(372,347,ls),
(385,347,o),
(390,361,o),
(390,379,cs),
(390,396,o),
(385,410,o),
(372,410,cs),
(208,410,l),
(220,574,ls),
(225,640,o),
(240,670,o),
(298,670,cs),
(490,670,ls),
(505,670,o),
(510,686,o),
(510,705,cs),
(510,725,o),
(505,740,o),
(490,740,cs),
(298,740,ls),
(181,740,o),
(148,684,o),
(140,574,cs),
(128,410,l),
(39,410,ls,{
name = hr00;
})
);
}
);
width = 600;
}
);
unicode = 163;
},
{
glyphname = yen;
layers = (
{
layerId = master01;
shapes = (
{
closed = 1;
nodes = (
(40,490,o),
(35,477,o),
(35,459,cs),
(35,442,o),
(40,427,o),
(53,427,cs),
(148,427,l),
(153,412,ls),
(162,382,o),
(172,353,o),
(188,330,c),
(53,330,ls),
(40,330,o),
(35,317,o),
(35,299,cs),
(35,282,o),
(40,267,o),
(53,267,cs),
(260,267,l),
(260,18,ls),
(260,1,o),
(278,-5,o),
(300,-5,cs),
(323,-5,o),
(340,1,o),
(340,18,cs),
(340,267,l),
(547,267,ls),
(560,267,o),
(565,281,o),
(565,299,cs),
(565,316,o),
(560,330,o),
(547,330,cs),
(411,330,l),
(428,353,o),
(438,382,o),
(447,412,cs),
(451,427,l),
(547,427,ls),
(560,427,o),
(565,441,o),
(565,459,cs),
(565,476,o),
(560,490,o),
(547,490,cs),
(470,490,l),
(539,725,l),
(541,740,o),
(522,745,o),
(501,745,cs),
(478,745,o),
(464,739,o),
(459,722,cs),
(363,395,ls),
(349,348,o),
(334,332,o),
(307,330,cs),
(300,330,ls),
(268,330,o),
(252,344,o),
(237,395,cs),
(141,722,l),
(137,739,o),
(122,745,o),
(99,745,cs),
(78,745,o),
(59,740,o),
(61,725,c),
(130,490,l),
(53,490,ls,{
name = hr00;
})
);
}
);
width = 600;
}
);
unicode = 165;
},
{
glyphname = plus;
layers = (
{
layerId = master01;
shapes = (
{
closed = 1;
nodes = (
(265,153,o),
(277,146,o),
(300,146,cs),
(323,146,o),
(335,153,o),
(335,166,cs),
(335,336,l),
(505,336,ls),
(518,336,o),
(525,348,o),
(525,371,cs),
(525,394,o),
(518,406,o),
(505,406,cs),
(335,406,l),
(335,576,ls),
(335,589,o),
(323,596,o),
(300,596,cs),
(277,596,o),
(265,589,o),
(265,576,cs),
(265,406,l),
(95,406,ls),
(82,406,o),
(75,394,o),
(75,371,cs),
(75,348,o),
(82,336,o),
(95,336,cs),
(265,336,l),
(265,166,ls,{
name = hr00;
})
);
}
);
width = 600;
}
);
unicode = 43;
},
{
glyphname = minus;
layers = (
{
layerId = master01;
shapes = (
{
closed = 1;
nodes = (
(82,406,o),
(75,394,o),
(75,371,cs),
(75,348,o),
(82,336,o),
(95,336,cs),
(505,336,ls),
(518,336,o),
(525,348,o),
(525,371,cs),
(525,394,o),
(518,406,o),
(505,406,cs),
(95,406,ls,{
name = hr00;
})
);
}
);
width = 600;
}
);
unicode = 8722;
},
{
glyphname = multiply;
layers = (
{
layerId = master01;
shapes = (
{
closed = 1;
nodes = (
(445,176,o),
(449,175,o),
(453,175,cs),
(467,175,o),
(496,202,o),
(496,218,cs),
(496,222,o),
(495,226,o),
(491,230,cs),
(350,371,l),
(491,512,ls),
(494,515,o),
(496,519,o),
(496,523,cs),
(496,538,o),
(469,567,o),
(453,567,cs),
(448,567,o),
(444,565,o),
(441,562,cs),
(300,421,l),
(159,562,ls),
(156,565,o),
(152,567,o),
(148,567,cs),
(133,567,o),
(104,540,o),
(104,524,cs),
(104,519,o),
(106,515,o),
(109,512,cs),
(250,371,l),
(109,230,ls),
(105,226,o),
(104,222,o),
(104,218,cs),
(104,204,o),
(131,175,o),
(147,175,cs),
(151,175,o),
(155,176,o),
(159,180,cs),
(300,321,l),
(441,180,ls,{
name = hr00;
})
);
}
);
width = 600;
}
);
unicode = 215;
},
{
glyphname = equal;
layers = (
{
layerId = master01;
shapes = (
{
closed = 1;
nodes = (
(82,296,o),
(75,284,o),
(75,261,cs),
(75,238,o),
(82,226,o),
(95,226,cs),
(505,226,ls),
(518,226,o),
(525,238,o),
(525,261,cs),
(525,284,o),
(518,296,o),
(505,296,cs),
(95,296,ls,{
name = hr00;
})
);
},
{
closed = 1;
nodes = (
(82,516,o),
(75,504,o),
(75,481,cs),
(75,458,o),
(82,446,o),
(95,446,cs),
(505,446,ls),
(518,446,o),
(525,458,o),
(525,481,cs),
(525,504,o),
(518,516,o),
(505,516,cs),
(95,516,ls)
);
}
);
width = 600;
}
);
unicode = 61;
},
{
glyphname = greater;
layers = (
{
layerId = master01;
shapes = (
{
closed = 1;
nodes = (
(520,467,o),
(472,483,o),
(383,507,cs),
(100,584,l),
(83,584,o),
(80,562,o),
(80,546,cs),
(80,523,o),
(86,507,o),
(103,504,c),
(372,429,ls),
(441,410,o),
(450,403,o),
(450,370,cs),
(450,337,o),
(441,330,o),
(372,311,cs),
(103,236,l),
(86,233,o),
(80,217,o),
(80,194,cs),
(80,182,o),
(81,156,o),
(100,156,c),
(383,233,ls),
(472,257,o),
(520,273,o),
(520,370,c,{
name = hr00;
})
);
}
);
width = 600;
}
);
unicode = 62;
},
{
glyphname = less;
layers = (
{
layerId = master01;
shapes = (
{
closed = 1;
nodes = (
(80,273,o),
(128,257,o),
(217,233,cs),
(500,156,l),
(519,156,o),
(520,182,o),
(520,194,cs),
(520,217,o),
(514,233,o),
(497,236,c),
(228,311,ls),
(159,330,o),
(150,337,o),
(150,370,cs),
(150,403,o),
(159,410,o),
(228,429,cs),
(497,504,l),
(514,507,o),
(520,523,o),
(520,546,cs),
(520,562,o),
(517,584,o),
(500,584,c),
(217,507,ls),
(128,483,o),
(80,467,o),
(80,370,cs,{
name = hr00;
})
);
}
);
width = 600;
}
);
unicode = 60;
},
{
glyphname = approxequal;
layers = (
{
layerId = master01;
shapes = (
{
closed = 1;
nodes = (
(340,545,o),
(257,485,o),
(172,485,cs,{
name = hr01;
}),
(114,485,o),
(100,507,o),
(86,507,cs),
(76,507,o),
(75,490,o),
(75,481,cs),
(76,466,o),
(77,445,o),
(91,436,cs),
(117,419,o),
(146,414,o),
(172,414,cs),
(258,414,o),
(341,474,o),
(426,474,cs,{
name = hr02;
}),
(484,474,o),
(498,452,o),
(512,452,cs),
(522,452,o),
(523,469,o),
(523,478,cs),
(522,493,o),
(521,514,o),
(507,523,cs),
(481,540,o),
(452,545,o),
(426,545,cs)
);
},
{
closed = 1;
nodes = (
(340,325,o),
(257,265,o),
(172,265,cs,{
name = hr03;
}),
(114,265,o),
(100,287,o),
(86,287,cs),
(76,287,o),
(75,270,o),
(75,261,cs),
(76,246,o),
(77,225,o),
(91,216,cs),
(117,199,o),
(146,194,o),
(172,194,cs),
(258,194,o),
(341,254,o),
(426,254,cs,{
name = hr04;
}),
(484,254,o),
(498,232,o),
(512,232,cs),
(522,232,o),
(523,249,o),
(523,258,cs),
(522,273,o),
(521,294,o),
(507,303,cs),
(481,320,o),
(452,325,o),
(426,325,cs)
);
}
);
width = 600;
}
);
unicode = 8776;
},
{
glyphname = asciitilde;
layers = (
{
layerId = master01;
shapes = (
{
closed = 1;
nodes = (
(525,430,o),
(510,434,o),
(490,434,cs),
(471,434,o),
(455,429,o),
(455,414,cs),
(455,387,o),
(437,379,o),
(419,379,cs),
(369,379,o),
(240,433,o),
(180,433,cs,{
name = hr01;
}),
(133,433,o),
(75,400,o),
(75,324,cs),
(75,312,o),
(90,308,o),
(110,308,cs),
(129,308,o),
(145,313,o),
(145,328,cs),
(145,355,o),
(163,363,o),
(181,363,cs),
(231,363,o),
(360,309,o),
(420,309,cs,{
name = hr02;
}),
(467,309,o),
(525,342,o),
(525,418,cs)
);
}
);
width = 600;
}
);
unicode = 126;
},
{
glyphname = logicalnot;
layers = (
{
layerId = master01;
shapes = (
{
closed = 1;
nodes = (
(80,406,o),
(75,391,o),
(75,371,cs),
(75,352,o),
(80,336,o),
(95,336,cs),
(453,336,l),
(453,198,ls),
(453,181,o),
(469,175,o),
(489,175,cs),
(510,175,o),
(525,181,o),
(525,198,cs),
(525,371,ls),
(525,390,o),
(520,406,o),
(495,406,cs),
(95,406,ls,{
name = hr00;
})
);
}
);
width = 600;
}
);
unicode = 172;
},
{
glyphname = asciicircum;
layers = (
{
layerId = master01;
shapes = (
{
closed = 1;
nodes = (
(203,740,o),
(187,692,o),
(163,603,cs),
(114,423,l),
(114,404,o),
(140,403,o),
(152,403,cs),
(175,403,o),
(189,409,o),
(194,426,cs),
(241,592,ls),
(260,661,o),
(267,670,o),
(300,670,cs),
(333,670,o),
(340,661,o),
(359,592,cs),
(406,426,ls),
(411,409,o),
(425,403,o),
(448,403,cs),
(464,403,o),
(486,406,o),
(486,423,c),
(437,603,ls),
(413,692,o),
(397,740,o),
(300,740,cs,{
name = hr00;
})
);
}
);
width = 600;
}
);
unicode = 94;
},
{
glyphname = infinity;
layers = (
{
layerId = master01;
shapes = (
{
closed = 1;
nodes = (
(345,564,o),
(274,568,o),
(238,568,cs),
(208,568,ls),
(91,568,o),
(50,502,o),
(50,373,cs),
(50,244,o),
(91,178,o),
(208,178,cs),
(238,178,ls),
(274,178,o),
(345,182,o),
(383,253,cs),
(405,295,l),
(427,255,ls),
(465,182,o),
(534,178,o),
(572,178,cs),
(602,178,ls),
(719,178,o),
(760,244,o),
(760,373,cs),
(760,502,o),
(719,568,o),
(602,568,cs),
(572,568,ls),
(536,568,o),
(465,562,o),
(427,491,cs),
(405,450,l),
(383,493,ls,{
name = hr00;
})
);
},
{
closed = 1;
nodes = (
(303,257,o),
(269,248,o),
(233,248,cs),
(203,248,ls),
(145,248,o),
(125,292,o),
(125,372,cs),
(125,454,o),
(145,498,o),
(203,498,cs),
(233,498,ls),
(269,498,o),
(303,489,o),
(328,442,cs),
(364,373,l),
(328,304,ls)
);
},
{
closed = 1;
nodes = (
(507,488,o),
(541,498,o),
(577,498,cs),
(607,498,ls),
(665,498,o),
(685,454,o),
(685,374,cs),
(685,292,o),
(665,248,o),
(607,248,cs),
(577,248,ls),
(541,248,o),
(507,259,o),
(482,306,cs),
(446,373,l),
(482,440,ls)
);
}
);
width = 810;
}
);
unicode = 8734;
},
{
glyphname = integral;
layers = (
{
layerId = master01;
shapes = (
{
closed = 1;
nodes = (
(308,640,o),
(325,670,o),
(383,670,cs),
(435,670,ls),
(450,670,o),
(455,686,o),
(455,705,cs),
(455,725,o),
(450,740,o),
(435,740,cs),
(383,740,ls),
(266,740,o),
(230,684,o),
(225,574,cs),
(200,46,ls,{
name = hr01;
}),
(197,-20,o),
(180,-50,o),
(122,-50,cs),
(70,-50,ls),
(55,-50,o),
(50,-66,o),
(50,-85,cs),
(50,-105,o),
(55,-120,o),
(70,-120,cs),
(122,-120,ls,{
name = hr02;
}),
(239,-120,o),
(275,-64,o),
(280,46,cs),
(305,574,ls)
);
}
);
width = 505;
}
);
unicode = 8747;
},
{
glyphname = Omega;
layers = (
{
layerId = master01;
shapes = (
{
closed = 1;
nodes = (
(741,706,o),
(594,755,o),
(428,755,cs),
(262,755,o),
(115,706,o),
(115,568,cs),
(115,331,ls),
(115,227,o),
(177,165,o),
(270,160,c),
(270,138,ls),
(270,80,o),
(260,70,o),
(184,70,cs),
(100,70,ls),
(85,70,o),
(80,54,o),
(80,35,cs),
(80,15,o),
(85,0,o),
(100,0,cs),
(184,0,ls),
(300,0,o),
(345,21,o),
(345,138,cs),
(345,163,ls),
(345,208,o),
(345,225,o),
(300,225,cs),
(225,225,o),
(195,270,o),
(195,331,cs),
(195,568,ls),
(195,654,o),
(304,685,o),
(428,685,cs),
(552,685,o),
(661,654,o),
(661,568,cs),
(661,331,ls),
(661,270,o),
(631,225,o),
(556,225,cs),
(511,225,o),
(511,208,o),
(511,163,cs),
(511,138,ls),
(511,21,o),
(556,0,o),
(672,0,cs),
(756,0,ls),
(771,0,o),
(776,15,o),
(776,35,cs),
(776,54,o),
(771,70,o),
(756,70,cs),
(672,70,ls),
(596,70,o),
(586,80,o),
(586,138,cs),
(586,160,l),
(679,165,o),
(741,227,o),
(741,331,cs),
(741,568,ls,{
name = hr00;
})
);
}
);
width = 856;
}
);
unicode = 8486;
},
{
glyphname = Delta;
layers = (
{
layerId = master01;
shapes = (
{
closed = 1;
nodes = (
(267,649,o),
(278,675,o),
(337,675,cs),
(395,675,o),
(406,649,o),
(416,597,cs),
(512,70,l),
(161,70,l),
(258,597,ls,{
name = hr00;
})
);
},
{
closed = 1;
nodes = (
(570,0,o),
(593,9,o),
(593,49,cs),
(593,56,o),
(593,68,o),
(591,78,cs),
(494,608,ls),
(477,699,o),
(448,745,o),
(337,745,cs),
(226,745,o),
(197,699,o),
(180,608,cs),
(83,78,ls),
(81,68,o),
(80,56,o),
(80,49,cs),
(80,9,o),
(104,0,o),
(147,0,cs),
(527,0,ls)
);
}
);
width = 673;
}
);
unicode = 8710;
},
{
glyphname = product;
layers = (
{
layerId = master01;
shapes = (
{
closed = 1;
nodes = (
(94,187,o),
(80,152,o),
(80,62,cs),
(80,-60,ls),
(80,-115,o),
(111,-120,o),
(165,-120,cs),
(524,-120,ls),
(539,-120,o),
(544,-104,o),
(544,-85,cs),
(544,-65,o),
(539,-50,o),
(524,-50,cs),
(160,-50,l),
(160,70,ls),
(160,114,o),
(172,141,o),
(214,162,cs),
(463,283,ls),
(479,291,o),
(486,306,o),
(486,327,cs),
(486,348,o),
(479,363,o),
(463,371,cs),
(214,492,ls),
(172,513,o),
(160,540,o),
(160,584,cs),
(160,670,l),
(524,670,ls),
(539,670,o),
(544,685,o),
(544,705,cs),
(544,724,o),
(539,740,o),
(524,740,cs),
(165,740,ls),
(111,740,o),
(80,735,o),
(80,680,cs),
(80,592,ls),
(80,502,o),
(94,467,o),
(176,428,cs),
(387,327,l),
(176,226,ls,{
name = hr00;
})
);
}
);
width = 600;
}
);
unicode = 8719;
},
{
glyphname = summation;
layers = (
{
layerId = master01;
shapes = (
{
closed = 1;
nodes = (
(514,-119,o),
(531,-125,o),
(554,-125,cs),
(576,-125,o),
(594,-119,o),
(594,-102,cs),
(594,665,ls),
(594,719,o),
(589,740,o),
(534,740,cs),
(170,740,ls),
(116,740,o),
(110,719,o),
(110,668,cs),
(110,-102,ls),
(110,-119,o),
(128,-125,o),
(150,-125,cs),
(173,-125,o),
(190,-119,o),
(190,-102,cs),
(190,670,l),
(514,670,l),
(514,-102,ls,{
name = hr00;
})
);
}
);
width = 704;
}
);
unicode = 8721;
},
{
glyphname = radical;
layers = (
{
layerId = master01;
shapes = (
{
closed = 1;
nodes = (
(741,789,o),
(746,804,o),
(746,824,cs),
(746,843,o),
(741,859,o),
(726,859,cs),
(597,859,ls),
(543,859,o),
(520,854,o),
(507,781,cs),
(360,-15,ls),
(351,-67,o),
(339,-93,o),
(291,-93,cs),
(243,-93,o),
(232,-67,o),
(222,-15,cs),
(146,386,ls),
(143,403,o),
(127,409,o),
(104,409,cs),
(83,409,o),
(64,404,o),
(66,389,c),
(144,-26,ls),
(161,-117,o),
(190,-163,o),
(291,-163,cs),
(392,-163,o),
(421,-117,o),
(438,-26,cs),
(588,789,l),
(726,789,ls,{
name = hr00;
})
);
}
);
width = 636;
}
);
unicode = 8730;
},
{
glyphname = partialdiff;
layers = (
{
layerId = master01;
shapes = (
{
closed = 1;
nodes = (
(484,754,o),
(453,800,o),
(342,800,cs),
(266,800,ls),
(251,800,o),
(246,784,o),
(246,765,cs),
(246,745,o),
(251,730,o),
(266,730,cs),
(342,730,ls),
(400,730,o),
(412,704,o),
(421,652,cs),
(443,520,l),
(417,536,o),
(372,545,o),
(339,545,cs),
(248,545,o),
(147,509,o),
(126,387,cs),
(83,143,ls),
(81,130,o),
(80,119,o),
(80,108,cs),
(80,18,o),
(155,-15,o),
(262,-15,cs),
(382,-15,o),
(475,26,o),
(496,143,cs),
(530,334,ls),
(535,362,o),
(538,382,o),
(538,403,cs),
(538,420,o),
(536,438,o),
(532,461,cs),
(499,663,l,{
name = hr00;
})
);
},
{
closed = 1;
nodes = (
(404,75,o),
(350,55,o),
(274,55,cs),
(205,55,o),
(160,71,o),
(160,118,cs),
(160,123,o),
(160,128,o),
(161,133,cs),
(207,397,ls),
(217,455,o),
(272,475,o),
(347,475,cs),
(400,475,o),
(462,465,o),
(462,415,cs),
(462,410,o),
(461,403,o),
(460,397,cs),
(414,133,ls)
);
}
);
width = 654;
}
);
unicode = 8706;
},
{
glyphname = mu;
layers = (
{
layerId = master01;
shapes = (
{
closed = 1;
nodes = (
(543,599,o),
(525,605,o),
(503,605,cs),
(480,605,o),
(463,599,o),
(463,582,cs),
(463,133,ls),
(463,75,o),
(402,55,o),
(326,55,cs),
(250,55,o),
(190,75,o),
(190,133,cs),
(190,582,ls),
(190,599,o),
(173,605,o),
(150,605,cs),
(128,605,o),
(110,599,o),
(110,582,cs),
(110,-118,ls),
(110,-207,o),
(141,-265,o),
(169,-265,cs),
(186,-265,o),
(220,-242,o),
(220,-226,cs),
(220,-214,o),
(188,-192,o),
(188,-108,cs),
(188,27,l),
(223,0,o),
(271,-15,o),
(326,-15,cs),
(446,-15,o),
(543,26,o),
(543,143,cs),
(543,582,ls,{
name = hr00;
})
);
}
);
width = 653;
}
);
unicode = 181;
},
{
glyphname = lozenge;
layers = (
{
layerId = master01;
shapes = (
{
closed = 1;
nodes = (
(201,755,o),
(186,705,o),
(155,618,cs),
(73,386,ls),
(72,381,o),
(70,375,o),
(70,370,cs),
(70,364,o),
(72,359,o),
(73,354,cs),
(155,122,ls),
(186,35,o),
(201,-15,o),
(312,-15,cs),
(423,-15,o),
(438,35,o),
(469,122,cs),
(551,354,ls),
(552,358,o),
(553,363,o),
(553,369,cs),
(553,375,o),
(552,381,o),
(551,385,cs),
(469,618,ls),
(438,705,o),
(423,755,o),
(312,755,cs,{
name = hr00;
})
);
},
{
closed = 1;
nodes = (
(373,83,o),
(360,55,o),
(312,55,cs),
(264,55,o),
(251,83,o),
(233,133,cs),
(148,370,l),
(233,607,ls),
(251,657,o),
(264,685,o),
(312,685,cs),
(360,685,o),
(373,657,o),
(391,607,cs),
(476,370,l),
(391,133,ls)
);
}
);
width = 623;
}
);
unicode = 9674;
},
{
glyphname = commaaccent;
layers = (
{
layerId = master01;
shapes = (
{
closed = 1;
nodes = (
(113,-257,o),
(119,-254,o),
(121,-248,cs),
(126,-234,ls),
(137,-198,o),
(143,-172,o),
(143,-155,cs),
(143,-64,ls),
(143,-46,o),
(125,-40,o),
(100,-40,cs),
(76,-40,o),
(58,-46,o),
(58,-64,cs),
(58,-116,ls),
(58,-140,o),
(82,-152,o),
(82,-174,cs,{
name = hr01;
}),
(82,-182,o),
(79,-190,o),
(76,-199,cs),
(66,-225,ls),
(64,-230,o),
(64,-232,o),
(64,-234,cs),
(64,-243,o),
(89,-257,o),
(106,-257,cs)
);
}
);
width = 201;
}
);
},
{
glyphname = dieresis;
layers = (
{
layerId = master01;
shapes = (
{
closed = 1;
nodes = (
(187,692,o),
(172,683,o),
(144,683,cs),
(115,683,o),
(100,691,o),
(100,708,cs),
(100,795,ls),
(100,811,o),
(115,820,o),
(143,820,cs),
(172,820,o),
(187,812,o),
(187,795,cs),
(187,708,ls,{
name = hr00;
})
);
},
{
closed = 1;
nodes = (
(387,692,o),
(372,683,o),
(344,683,cs),
(315,683,o),
(300,691,o),
(300,708,cs),
(300,795,ls),
(300,811,o),
(315,820,o),
(343,820,cs),
(372,820,o),
(387,812,o),
(387,795,cs),
(387,708,ls)
);
}
);
width = 487;
}
);
unicode = 168;
},
{
glyphname = dotaccent;
layers = (
{
layerId = master01;
shapes = (
{
closed = 1;
nodes = (
(187,692,o),
(172,683,o),
(144,683,cs),
(115,683,o),
(100,691,o),
(100,708,cs),
(100,795,ls),
(100,811,o),
(115,820,o),
(143,820,cs),
(172,820,o),
(187,812,o),
(187,795,cs),
(187,708,ls,{
name = hr00;
})
);
}
);
width = 287;
}
);
unicode = 729;
},
{
glyphname = grave;
layers = (
{
layerId = master01;
shapes = (
{
closed = 1;
nodes = (
(265,667,o),
(285,697,o),
(285,713,cs),
(285,719,o),
(283,723,o),
(275,728,cs),
(109,842,ls),
(105,845,o),
(102,846,o),
(96,846,cs),
(78,846,o),
(50,804,o),
(50,778,cs),
(50,767,o),
(53,762,o),
(61,758,cs),
(237,674,ls),
(251,668,o),
(253,667,o),
(255,667,cs,{
name = hr00;
})
);
}
);
width = 305;
}
);
unicode = 96;
},
{
glyphname = acute;
layers = (
{
layerId = master01;
shapes = (
{
closed = 1;
nodes = (
(82,667,o),
(84,668,o),
(98,674,cs),
(274,758,ls),
(282,762,o),
(285,767,o),
(285,778,cs),
(285,804,o),
(257,846,o),
(239,846,cs),
(233,846,o),
(230,845,o),
(226,842,cs),
(60,728,ls),
(52,723,o),
(50,719,o),
(50,713,cs),
(50,697,o),
(70,667,o),
(80,667,cs,{
name = hr00;
})
);
}
);
width = 305;
}
);
unicode = 180;
},
{
glyphname = hungarumlaut;
layers = (
{
layerId = master01;
shapes = (
{
closed = 1;
nodes = (
(81,721,o),
(80,717,o),
(80,713,cs),
(80,698,o),
(99,667,o),
(114,667,cs),
(118,667,o),
(121,669,o),
(132,675,cs),
(268,757,ls),
(275,761,o),
(277,767,o),
(277,772,cs),
(277,796,o),
(247,842,o),
(225,842,cs),
(220,842,o),
(216,840,o),
(213,837,cs),
(85,724,ls,{
name = hr00;
})
);
},
{
closed = 1;
nodes = (
(301,721,o),
(300,717,o),
(300,713,cs),
(300,698,o),
(319,667,o),
(334,667,cs),
(338,667,o),
(341,669,o),
(352,675,cs),
(488,757,ls),
(495,761,o),
(497,767,o),
(497,772,cs),
(497,796,o),
(467,842,o),
(445,842,cs),
(440,842,o),
(436,840,o),
(433,837,cs),
(305,724,ls)
);
}
);
width = 517;
}
);
unicode = 733;
},
{
glyphname = circumflex;
layers = (
{
layerId = master01;
shapes = (
{
closed = 1;
nodes = (
(234,846,o),
(229,844,o),
(227,842,cs),
(107,726,ls),
(102,721,o),
(100,716,o),
(100,711,cs),
(100,693,o),
(119,667,o),
(132,667,cs),
(134,667,o),
(135,668,o),
(139,670,cs),
(242,746,l),
(345,670,ls),
(348,668,o),
(350,667,o),
(352,667,cs),
(365,667,o),
(384,693,o),
(384,711,cs),
(384,716,o),
(382,721,o),
(377,726,cs),
(257,842,ls),
(255,844,o),
(250,846,o),
(248,846,cs),
(237,846,l,{
name = hr00;
})
);
}
);
width = 484;
}
);
unicode = 710;
},
{
glyphname = caron;
layers = (
{
layerId = master01;
shapes = (
{
closed = 1;
nodes = (
(250,662,o),
(255,664,o),
(257,666,cs),
(377,782,ls),
(382,787,o),
(384,792,o),
(384,797,cs),
(384,815,o),
(365,841,o),
(352,841,cs),
(350,841,o),
(348,840,o),
(345,838,cs),
(242,762,l),
(139,838,ls),
(135,840,o),
(134,841,o),
(132,841,cs),
(119,841,o),
(100,815,o),
(100,797,cs),
(100,792,o),
(102,787,o),
(107,782,cs),
(227,666,ls),
(229,664,o),
(234,662,o),
(237,662,c),
(248,662,l,{
name = hr00;
})
);
}
);
width = 484;
}
);
unicode = 711;
},
{
glyphname = breve;
layers = (
{
layerId = master01;
shapes = (
{
closed = 1;
nodes = (
(121,809,o),
(104,814,o),
(85,814,cs),
(66,814,o),
(50,809,o),
(50,794,cs),
(50,769,ls),
(50,708,o),
(82,677,o),
(170,677,cs),
(257,677,o),
(294,708,o),
(294,769,cs),
(294,794,ls),
(294,809,o),
(277,814,o),
(258,814,cs),
(239,814,o),
(223,809,o),
(223,794,cs),
(223,770,ls),
(223,748,o),
(197,740,o),
(171,740,cs),
(143,740,o),
(121,747,o),
(121,769,cs),
(121,794,ls,{
name = hr00;
})
);
}
);
width = 344;
}
);
unicode = 728;
},
{
glyphname = ring;
layers = (
{
layerId = master01;
shapes = (
{
closed = 1;
nodes = (
(254,828,o),
(221,856,o),
(145,856,cs),
(68,856,o),
(33,827,o),
(33,764,cs),
(33,739,ls),
(33,675,o),
(66,647,o),
(142,647,cs),
(219,647,o),
(254,676,o),
(254,739,cs),
(254,764,l,{
name = hr00;
})
);
},
{
closed = 1;
nodes = (
(95,791,o),
(114,803,o),
(144,803,cs),
(175,803,o),
(192,793,o),
(192,774,cs),
(192,730,ls),
(192,712,o),
(173,700,o),
(143,700,cs),
(112,700,o),
(95,710,o),
(95,729,cs),
(95,773,l)
);
}
);
width = 287;
}
);
unicode = 730;
},
{
glyphname = tilde;
layers = (
{
layerId = master01;
shapes = (
{
closed = 1;
nodes = (
(176,811,o),
(170,812,o),
(165,812,cs),
(124,812,o),
(100,772,o),
(100,703,cs),
(100,692,o),
(112,687,o),
(135,687,cs),
(158,687,o),
(170,694,o),
(170,707,cs),
(170,724,o),
(174,732,o),
(183,732,cs),
(185,732,o),
(186,731,o),
(188,731,cs),
(329,692,ls),
(337,690,o),
(344,689,o),
(351,689,cs),
(393,689,o),
(417,729,o),
(417,797,cs),
(417,808,o),
(405,813,o),
(382,813,cs,{
name = hr01;
}),
(359,813,o),
(347,806,o),
(347,793,cs),
(347,776,o),
(343,768,o),
(335,768,cs),
(332,768,o),
(330,768,o),
(329,769,cs),
(188,808,l)
);
}
);
width = 517;
}
);
unicode = 732;
},
{
glyphname = macron;
layers = (
{
layerId = master01;
shapes = (
{
closed = 1;
nodes = (
(107,787,o),
(100,774,o),
(100,749,cs),
(100,724,o),
(107,710,o),
(120,710,cs),
(387,710,ls),
(400,710,o),
(407,723,o),
(407,749,cs),
(407,774,o),
(400,787,o),
(387,787,cs),
(120,787,ls,{
name = hr00;
})
);
}
);
width = 507;
}
);
unicode = 175;
},
{
glyphname = cedilla;
layers = (
{
layerId = master01;
shapes = (
{
closed = 1;
nodes = (
(249,-157,o),
(272,-164,o),
(297,-164,cs),
(321,-164,o),
(346,-156,o),
(346,-134,cs),
(346,-109,ls),
(346,-77,o),
(332,-70,o),
(292,-70,c),
(292,-34,l),
(366,-34,o),
(413,-43,o),
(413,-108,cs),
(413,-130,ls),
(413,-191,o),
(356,-222,o),
(296,-222,cs),
(236,-222,o),
(182,-191,o),
(182,-130,cs),
(182,-117,ls),
(182,-102,o),
(197,-96,o),
(215,-96,cs),
(235,-96,o),
(249,-102,o),
(249,-117,cs),
(249,-135,ls,{
name = hr00;
})
);
}
);
width = 596;
}
);
unicode = 184;
},
{
glyphname = ogonek;
layers = (
{
layerId = master01;
shapes = (
{
closed = 1;
nodes = (
(403,-222,o),
(449,-185,o),
(449,-130,cs),
(449,-117,ls),
(449,-104,o),
(437,-96,o),
(416,-96,cs),
(394,-96,o),
(382,-103,o),
(382,-117,cs),
(382,-135,ls),
(382,-154,o),
(365,-164,o),
(334,-164,cs),
(304,-164,o),
(285,-152,o),
(285,-134,cs),
(285,-109,ls),
(285,-74,o),
(298,-54,o),
(331,-41,cs),
(436,0,l),
(421,37,l),
(316,-4,ls),
(235,-36,o),
(218,-54,o),
(218,-108,cs),
(218,-130,ls),
(218,-184,o),
(266,-222,o),
(335,-222,c,{
name = hr00;
})
);
}
);
width = 638;
}
);
unicode = 731;
},
{
glyphname = dieresis.case;
layers = (
{
layerId = master01;
shapes = (
{
closed = 1;
nodes = (
(187,829,o),
(168,823,o),
(144,823,cs),
(119,823,o),
(100,829,o),
(100,848,cs),
(100,935,ls),
(100,954,o),
(119,960,o),
(143,960,cs),
(168,960,o),
(187,954,o),
(187,935,cs),
(187,848,ls,{
name = hr00;
})
);
},
{
closed = 1;
nodes = (
(387,829,o),
(368,823,o),
(344,823,cs),
(319,823,o),
(300,829,o),
(300,848,cs),
(300,935,ls),
(300,954,o),
(319,960,o),
(343,960,cs),
(368,960,o),
(387,954,o),
(387,935,cs),
(387,848,ls)
);
}
);
width = 487;
}
);
},
{
glyphname = dotaccent.case;
layers = (
{
layerId = master01;
shapes = (
{
closed = 1;
nodes = (
(187,829,o),
(168,823,o),
(144,823,cs),
(119,823,o),
(100,829,o),
(100,848,cs),
(100,935,ls),
(100,954,o),
(119,960,o),
(143,960,cs),
(168,960,o),
(187,954,o),
(187,935,cs),
(187,848,ls,{
name = hr00;
})
);
}
);
width = 287;
}
);
},
{
glyphname = grave.case;
layers = (
{
layerId = master01;
shapes = (
{
closed = 1;
nodes = (
(265,807,o),
(285,837,o),
(285,853,cs),
(285,859,o),
(283,863,o),
(275,868,cs),
(109,982,ls),
(105,985,o),
(102,986,o),
(96,986,cs),
(78,986,o),
(50,944,o),
(50,918,cs),
(50,907,o),
(53,902,o),
(61,898,cs),
(237,814,ls),
(251,808,o),
(253,807,o),
(255,807,cs,{
name = hr00;
})
);
}
);
width = 305;
}
);
},
{
glyphname = acute.case;
layers = (
{
layerId = master01;
shapes = (
{
closed = 1;
nodes = (
(82,807,o),
(84,808,o),
(98,814,cs),
(274,898,ls),
(282,902,o),
(285,907,o),
(285,918,cs),
(285,944,o),
(257,986,o),
(239,986,cs),
(233,986,o),
(230,985,o),
(226,982,cs),
(60,868,ls),
(52,863,o),
(50,859,o),
(50,853,cs),
(50,837,o),
(70,807,o),
(80,807,c,{
name = hr00;
})
);
}
);
width = 305;
}
);
},
{
glyphname = hungarumlaut.case;
layers = (
{
layerId = master01;
shapes = (
{
closed = 1;
nodes = (
(81,861,o),
(80,857,o),
(80,853,cs),
(80,838,o),
(99,807,o),
(114,807,cs),
(118,807,o),
(121,809,o),
(132,815,cs),
(268,897,ls),
(275,901,o),
(277,907,o),
(277,912,cs),
(277,936,o),
(247,982,o),
(225,982,cs),
(220,982,o),
(216,980,o),
(213,977,cs),
(85,864,ls,{
name = hr00;
})
);
},
{
closed = 1;
nodes = (
(301,861,o),
(300,857,o),
(300,853,cs),
(300,838,o),
(319,807,o),
(334,807,cs),
(338,807,o),
(341,809,o),
(352,815,cs),
(488,897,ls),
(495,901,o),
(497,907,o),
(497,912,cs),
(497,936,o),
(467,982,o),
(445,982,cs),
(440,982,o),
(436,980,o),
(433,977,cs),
(305,864,ls)
);
}
);
width = 517;
}
);
},
{
glyphname = circumflex.case;
layers = (
{
layerId = master01;
shapes = (
{
closed = 1;
nodes = (
(235,986,o),
(230,985,o),
(227,982,cs),
(107,866,ls),
(101,860,o),
(100,855,o),
(100,851,cs),
(100,833,o),
(119,807,o),
(132,807,cs),
(134,807,o),
(136,808,o),
(139,810,cs),
(242,886,l),
(345,810,ls),
(348,808,o),
(350,807,o),
(352,807,cs),
(365,807,o),
(384,833,o),
(384,851,cs),
(384,855,o),
(383,860,o),
(377,866,cs),
(257,982,ls),
(254,985,o),
(249,986,o),
(248,986,cs),
(237,986,l,{
name = hr00;
})
);
}
);
width = 484;
}
);
},
{
glyphname = caron.case;
layers = (
{
layerId = master01;
shapes = (
{
closed = 1;
nodes = (
(249,802,o),
(254,803,o),
(257,806,cs),
(377,922,ls),
(383,928,o),
(384,933,o),
(384,937,cs),
(384,955,o),
(365,981,o),
(352,981,cs),
(350,981,o),
(348,980,o),
(345,978,cs),
(242,902,l),
(139,978,ls),
(136,980,o),
(134,981,o),
(132,981,cs),
(119,981,o),
(100,955,o),
(100,937,cs),
(100,933,o),
(101,928,o),
(107,922,cs),
(227,806,ls),
(230,803,o),
(235,802,o),
(237,802,c),
(248,802,l,{
name = hr00;
})
);
}
);
width = 484;
}
);
},
{
glyphname = breve.case;
layers = (
{
layerId = master01;
shapes = (
{
closed = 1;
nodes = (
(121,949,o),
(104,954,o),
(85,954,cs),
(66,954,o),
(50,949,o),
(50,934,cs),
(50,909,ls),
(50,848,o),
(82,817,o),
(170,817,cs),
(257,817,o),
(294,848,o),
(294,909,cs),
(294,934,ls),
(294,949,o),
(277,954,o),
(258,954,cs),
(239,954,o),
(223,949,o),
(223,934,cs),
(223,910,ls),
(223,888,o),
(197,880,o),
(171,880,cs),
(143,880,o),
(121,887,o),
(121,909,cs),
(121,934,ls,{
name = hr00;
})
);
}
);
width = 344;
}
);
},
{
glyphname = ring.case;
layers = (
{
layerId = master01;
shapes = (
{
closed = 1;
nodes = (
(254,818,o),
(221,787,o),
(142,787,cs),
(62,787,o),
(33,818,o),
(33,879,cs),
(33,904,ls),
(33,965,o),
(66,996,o),
(145,996,cs),
(225,996,o),
(254,965,o),
(254,904,cs),
(254,879,ls,{
name = hr00;
})
);
},
{
closed = 1;
nodes = (
(95,847,o),
(118,840,o),
(143,840,cs),
(167,840,o),
(192,848,o),
(192,870,cs),
(192,914,ls),
(192,936,o),
(169,943,o),
(144,943,cs),
(120,943,o),
(95,935,o),
(95,913,cs),
(95,869,ls)
);
}
);
width = 287;
}
);
},
{
glyphname = tilde.case;
layers = (
{
layerId = master01;
shapes = (
{
closed = 1;
nodes = (
(180,950,o),
(172,952,o),
(165,952,cs),
(128,952,o),
(100,919,o),
(100,843,cs),
(100,831,o),
(115,827,o),
(135,827,cs),
(154,827,o),
(170,832,o),
(170,847,cs),
(170,865,o),
(175,872,o),
(183,872,cs),
(185,872,o),
(186,871,o),
(188,871,cs),
(329,832,ls),
(337,830,o),
(344,829,o),
(351,829,cs),
(388,829,o),
(417,861,o),
(417,937,cs),
(417,949,o),
(402,953,o),
(382,953,cs,{
name = hr01;
}),
(363,953,o),
(347,948,o),
(347,933,cs),
(347,916,o),
(343,908,o),
(335,908,cs),
(333,908,o),
(331,908,o),
(329,909,cs),
(188,948,l)
);
}
);
width = 517;
}
);
},
{
glyphname = macron.case;
layers = (
{
layerId = master01;
shapes = (
{
closed = 1;
nodes = (
(105,927,o),
(100,911,o),
(100,889,cs),
(100,868,o),
(105,850,o),
(120,850,cs),
(387,850,ls),
(402,850,o),
(407,867,o),
(407,889,cs),
(407,910,o),
(402,927,o),
(387,927,cs),
(120,927,ls,{
name = hr00;
})
);
}
);
width = 507;
}
);
},
{
glyphname = caron.salt;
layers = (
{
layerId = master01;
shapes = (
{
closed = 1;
nodes = (
(113,523,o),
(119,526,o),
(121,532,cs),
(126,546,ls),
(137,582,o),
(143,608,o),
(143,625,cs),
(143,726,ls),
(143,744,o),
(125,750,o),
(100,750,cs),
(76,750,o),
(58,744,o),
(58,726,cs),
(58,664,ls),
(58,640,o),
(82,628,o),
(82,606,cs,{
name = hr01;
}),
(82,598,o),
(79,590,o),
(76,581,cs),
(66,555,ls),
(64,550,o),
(64,548,o),
(64,546,cs),
(64,537,o),
(89,523,o),
(106,523,c)
);
}
);
width = 201;
}
);
},
{
glyphname = eslash;
layers = (
{
layerId = master01;
shapes = (
{
closed = 1;
nodes = (
(389,391,o),
(395,401,o),
(395,422,cs),
(395,436,o),
(392,452,o),
(377,452,c),
(136,387,ls),
(121,383,o),
(115,374,o),
(115,353,cs),
(115,339,o),
(118,323,o),
(133,323,c),
(374,388,l,{
name = hr00;
})
);
}
);
width = 510;
}
);
},
{
glyphname = ethbar;
layers = (
{
layerId = master01;
shapes = (
{
closed = 1;
nodes = (
(103,410,o),
(98,397,o),
(98,379,cs),
(98,362,o),
(103,347,o),
(116,347,cs),
(449,347,ls),
(462,347,o),
(467,361,o),
(467,379,cs),
(467,396,o),
(462,410,o),
(449,410,cs),
(116,410,ls,{
name = hr00;
})
);
}
);
width = 565;
}
);
},
{
glyphname = ringacute;
layers = (
{
layerId = master01;
shapes = (
{
closed = 1;
nodes = (
(216,647,o),
(249,676,o),
(249,739,cs),
(249,764,ls),
(249,775,o),
(248,785,o),
(246,794,c),
(336,835,ls),
(342,838,o),
(345,842,o),
(345,850,cs),
(345,871,o),
(322,904,o),
(307,904,cs),
(302,904,o),
(300,903,o),
(297,901,cs),
(210,843,l),
(194,852,o),
(172,856,o),
(145,856,cs),
(71,856,o),
(38,827,o),
(38,764,cs),
(38,739,ls),
(38,675,o),
(70,647,o),
(142,647,cs,{
name = hr00;
})
);
},
{
closed = 1;
nodes = (
(100,791,o),
(117,803,o),
(144,803,cs),
(172,803,o),
(187,793,o),
(187,774,cs),
(187,730,ls),
(187,712,o),
(170,700,o),
(143,700,cs),
(115,700,o),
(100,710,o),
(100,729,cs),
(100,773,ls)
);
}
);
width = 287;
}
);
},
{
glyphname = ringacute.case;
layers = (
{
layerId = master01;
shapes = (
{
closed = 1;
nodes = (
(216,787,o),
(249,816,o),
(249,879,cs),
(249,904,ls),
(249,915,o),
(248,925,o),
(246,934,c),
(336,975,ls),
(342,978,o),
(345,982,o),
(345,990,cs),
(345,1011,o),
(322,1044,o),
(307,1044,cs),
(302,1044,o),
(300,1043,o),
(297,1041,cs),
(210,983,l),
(194,992,o),
(172,996,o),
(145,996,cs),
(71,996,o),
(38,967,o),
(38,904,cs),
(38,879,ls),
(38,815,o),
(70,787,o),
(142,787,cs,{
name = hr00;
})
);
},
{
closed = 1;
nodes = (
(100,931,o),
(117,943,o),
(144,943,cs),
(172,943,o),
(187,933,o),
(187,914,cs),
(187,870,ls),
(187,852,o),
(170,840,o),
(143,840,cs),
(115,840,o),
(100,850,o),
(100,869,cs),
(100,913,ls)
);
}
